<?xml version="1.0" encoding="UTF-8" standalone="no"?>
<!-- Created with Inkscape (http://www.inkscape.org/) -->

<svg
   width="16"
   height="16"
   viewBox="0 0 16 16"
   version="1.1"
   id="svg1"
   inkscape:version="1.3.2 (091e20e, 2023-11-25, custom)"
   sodipodi:docname="acp_fuel.svg"
   xmlns:inkscape="http://www.inkscape.org/namespaces/inkscape"
   xmlns:sodipodi="http://sodipodi.sourceforge.net/DTD/sodipodi-0.dtd"
   xmlns="http://www.w3.org/2000/svg"
   xmlns:svg="http://www.w3.org/2000/svg">
  <sodipodi:namedview
     id="namedview1"
     pagecolor="#ffffff"
     bordercolor="#000000"
     borderopacity="0.25"
     inkscape:showpageshadow="2"
     inkscape:pageopacity="0.0"
     inkscape:pagecheckerboard="0"
     inkscape:deskcolor="#d1d1d1"
     inkscape:document-units="px"
     showgrid="true"
     inkscape:zoom="4"
     inkscape:cx="-67.625"
     inkscape:cy="-10.375"
     inkscape:window-width="1662"
     inkscape:window-height="955"
     inkscape:window-x="278"
     inkscape:window-y="15"
     inkscape:window-maximized="0"
     inkscape:current-layer="layer1">
    <inkscape:grid
       id="grid1"
       units="px"
       originx="0"
       originy="0"
       spacingx="2"
       spacingy="2"
       empcolor="#0099e5"
       empopacity="0.30196078"
       color="#0099e5"
       opacity="0.14901961"
       empspacing="4"
       dotted="false"
       gridanglex="30"
       gridanglez="30"
       visible="true" />
  </sodipodi:namedview>
  <defs
     id="defs1">
    <inkscape:path-effect
       effect="tiling"
       id="path-effect14"
       is_visible="true"
       lpeversion="1"
       unit="px"
       seed="1;1"
       lpesatellites=""
       num_rows="1"
       num_cols="5"
       gapx="-0.1"
       gapy="0"
       offset="0"
       offset_type="false"
       scale="0"
       rotate="0"
       mirrorrowsx="false"
       mirrorrowsy="false"
       mirrorcolsx="false"
       mirrorcolsy="false"
       mirrortrans="false"
       shrink_interp="false"
       split_items="false"
       link_styles="false"
       interpolate_scalex="false"
       interpolate_scaley="true"
       interpolate_rotatex="false"
       interpolate_rotatey="true"
       random_scale="false"
       random_rotate="false"
       random_gap_y="false"
       random_gap_x="false"
       transformorigin="translate(0.625,-0.296875)" />
    <inkscape:path-effect
       effect="clone_original"
       linkeditem=""
       id="path-effect13"
       is_visible="true"
       lpeversion="1"
       method="d"
       attributes=""
       css_properties=""
       allow_transforms="true" />
    <inkscape:path-effect
       effect="clone_original"
       linkeditem=""
       id="path-effect11"
       is_visible="true"
       lpeversion="1"
       method="d"
       attributes=""
       css_properties=""
       allow_transforms="true" />
    <inkscape:path-effect
       effect="mirror_symmetry"
       start_point="5.8,4.28"
       end_point="6,13.113611"
       center_point="5.9,8.6968055"
       id="path-effect5"
       is_visible="true"
       lpeversion="1.2"
       lpesatellites=""
       mode="free"
       discard_orig_path="false"
       fuse_paths="true"
       oposite_fuse="false"
       split_items="false"
       split_open="false"
       link_styles="true" />
  </defs>
  <g
     inkscape:label="Warstwa 1"
     inkscape:groupmode="layer"
     id="layer1">
    <rect
       style="fill:#8e690a;fill-opacity:1;stroke:none;stroke-width:0.5;stroke-linecap:butt;stroke-linejoin:bevel;stroke-dasharray:none;stroke-opacity:1;paint-order:markers fill stroke"
       id="rect5"
       width="15.382239"
       height="15.402831"
       x="0.37065637"
       y="0.2882883" />
    <path
       id="rect1"
       style="fill:#000000;stroke-width:0.03;stroke-linecap:round;stroke-linejoin:round;paint-order:markers fill stroke"
       d="M 0.021484375 0.021484375 L 0.021484375 16.021484 L 16.021484 16.021484 L 16.021484 0.021484375 L 0.021484375 0.021484375 z M 0.5 0.5 L 15.5 0.5 L 15.5 15.5 L 0.5 15.5 L 0.5 0.5 z M 7.9785156 0.96875 A 7 7 0 0 0 0.97851562 7.96875 A 7 7 0 0 0 7.9785156 14.96875 A 7 7 0 0 0 14.978516 7.96875 A 7 7 0 0 0 7.9785156 0.96875 z M 8 1.5 A 6.5 6.5 0 0 1 14.5 8 A 6.5 6.5 0 0 1 8 14.5 A 6.5 6.5 0 0 1 1.5 8 A 6.5 6.5 0 0 1 8 1.5 z " />
    <path
       id="path3"
       style="fill:none;fill-opacity:1;stroke:#000000;stroke-width:0.5;stroke-linecap:butt;stroke-linejoin:bevel;stroke-dasharray:none;stroke-opacity:1;paint-order:markers fill stroke"
       d="M 8 0.18554688 L 8 1.2148438 L 8 0.18554688 z M 0.30078125 8 L 1.2285156 8 L 0.30078125 8 z M 14.695312 8 L 15.621094 8 L 14.695312 8 z M 8 14.722656 L 8 15.751953 L 8 14.722656 z " />
    <path
       id="path17"
       style="fill:#000000;fill-opacity:1;stroke:none;stroke-width:0.4;stroke-linecap:butt;stroke-linejoin:bevel;stroke-dasharray:none;stroke-opacity:1;paint-order:markers fill stroke"
       d="M 5.8125 2.3320312 L 5.1933594 2.3867188 L 3.5800781 3.5800781 L 2.5195312 5.015625 L 2.5625 5.921875 L 2.9824219 6.296875 L 6.1894531 9.4101562 L 10.296875 12.75 L 10.408203 13.214844 L 11.136719 13.369141 L 12.904297 11.822266 L 14.03125 9.7011719 L 13.765625 9.2148438 L 13.169922 9.015625 L 9.2148438 5.28125 L 6.0546875 2.6523438 L 5.8125 2.3320312 z M 5.28125 2.6953125 L 5.4726562 3.2773438 L 5.0390625 4.1328125 L 4 5.0605469 L 2.9160156 5.6796875 L 2.9394531 4.90625 L 3.8671875 3.6230469 L 5.28125 2.6953125 z " />
    <path
       style="fill:none;fill-opacity:1;stroke:#000000;stroke-width:0.1;stroke-linecap:butt;stroke-linejoin:miter;stroke-dasharray:none;stroke-opacity:1;paint-order:markers fill stroke"
       d="M 5.0547086,3.1046407 3.9885242,3.7344077 3.1985533,4.8668834 3.1875048,5.1928154 3.9885242,4.7232523 4.8116407,4.005097 Z"
       id="path18" />
    <path
       style="fill:none;fill-opacity:1;stroke:#000000;stroke-width:0.1;stroke-linecap:square;stroke-linejoin:miter;stroke-dasharray:none;stroke-opacity:1;paint-order:markers fill stroke"
       d="M 4.5575242,3.7012621 4.126631,3.9222329 3.6570679,4.634864 4.4470387,4.0492912 Z"
       id="path19" />
    <path
       style="fill:#000000;fill-opacity:1;stroke:none;stroke-width:0.1;stroke-linecap:square;stroke-linejoin:miter;stroke-dasharray:none;stroke-opacity:1;paint-order:markers fill stroke"
       d="M 8.5736697,5.347495 10.584505,5.1044271 11.446291,4.839262 11.75565,5.3253979 9.5459415,6.2755727 Z"
       id="path20" />
  </g>
</svg>
