<?xml version="1.0" encoding="UTF-8" standalone="no"?>
<!-- Created with Inkscape (http://www.inkscape.org/) -->

<svg
   width="16"
   height="16"
   viewBox="0 0 16 16"
   version="1.1"
   id="svg1"
   inkscape:version="1.3.2 (091e20e, 2023-11-25, custom)"
   sodipodi:docname="acp_fire.svg"
   xmlns:inkscape="http://www.inkscape.org/namespaces/inkscape"
   xmlns:sodipodi="http://sodipodi.sourceforge.net/DTD/sodipodi-0.dtd"
   xmlns="http://www.w3.org/2000/svg"
   xmlns:svg="http://www.w3.org/2000/svg">
  <sodipodi:namedview
     id="namedview1"
     pagecolor="#ffffff"
     bordercolor="#000000"
     borderopacity="0.25"
     inkscape:showpageshadow="2"
     inkscape:pageopacity="0.0"
     inkscape:pagecheckerboard="0"
     inkscape:deskcolor="#d1d1d1"
     inkscape:document-units="px"
     showgrid="true"
     inkscape:zoom="4"
     inkscape:cx="-65.625"
     inkscape:cy="16.875"
     inkscape:window-width="1662"
     inkscape:window-height="955"
     inkscape:window-x="191"
     inkscape:window-y="54"
     inkscape:window-maximized="0"
     inkscape:current-layer="layer1">
    <inkscape:grid
       id="grid1"
       units="px"
       originx="0"
       originy="0"
       spacingx="2"
       spacingy="2"
       empcolor="#0099e5"
       empopacity="0.30196078"
       color="#0099e5"
       opacity="0.14901961"
       empspacing="4"
       dotted="false"
       gridanglex="30"
       gridanglez="30"
       visible="true" />
  </sodipodi:namedview>
  <defs
     id="defs1">
    <inkscape:path-effect
       effect="mirror_symmetry"
       start_point="5.8,4.28"
       end_point="6,13.113611"
       center_point="5.9,8.6968055"
       id="path-effect5"
       is_visible="true"
       lpeversion="1.2"
       lpesatellites=""
       mode="free"
       discard_orig_path="false"
       fuse_paths="true"
       oposite_fuse="false"
       split_items="false"
       split_open="false"
       link_styles="true" />
  </defs>
  <g
     inkscape:label="Warstwa 1"
     inkscape:groupmode="layer"
     id="layer1">
    <rect
       style="fill:#ff8000;fill-opacity:1;stroke:none;stroke-width:0.5;stroke-linecap:butt;stroke-linejoin:bevel;stroke-dasharray:none;stroke-opacity:1;paint-order:markers fill stroke"
       id="rect5"
       width="15.382239"
       height="15.402831"
       x="0.37065637"
       y="0.2882883" />
    <path
       id="rect1"
       style="fill:#000000;stroke-width:0.03;stroke-linecap:round;stroke-linejoin:round;paint-order:markers fill stroke"
       d="M 0.021484375 0.021484375 L 0.021484375 16.021484 L 16.021484 16.021484 L 16.021484 0.021484375 L 0.021484375 0.021484375 z M 0.5 0.5 L 15.5 0.5 L 15.5 15.5 L 0.5 15.5 L 0.5 0.5 z M 7.9785156 0.96875 A 7 7 0 0 0 0.97851562 7.96875 A 7 7 0 0 0 7.9785156 14.96875 A 7 7 0 0 0 14.978516 7.96875 A 7 7 0 0 0 7.9785156 0.96875 z M 8 1.5 A 6.5 6.5 0 0 1 14.5 8 A 6.5 6.5 0 0 1 8 14.5 A 6.5 6.5 0 0 1 1.5 8 A 6.5 6.5 0 0 1 8 1.5 z " />
    <path
       id="path3"
       style="fill:none;fill-opacity:1;stroke:#000000;stroke-width:0.5;stroke-linecap:butt;stroke-linejoin:bevel;stroke-dasharray:none;stroke-opacity:1;paint-order:markers fill stroke"
       d="M 8 0.18554688 L 8 1.2148438 L 8 0.18554688 z M 0.30078125 8 L 1.2285156 8 L 0.30078125 8 z M 14.695312 8 L 15.621094 8 L 14.695312 8 z M 8 14.722656 L 8 15.751953 L 8 14.722656 z " />
    <path
       id="path7"
       style="fill:#000000;fill-opacity:1;stroke:none;stroke-width:0.5;stroke-linecap:butt;stroke-linejoin:bevel;stroke-dasharray:none;stroke-opacity:1;paint-order:markers fill stroke"
       d="M 7.984375 2.1367188 C 6.7238842 4.2617386 4.6110835 7.974201 4.6152344 9.9785156 C 4.6193544 11.969254 5.987223 13.046106 7.9511719 13.070312 C 7.9511847 13.071612 7.951159 13.074772 7.9511719 13.076172 C 9.9532441 13.079072 11.371913 11.9685 11.357422 9.9824219 C 11.357546 7.9717413 9.1541789 4.2420674 7.984375 2.1367188 z M 8.0214844 6.7832031 C 8.0214844 6.7832031 10.450448 10.780172 9.5898438 11.910156 C 8.7292393 13.04014 7.2456984 12.968974 6.4296875 11.822266 C 5.6136766 10.675557 8.0214844 6.7832031 8.0214844 6.7832031 z " />
  </g>
</svg>
