<?xml version="1.0" encoding="UTF-8" standalone="no"?>
<!-- Created with Inkscape (http://www.inkscape.org/) -->

<svg
   width="16"
   height="16"
   viewBox="0 0 16 16"
   version="1.1"
   id="svg1"
   inkscape:version="1.3.2 (091e20e, 2023-11-25, custom)"
   sodipodi:docname="bloodVision.svg"
   xmlns:inkscape="http://www.inkscape.org/namespaces/inkscape"
   xmlns:sodipodi="http://sodipodi.sourceforge.net/DTD/sodipodi-0.dtd"
   xmlns="http://www.w3.org/2000/svg"
   xmlns:svg="http://www.w3.org/2000/svg">
  <sodipodi:namedview
     id="namedview1"
     pagecolor="#ffffff"
     bordercolor="#000000"
     borderopacity="0.25"
     inkscape:showpageshadow="2"
     inkscape:pageopacity="0.0"
     inkscape:pagecheckerboard="0"
     inkscape:deskcolor="#d1d1d1"
     inkscape:document-units="px"
     showgrid="true"
     inkscape:zoom="45.254834"
     inkscape:cx="7.0710678"
     inkscape:cy="7.0600193"
     inkscape:window-width="1662"
     inkscape:window-height="959"
     inkscape:window-x="158"
     inkscape:window-y="19"
     inkscape:window-maximized="0"
     inkscape:current-layer="layer1">
    <inkscape:grid
       id="grid1"
       units="px"
       originx="0"
       originy="0"
       spacingx="2"
       spacingy="2"
       empcolor="#0099e5"
       empopacity="0.30196078"
       color="#0099e5"
       opacity="0.14901961"
       empspacing="4"
       dotted="false"
       gridanglex="30"
       gridanglez="30"
       visible="true" />
  </sodipodi:namedview>
  <defs
     id="defs1" />
  <g
     inkscape:label="Warstwa 1"
     inkscape:groupmode="layer"
     id="layer1">
    <rect
       style="fill:#000000;stroke:none;stroke-width:0.5;stroke-linecap:square;stroke-dasharray:0.5, 1;paint-order:markers fill stroke"
       id="rect1"
       width="16.6325"
       height="16.557198"
       x="-0.24710424"
       y="-0.2059202"
       ry="0" />
    <path
       style="fill:#d40000;stroke:none;stroke-width:0.5;stroke-linecap:square;stroke-dasharray:0.5, 1;paint-order:markers fill stroke"
       d="m 8.7919329,3.702392 c 0.461314,-0.00322 1.0848042,-0.1070557 1.0899012,0.1881735 0.0051,0.2952297 0.065155,3.8576754 -0.022094,5.5752346 -0.08725,1.7175589 -1.31915,2.7923369 -1.333389,3.8952159 -0.01424,1.102879 0.881684,2.2123 1.7661161,2.220301 0.884432,0.008 1.662255,-0.942303 1.689048,-2.200012 0.02679,-1.25771 -1.32249,-2.263625 -1.367829,-3.9365778 -0.04534,-1.6729529 -0.003,-5.369621 0.0036,-5.6818575 0.0066,-0.3122366 0.603071,-0.912555 1.00412,-0.9181098 0.40105,-0.00555 -1.065864,-0.2052533 -1.065864,-0.2052533 0,0 -1.1864,0.1380291 -0.725086,0.1348073 z"
       id="path2"
       sodipodi:nodetypes="zzzzzzzzzczz" />
    <path
       id="path3"
       style="display:none;fill:#d40000;stroke:none;stroke-width:0.5;stroke-linecap:square;stroke-dasharray:0.5, 1;paint-order:markers fill stroke"
       d="m 4.8090246,4.132272 v 0.00977 C 4.8194158,3.5673886 3.0395972,4.8875813 3.378686,4.8877907 c 0.346223,2.138e-4 0.604164,0.6433415 0.595091,0.9550009 -0.0091,0.3116595 0.222503,1.8493324 0,3.539411 C 3.751274,11.072281 2.8628929,12.337274 2.8780738,13.474 c 0.015035,1.125812 1.0084102,1.547637 1.5332032,1.550781 0.0049,4.7e-5 0.01064,2.8e-5 0.01563,0 0.524711,-0.003 1.520119,-0.424745 1.535156,-1.550781 0.01518,-1.136726 -0.875153,-2.401719 -1.097656,-4.0917974 -0.222503,-1.6900786 0.0091,-3.2277515 0,-3.539411 C 4.855307,5.5311278 5.2699025,4.5123497 5.6161255,4.5121359 5.9552355,4.5119265 4.9265427,3.7421486 4.8266026,4.1400845 v -0.00586 c 0,0 -0.1382826,-0.3958476 -0.0059,0.00195 0.4193596,-0.6189089 -0.01172,-0.00391 -0.01172,-0.00391 z"
       sodipodi:nodetypes="ccscssccsscsccccc" />
    <path
       style="fill:#d40000;stroke:none;stroke-width:0.5;stroke-linecap:square;stroke-dasharray:0.5, 1;paint-order:markers fill stroke"
       d="m 15.711028,1.1932427 c 0,0 -5.015412,0.5132503 -7.557203,1.1932426 -2.5417912,0.6799923 -7.60139783,2.9168156 -7.60139783,2.9168156 0,0 5.44105123,-0.7189985 7.97704833,-1.4142137 C 11.065473,3.1938721 15.711028,1.1932427 15.711028,1.1932427 Z"
       id="path4"
       sodipodi:nodetypes="czczc" />
    <path
       style="fill:#d40000;stroke:none;stroke-width:0.5;stroke-linecap:square;stroke-dasharray:0.5, 1;paint-order:markers fill stroke"
       d="M 4.4415145,4.5740969 C 4.0397351,5.5295277 5.0452789,7.0666258 6.098796,7.0047765 7.1523131,6.9429272 8.3249713,4.8954956 7.6676892,3.9995727 7.0104071,3.1036498 4.8432939,3.6186661 4.4415145,4.5740969 Z"
       id="path5"
       sodipodi:nodetypes="zzzz" />
  </g>
</svg>
