<?xml version="1.0" encoding="UTF-8" standalone="no"?>
<!-- Created with Inkscape (http://www.inkscape.org/) -->

<svg
   width="16"
   height="16"
   viewBox="0 0 16 16"
   version="1.1"
   id="svg1"
   inkscape:version="1.3.2 (091e20e, 2023-11-25, custom)"
   sodipodi:docname="divineGuidance.svg"
   xmlns:inkscape="http://www.inkscape.org/namespaces/inkscape"
   xmlns:sodipodi="http://sodipodi.sourceforge.net/DTD/sodipodi-0.dtd"
   xmlns="http://www.w3.org/2000/svg"
   xmlns:svg="http://www.w3.org/2000/svg">
  <sodipodi:namedview
     id="namedview1"
     pagecolor="#ffffff"
     bordercolor="#000000"
     borderopacity="0.25"
     inkscape:showpageshadow="2"
     inkscape:pageopacity="0.0"
     inkscape:pagecheckerboard="0"
     inkscape:deskcolor="#d1d1d1"
     inkscape:document-units="px"
     showgrid="true"
     inkscape:zoom="45.254834"
     inkscape:cx="9.1923881"
     inkscape:cy="9.7779609"
     inkscape:window-width="1920"
     inkscape:window-height="991"
     inkscape:window-x="-9"
     inkscape:window-y="-9"
     inkscape:window-maximized="1"
     inkscape:current-layer="layer1">
    <inkscape:grid
       id="grid1"
       units="px"
       originx="0"
       originy="0"
       spacingx="2"
       spacingy="2"
       empcolor="#0099e5"
       empopacity="0.30196078"
       color="#0099e5"
       opacity="0.14901961"
       empspacing="4"
       dotted="false"
       gridanglex="30"
       gridanglez="30"
       visible="true" />
  </sodipodi:namedview>
  <defs
     id="defs1" />
  <g
     inkscape:label="Warstwa 1"
     inkscape:groupmode="layer"
     id="layer1">
    <rect
       style="fill:#f2ff1e;fill-opacity:1;stroke-width:0.3;stroke-linecap:round;stroke-linejoin:round;paint-order:markers fill stroke"
       id="rect10"
       width="16.705399"
       height="16.6833"
       x="-0.37565047"
       y="-0.37565047" />
    <circle
       style="fill:#f5f7c9;fill-opacity:1;stroke-width:0.3;stroke-linecap:round;stroke-linejoin:round;paint-order:markers fill stroke"
       id="path13"
       cx="8"
       cy="0"
       r="8" />
    <path
       id="path11"
       style="fill:#ffffff;fill-opacity:1;stroke-width:0.3;stroke-linecap:round;stroke-linejoin:round;paint-order:markers fill stroke"
       d="M 8.9921875 -1.3261719 L 8.109375 -1.1035156 L 8.109375 -1.0996094 L 7.2929688 -1.3046875 L 1.8339844 17.632812 L 8.5058594 17.435547 L 8.5078125 17.435547 L 14.451172 17.611328 L 8.9921875 -1.3261719 z M 10.185547 -1.1933594 L 9.7011719 -0.8828125 L 17.5 15.644531 L 17.611328 9.6347656 L 10.185547 -1.1933594 z M 6.0996094 -1.171875 L -1.3261719 9.65625 L -1.2148438 15.666016 L 6.5839844 -0.86132812 L 6.0996094 -1.171875 z M 11.490234 -1.0820312 L 11.203125 -0.94921875 L 17.589844 6.5195312 L 17.589844 4.8183594 L 11.490234 -1.0820312 z M 4.7949219 -1.0605469 L -1.3046875 4.8398438 L -1.3046875 6.5410156 L 5.0820312 -0.92773438 L 4.7949219 -1.0605469 z " />
    <path
       id="path14"
       style="fill:#060668;stroke-width:0.3;stroke-linecap:round;stroke-linejoin:round;paint-order:markers fill stroke;fill-opacity:1"
       d="M 7.9492188,4.015625 C 5.7427159,4.0149391 3.9535179,5.8032626 3.953125,8.0097656 v 0.00391 c -5.608e-4,1.415e-4 -0.00139,-1.419e-4 -0.00195,0 0.00203,0.057749 0.0099,0.138922 0.019531,0.2324219 0.010437,0.1816851 0.033277,0.3624446 0.068359,0.5410156 C 4.2738686,10.434545 5.3189847,13.640027 5.6243101,13.975567 6.0288462,14.420135 6.8150373,14.822148 8,14.824219 c 1.1849628,0.0021 1.9732074,-0.395802 2.383502,-0.846699 0.309266,-0.339871 1.28179,-3.607059 1.481732,-5.2294731 0.0489,-0.2431352 0.07506,-0.490296 0.07813,-0.7382813 C 11.942966,5.8040255 10.154959,4.016018 7.9492188,4.015625 Z"
       sodipodi:nodetypes="csccccscsccc" />
    <path
       id="path1"
       style="fill:#0000ae;stroke-width:0.3;stroke-linecap:round;stroke-linejoin:round;paint-order:markers fill stroke"
       d="M 7.9492188,4.015625 C 5.7427159,4.0149391 3.9535179,5.8032626 3.953125,8.0097656 v 0.00391 c -5.608e-4,1.415e-4 -0.00139,-1.419e-4 -0.00195,0 0.00203,0.057749 0.0099,0.138922 0.019531,0.2324219 0.010437,0.1816851 0.033277,0.3624446 0.068359,0.5410156 0.2348036,1.6474319 1.3130653,4.6595639 1.6183907,4.9951039 0.4045361,0.444568 1.1631059,-0.0097 2.3480686,-0.0076 1.1849628,0.0021 1.9124404,0.443888 2.3227347,-0.007 0.309266,-0.339871 1.337033,-3.397137 1.536975,-5.0195511 0.0489,-0.2431352 0.07506,-0.490296 0.07813,-0.7382813 C 11.942966,5.8040255 10.154959,4.016018 7.9492188,4.015625 Z"
       sodipodi:nodetypes="csccccscsccc" />
    <g
       id="g7">
      <path
         style="fill:#ffffff;fill-opacity:1;stroke-width:0.3;stroke-linecap:round;stroke-linejoin:round;paint-order:markers fill stroke"
         d="M 7.2809901,7.2146989 C 7.3297191,7.0763277 7.2135366,6.7829984 6.9274367,6.6622717 6.6413368,6.5415449 4.6498929,6.9624122 4.6514368,7.2036503 4.6529807,7.4448883 5.640647,7.7411668 6.1319416,7.7118833 6.6232362,7.6825998 7.2322611,7.35307 7.2809901,7.2146989 Z"
         id="path3"
         sodipodi:nodetypes="zzzzz" />
      <path
         style="fill:#ffffff;fill-opacity:1;stroke-width:0.3;stroke-linecap:round;stroke-linejoin:round;paint-order:markers fill stroke"
         d="m 8.0934507,11.67764 c -0.4459815,-0.03324 -1.3428038,0.0774 -1.7184411,0.420515 -0.3756373,0.343116 -0.4198447,0.53033 -0.4198447,0.53033 0,0 0.3104909,0.389789 0.7071068,0.552427 0.3966159,0.162638 0.9909742,0.253267 1.434415,0.239162 -0.00955,-0.527862 8.036e-4,-0.99656 -0.00324,-1.742434 z"
         id="path4"
         sodipodi:nodetypes="czczcc" />
      <path
         style="fill:#ffffff;fill-opacity:1;stroke-width:0.3;stroke-linecap:round;stroke-linejoin:round;paint-order:markers fill stroke"
         d="M 8.010194,9.3912619 7.115262,9.9657862 8.0662219,9.9878833 Z"
         id="path5"
         sodipodi:nodetypes="cccc" />
      <path
         id="path6"
         style="fill:#f2ff1e;fill-opacity:1;stroke-width:0.3;stroke-linecap:round;stroke-linejoin:round;paint-order:markers fill stroke"
         d="M 6.5527344 6.6503906 C 6.2747569 6.6753987 5.8973846 6.7440559 5.5507812 6.828125 A 0.53125 0.53125 0 0 0 5.546875 6.890625 A 0.53125 0.53125 0 0 0 6.078125 7.421875 A 0.53125 0.53125 0 0 0 6.609375 6.890625 A 0.53125 0.53125 0 0 0 6.5527344 6.6503906 z " />
    </g>
    <g
       id="g10"
       transform="matrix(-1,0,0,1,16.018492,0)">
      <path
         style="fill:#ffffff;fill-opacity:1;stroke-width:0.3;stroke-linecap:round;stroke-linejoin:round;paint-order:markers fill stroke"
         d="M 7.2809901,7.2146989 C 7.3297191,7.0763277 7.2135366,6.7829984 6.9274367,6.6622717 6.6413368,6.5415449 4.6498929,6.9624122 4.6514368,7.2036503 4.6529807,7.4448883 5.640647,7.7411668 6.1319416,7.7118833 6.6232362,7.6825998 7.2322611,7.35307 7.2809901,7.2146989 Z"
         id="path7"
         sodipodi:nodetypes="zzzzz" />
      <path
         style="fill:#ffffff;fill-opacity:1;stroke-width:0.3;stroke-linecap:round;stroke-linejoin:round;paint-order:markers fill stroke"
         d="m 8.0934507,11.67764 c -0.4459815,-0.03324 -1.3428038,0.0774 -1.7184411,0.420515 -0.3756373,0.343116 -0.4198447,0.53033 -0.4198447,0.53033 0,0 0.3104909,0.389789 0.7071068,0.552427 0.3966159,0.162638 0.9909742,0.253267 1.434415,0.239162 -0.00955,-0.527862 8.036e-4,-0.99656 -0.00324,-1.742434 z"
         id="path8"
         sodipodi:nodetypes="czczcc" />
      <path
         style="fill:#ffffff;fill-opacity:1;stroke-width:0.3;stroke-linecap:round;stroke-linejoin:round;paint-order:markers fill stroke"
         d="M 8.010194,9.3912619 7.115262,9.9657862 8.0662219,9.9878833 Z"
         id="path9"
         sodipodi:nodetypes="cccc" />
      <path
         id="path10"
         style="fill:#f2ff1e;fill-opacity:1;stroke-width:0.3;stroke-linecap:round;stroke-linejoin:round;paint-order:markers fill stroke"
         d="M 6.5527344,6.6503906 C 6.2747569,6.6753987 5.8973846,6.7440559 5.5507812,6.828125 a 0.53125,0.53125 0 0 0 -0.00391,0.0625 0.53125,0.53125 0 0 0 0.53125,0.53125 0.53125,0.53125 0 0 0 0.53125,-0.53125 0.53125,0.53125 0 0 0 -0.056641,-0.2402344 z" />
    </g>
  </g>
</svg>
