<?xml version="1.0" encoding="UTF-8" standalone="no"?>
<!-- Created with Inkscape (http://www.inkscape.org/) -->

<svg
   width="16"
   height="16"
   viewBox="0 0 16 16"
   version="1.1"
   id="svg1"
   inkscape:version="1.3.2 (091e20e, 2023-11-25, custom)"
   sodipodi:docname="dream_connected.svg"
   xmlns:inkscape="http://www.inkscape.org/namespaces/inkscape"
   xmlns:sodipodi="http://sodipodi.sourceforge.net/DTD/sodipodi-0.dtd"
   xmlns="http://www.w3.org/2000/svg"
   xmlns:svg="http://www.w3.org/2000/svg">
  <sodipodi:namedview
     id="namedview1"
     pagecolor="#ffffff"
     bordercolor="#000000"
     borderopacity="0.25"
     inkscape:showpageshadow="2"
     inkscape:pageopacity="0.0"
     inkscape:pagecheckerboard="0"
     inkscape:deskcolor="#d1d1d1"
     inkscape:document-units="px"
     showgrid="true"
     inkscape:zoom="45.254834"
     inkscape:cx="5.3033009"
     inkscape:cy="7.4798639"
     inkscape:window-width="1920"
     inkscape:window-height="991"
     inkscape:window-x="-9"
     inkscape:window-y="-9"
     inkscape:window-maximized="1"
     inkscape:current-layer="layer1">
    <inkscape:grid
       id="grid1"
       units="px"
       originx="0"
       originy="0"
       spacingx="2"
       spacingy="2"
       empcolor="#0099e5"
       empopacity="0.30196078"
       color="#0099e5"
       opacity="0.14901961"
       empspacing="4"
       dotted="false"
       gridanglex="30"
       gridanglez="30"
       visible="true" />
  </sodipodi:namedview>
  <defs
     id="defs1">
    <inkscape:path-effect
       effect="copy_rotate"
       starting_point="9.021394,6.5369127"
       origin="7.8158037,7.8510191"
       id="path-effect20"
       is_visible="true"
       lpeversion="1.2"
       lpesatellites=""
       method="normal"
       num_copies="7"
       starting_angle="47.466041"
       rotation_angle="51.428571"
       gap="-0.01"
       copies_to_360="true"
       mirror_copies="false"
       split_items="false"
       link_styles="false" />
    <inkscape:path-effect
       effect="copy_rotate"
       starting_point="9.2324666,6.7647988"
       origin="7.9630033,8.00032"
       id="path-effect19"
       is_visible="false"
       lpeversion="1.2"
       lpesatellites=""
       method="normal"
       num_copies="7"
       starting_angle="44.2237"
       rotation_angle="51.428571"
       gap="-0.01"
       copies_to_360="true"
       mirror_copies="false"
       split_items="false"
       link_styles="false" />
    <inkscape:path-effect
       effect="copy_rotate"
       starting_point="5.981982,4.6126126"
       origin="6.4761904,7.006435"
       id="path-effect13"
       is_visible="true"
       lpeversion="1.2"
       lpesatellites=""
       method="normal"
       num_copies="7"
       starting_angle="101.54926"
       rotation_angle="51.428571"
       gap="-0.01"
       copies_to_360="true"
       mirror_copies="false"
       split_items="false"
       link_styles="false" />
    <filter
       style="color-interpolation-filters:sRGB"
       id="filter1"
       inkscape:label="filtr1" />
  </defs>
  <g
     inkscape:label="Warstwa 1"
     inkscape:groupmode="layer"
     id="layer1">
    <rect
       style="fill:#000000;paint-order:markers fill stroke"
       id="rect1"
       width="16.576576"
       height="16.494209"
       x="-0.16473617"
       y="-0.16473617" />
    <circle
       style="fill:#ff928b;fill-opacity:1;fill-rule:nonzero;stroke-width:1;paint-order:markers fill stroke"
       id="path18"
       cx="8"
       cy="8"
       r="4" />
    <path
       id="path19"
       style="fill:#ff928b;fill-opacity:1;fill-rule:nonzero;paint-order:markers fill stroke"
       d="m 4.9090839,-0.47275043 c 1e-7,7e-8 1.2131238,3.92842183 2.8497128,3.89990433 1.6365896,-0.028518 2.9229933,-4.22040045 2.9229933,-4.22040045 0,0 -1.5636668,3.81141005 -2.9827024,3.82900265 C 6.2800522,3.0533487 4.9090839,-0.47275043 4.9090839,-0.47275043 Z M 7.4347422,1.6482044 C 7.2502887,1.8493167 7.2637496,2.1618682 7.464811,2.3463772 7.6659231,2.530831 7.9784745,2.5173705 8.1629838,2.3163093 8.347438,2.1151971 8.3339774,1.8026451 8.1329157,1.6181359 7.9318034,1.4336817 7.6192514,1.4471426 7.4347422,1.6482044 Z m -7.9390337,3.2855943 c 1e-7,0 3.8277342,1.5008727 4.8258349,0.2035554 C 5.3196441,3.8400363 2.8443582,0.22068899 2.8443582,0.22068899 c 0,0 2.0049498,3.59889961 1.13395,4.71931501 -0.8709997,1.1204155 -4.4825997,-0.00621 -4.4825997,-0.00621 z M 2.7286599,4.2815532 C 2.770891,4.5511563 3.0236463,4.7355048 3.293261,4.6933481 3.5628641,4.6511174 3.7472129,4.3983624 3.7050566,4.1287477 3.6628261,3.8591442 3.4100705,3.6747951 3.1404555,3.7169518 2.870852,3.7591825 2.686503,4.0119382 2.7286599,4.2815532 Z M 0.34753445,12.537074 c 5e-8,0 3.55998275,-2.056864 3.16800485,-3.6460746 -0.3919783,-1.589211 -4.7650135,-1.9105807 -4.7650135,-1.9105807 0,0 4.0637988,0.6763443 4.3967154,2.055887 C 3.4801578,10.415848 0.34753445,12.537074 0.34753445,12.537074 Z M 1.8533007,9.6027827 C 2.0904155,9.7378599 2.3921353,9.6551872 2.5272779,9.4181097 2.6623554,9.1809951 2.5796831,8.8792753 2.3426058,8.7441323 2.105491,8.6090545 1.8037706,8.6917269 1.6686278,8.9288047 1.53355,9.1659197 1.6162227,9.46764 1.8533007,9.6027827 Z m 4.9698188,7.0088723 c -10e-8,0 0.6114916,-4.065741 -0.8753975,-4.750137 -1.4868896,-0.684396 -4.4646894,2.53421 -4.4646894,2.53421 0,0 3.0625244,-2.755512 4.3486643,-2.155666 1.28614,0.599846 0.9914226,4.371593 0.9914226,4.371593 z M 5.4678278,13.604898 C 5.7212741,13.503734 5.8447572,13.216294 5.7436626,12.96282 5.6424984,12.709374 5.3550589,12.58589 5.1015847,12.686985 c -0.2534468,0.101164 -0.3769305,0.388604 -0.2758358,0.642078 0.1011644,0.253447 0.3886044,0.37693 0.6420789,0.275835 z m 8.5783882,0.4844 c 0,0 -2.797465,-3.013031 -4.2596077,-2.277249 -1.4621428,0.735784 -0.8023631,5.070689 -0.8023631,5.070689 0,0 -0.2448934,-4.112411 1.0259808,-4.743958 1.270873,-0.631547 4.03599,1.950518 4.03599,1.950518 z m -3.195787,-0.815072 c 0.07893,-0.261228 -0.06881,-0.536986 -0.330017,-0.615986 -0.261227,-0.07893 -0.5369862,0.06881 -0.6159862,0.330016 -0.078928,0.261228 0.068811,0.536987 0.3300162,0.615987 0.261228,0.07893 0.536987,-0.06881 0.615987,-0.330017 z m 5.727256,-6.4048362 c 0,10e-8 -4.099874,0.3085521 -4.436246,1.9104542 -0.336373,1.601903 3.464159,3.788836 3.464159,3.788836 0,0 -3.367902,-2.372582 -3.069288,-3.7599538 0.298613,-1.3873721 4.041375,-1.9393364 4.041375,-1.9393364 z m -2.62979,1.990378 C 13.79287,8.6351871 13.485159,8.5787613 13.260536,8.7337246 c -0.224581,0.1550249 -0.281007,0.4627353 -0.126044,0.6873588 0.155025,0.2245813 0.462736,0.2810075 0.687359,0.1260441 0.224582,-0.1550251 0.281008,-0.4627362 0.126044,-0.6873597 z M 12.511279,0.38866867 c 0,1e-7 -2.314994,3.39778933 -1.272302,4.65954583 1.042694,1.2617566 5.122099,-0.3460882 5.122099,-0.3460882 0,0 -3.954811,1.153851 -4.853319,0.055373 -0.898509,-1.0984777 1.003522,-4.36883073 1.003522,-4.36883073 z m -0.08351,3.29703283 c -0.272241,-0.01882 -0.508211,0.1865767 -0.527106,0.4588124 -0.01882,0.2722408 0.186576,0.5082108 0.458811,0.5271064 0.272241,0.018821 0.508212,-0.1865762 0.527107,-0.4588122 0.01882,-0.2722412 -0.186576,-0.5082115 -0.458812,-0.5271066 z"
       inkscape:path-effect="#path-effect20"
       inkscape:original-d="m 11.984375,0.08203125 c 0,1e-7 -2.0746584,3.54964225 -0.947266,4.73632815 1.127393,1.186686 5.085938,-0.6992188 5.085938,-0.6992188 0,0 -3.865621,1.4243863 -4.837891,0.390625 -0.97227,-1.0337612 0.699219,-4.42773435 0.699219,-4.42773435 z m 0.144531,3.29492185 a 0.49420848,0.49420848 0 0 0 -0.49414,0.4941407 0.49420848,0.49420848 0 0 0 0.49414,0.4941406 0.49420848,0.49420848 0 0 0 0.494141,-0.4941406 0.49420848,0.49420848 0 0 0 -0.494141,-0.4941407 z"
       transform="translate(0.18532818,0.14414414)" />
    <path
       style="fill:#efff8b;fill-opacity:1;fill-rule:nonzero;paint-order:markers fill stroke"
       d="M 6.7228529,5.8736254 7.5884521,6.2011637 9.1023734,4.1473394 7.9802875,2.3589486 6.3687363,4.2435658 2.5402054,4.22725 1.347419,2.915694 2.5631875,3.928308 6.1734764,3.9051501 8.1752843,1.6675576 9.5186826,4.230408 7.6461704,6.4836149 Z M 5.7443158,6.1072913 6.5400878,5.6347554 5.8782577,3.1705855 3.7804284,2.9328242 4.2490958,5.3678253 1.8492895,8.3509185 0.08018363,8.4657347 1.6298964,8.1465631 3.8627691,5.3094868 3.3614557,2.3492943 l 2.8413122,0.5476 0.5941359,2.8688405 z M 5.3168952,7.0180307 5.4436074,6.1012498 3.1043976,5.0823046 1.6105331,6.5742118 3.8065029,7.7259913 4.6425244,11.462164 3.6292719,12.916893 4.3459636,11.506278 3.5200214,7.9916602 0.89308588,6.537953 3.092746,4.6579486 5.7061335,5.9821273 Z M 5.7624475,7.9200383 5.1246831,7.2493671 2.8695662,8.442933 3.104577,10.541072 5.3742392,9.5423167 8.8165472,11.218154 9.3221478,12.917356 8.666135,11.47752 5.4033292,9.9319389 2.6289077,11.079388 2.5305267,8.187461 5.1952317,6.9698443 Z M 6.7454628,8.134084 5.8234714,8.2145516 5.3505964,10.721849 7.1375145,11.846279 7.7717672,9.4490715 11.228234,7.8026343 12.87196,8.4667747 11.337233,8.0819432 8.0945234,9.6692535 7.2618118,12.553806 4.9394726,10.827637 5.648918,7.9851149 Z M 7.5257105,7.498987 7.0137703,8.2699997 8.6792218,10.202983 10.672461,9.5069842 9.1936995,7.5164712 10.061534,3.7875602 11.605627,2.9165281 10.347867,3.8764869 9.5670799,7.4014115 11.303127,9.850941 8.5055984,10.59037 6.7255572,8.2634195 Z M 7.5156481,6.4929883 7.7992607,7.3739578 10.34892,7.2770506 11.047531,5.2847251 8.5692919,5.1998032 6.1949982,2.1963645 6.4767238,0.44606474 6.4430496,2.0279454 8.7121335,4.8361441 11.70966,5.0061045 10.543539,7.6543266 7.6144182,7.5951892 Z"
       id="path1"
       inkscape:path-effect="#path-effect13"
       inkscape:original-d="M 7.5366795,7.4749035 7.042471,8.2574003 8.7516087,10.151866 10.728443,9.4105534 9.204633,7.4543115 9.98713,3.7065637 11.510939,2.8005148 10.275418,3.7889318 9.5752899,7.3307594 11.366795,9.7400257 8.5868726,10.543115 6.7541828,8.2574003 Z"
       sodipodi:nodetypes="ccccccccccccc"
       transform="translate(1.5238095,0.98841699)" />
  </g>
</svg>
