<?xml version="1.0" encoding="UTF-8" standalone="no"?>
<!-- Created with Inkscape (http://www.inkscape.org/) -->

<svg
   width="48"
   height="48"
   viewBox="0 0 48 48"
   version="1.1"
   id="svg1"
   inkscape:version="1.3.2 (091e20e, 2023-11-25, custom)"
   xml:space="preserve"
   sodipodi:docname="dread.svg"
   xmlns:inkscape="http://www.inkscape.org/namespaces/inkscape"
   xmlns:sodipodi="http://sodipodi.sourceforge.net/DTD/sodipodi-0.dtd"
   xmlns="http://www.w3.org/2000/svg"
   xmlns:svg="http://www.w3.org/2000/svg"><sodipodi:namedview
     id="namedview1"
     pagecolor="#ffffff"
     bordercolor="#000000"
     borderopacity="0.25"
     inkscape:showpageshadow="2"
     inkscape:pageopacity="0.0"
     inkscape:pagecheckerboard="0"
     inkscape:deskcolor="#d1d1d1"
     inkscape:document-units="px"
     showgrid="true"
     inkscape:zoom="11.313709"
     inkscape:cx="13.567611"
     inkscape:cy="22.008699"
     inkscape:window-width="1662"
     inkscape:window-height="1020"
     inkscape:window-x="158"
     inkscape:window-y="7"
     inkscape:window-maximized="0"
     inkscape:current-layer="layer1"><inkscape:grid
       id="grid1"
       units="px"
       originx="0"
       originy="0"
       spacingx="2"
       spacingy="2"
       empcolor="#0099e5"
       empopacity="0.30196078"
       color="#0099e5"
       opacity="0.14901961"
       empspacing="4"
       dotted="false"
       gridanglex="30"
       gridanglez="30"
       visible="true" /></sodipodi:namedview><defs
     id="defs1" /><g
     inkscape:label="Warstwa 1"
     inkscape:groupmode="layer"
     id="layer1"><rect
       style="fill:#3a3d7f;fill-opacity:0.99526799;stroke:none"
       id="rect9"
       width="50.381359"
       height="50.558136"
       x="-1.5026019"
       y="-1.767767" /><path
       style="fill:#2e3065;fill-opacity:0.99526799;stroke:none"
       d="m -6.7175144,41.365747 c 6.09879597,-2.828428 6.54073771,-9.104 12.3743686,-11.225321 5.8336308,-2.12132 15.4679608,-4.331029 25.0139028,-1.502601 9.545941,2.828427 11.313708,1.237436 14.142135,-2.474874 2.828427,-3.712311 4.331029,-5.745243 7.071068,-5.745243 2.740039,0 0.707107,29.96365 0.707107,29.96365 l -59.7505231,1.856155 z"
       id="path10" /><path
       style="fill:#1b1d3f;fill-opacity:0.99526799;stroke:none"
       d="M 55.507882,37.830213 C 49.055533,33.67596 39.244426,36.062446 39.244426,36.062446 c 0,0 -4.596194,7.866563 -15.291184,5.656854 -10.69499,-2.209709 -5.922019,-9.104 -13.258252,-6.010408 -7.3362328,3.093593 -7.0710678,10.341437 -18.3847762,10.518214 -11.3137088,0.176776 2.1213203,5.568466 2.1213203,5.568466 l 23.2461349,1.502602 c 0,0 33.234019,-3.977476 33.675961,-4.154253 0.441942,-0.176777 4.154252,-11.313708 4.154252,-11.313708 z"
       id="path11" /><path
       style="fill:#555aac;fill-opacity:0.99526799;stroke:none"
       d="M -6.8059028,9.1923881 C 16.882174,14.937631 21.301592,5.8336309 33.852737,10.871767 46.403882,15.909903 49.143921,14.053747 50.204581,7.7781746 51.265242,1.5026019 49.76264,-2.8284271 49.76264,-2.8284271 L 21.655145,-3.0052038 -2.298097,-2.8284271 Z"
       id="path12" /><g
       id="g9"><path
         style="fill:#000000;fill-opacity:1;stroke:none"
         d="m 23.502112,15.008687 c -1.966993,0.794701 -2.856547,2.402596 -3.548444,3.833012 -0.648215,1.113719 -1.256889,2.584441 -1.44269,3.103471 -0.327769,1.414517 0.701381,2.085718 0.701381,2.085718 -0.687576,0.519447 -1.079328,1.188224 -1.482625,2.162162 0,0 -2.724445,-1.778712 -3.891892,-2.03861 -1.167447,-0.259898 -1.758289,-0.344414 -2.779923,0.123552 -1.021634,0.467966 -1.3020466,1.083329 -2.2239422,2.594595 -2.7423875,5.068677 -4.6125317,13.207802 -4.8803089,16.30888 -0.1442251,3.070189 -0.030888,4.926641 -0.030888,4.926641 l 2.6872588,0.880309 18.0540543,-0.648648 c 0,0 -0.833869,-1.870118 -1.065637,-3.181468 -0.231768,-1.31135 -0.123556,-4.633204 -0.123556,-4.633204 0,0 0.199693,2.756632 0.741312,3.521235 1.228198,1.733846 3.575917,1.011366 4.138996,0.741313 1.418165,-0.680153 2.512245,-2.203969 3.397684,-3.274131 0.885439,-1.070162 1.181914,-2.032849 2.03861,-2.903475 1.191199,-1.210568 2.769199,-2.105728 3.938224,-3.258688 0.983697,-1.106628 0.716167,-1.044406 0.942085,-1.806949 0.225918,-0.762543 0.29989,-1.471505 0,-2.100386 -1.022688,-0.116541 -1.647296,-0.766635 -2.718147,-1.173746 -0.582941,0.447027 -0.855198,0.871127 -0.794049,1.585999 0.197098,0.674392 0.666433,0.335832 0.685941,0.17462 -0.125077,0.389628 -0.694853,1.179632 -0.957529,1.31274 -0.262677,0.133108 -0.478765,0.01544 -0.478765,0.01544 0,0 0.624572,-0.50984 0.679537,-0.864864 0.05496,-0.355024 0.165033,-0.952323 -0.370656,-1.111969 -0.334917,0.303675 -1.307368,0.955182 -1.853282,1.482625 -0.233769,0.940642 -0.123552,1.933702 -0.123552,2.903475 l -2.779923,2.34749 -2.656371,2.347491 c 0,0 -0.626766,-1.18964 -1.151169,-3.778909 0.116414,-2.445639 0.176393,-3.26152 0.261711,-4.136979 0.105933,-1.016139 0.254402,-2.057314 -0.429457,-2.709595 -0.991838,-0.431259 -0.910742,-0.721261 -2.025065,-0.247584 -1.204656,-0.206246 -1.767989,-0.787166 -1.767989,-0.787166 0,0 -0.425389,-0.713832 -0.339768,-0.988417 0.08562,-0.274585 0.633205,-0.571429 0.633205,-0.571429 0,0 0.262694,0.529198 0.9359,0.857053 0.854011,-0.02664 3.360771,-1.229344 4.500393,-1.907246 1.555048,-0.925018 3.241807,-2.914432 3.640719,-4.270043 0.167252,-1.440553 0.191307,-2.068284 -0.119483,-3.081308 -0.31079,-1.013024 -0.823505,-2.171762 -1.72973,-2.779923 -1.743956,-1.170355 -4.245177,-1.847786 -6.21217,-1.053085 z"
         id="path1"
         sodipodi:nodetypes="ccccczzzcccczczszzczcccczczcccccczscczcczczacc" /><path
         style="fill:#cbcbcb;fill-opacity:0.99526793;stroke:none"
         d="M 19.265625,24.125 C 19.976563,24.96875 21.267503,26.137942 22.382813,27 21.060622,25.057371 20,24.125 20,23.0625 20,22 20.125,20.453125 21.390625,19.53125 22.65625,18.609375 23.96875,16.3125 26.75,16.59375 c 2.78125,0.28125 4.898437,3.078125 4.898437,3.078125 0,0 -0.145671,-1.126532 -0.742187,-2.109375 -0.596516,-0.982843 -0.765779,-1.712029 -3.617188,-2.609375 -2.851408,-0.897346 -4.646824,0.245864 -5.914062,1.578125 -1.267238,1.332261 -2.690351,4.321581 -2.890625,5.492188 -0.224132,0.966646 0.167093,1.45396 0.78125,2.101562 z"
         id="path2"
         sodipodi:nodetypes="ccsssczzzzc" /><path
         style="fill:#cbcbcb;fill-opacity:0.99526793;stroke:none"
         d="m 5.0049902,48.226892 c 0.066291,-0.353554 0.386699,-9.490699 2.0881747,-12.562194 1.7014757,-3.071495 1.789864,-5.104427 1.789864,-5.104427 0,0 1.7677671,-4.618291 3.4250481,-4.905553 1.657282,-0.287262 5.23701,2.010835 5.23701,2.010835 0,0 0.441942,-1.104855 1.502602,-1.922447 1.06066,-0.817592 1.370019,-1.171145 1.370019,-1.171145 l -0.718155,-0.707108 c 0,0 -0.604714,-0.01269 -1.386592,1.11038 -0.234709,0.337128 -0.518905,0.708022 -0.569,1.215339 C 15.721701,25.01851 16.119815,24.445809 13.407408,24.025057 10.695,23.604306 9.9595728,24.814061 8.5847182,27.124174 7.0597383,29.686537 5.1216099,36.263083 4.2757863,40.719406 3.780691,43.327876 3.7887977,46.860196 3.9332815,48.39262 Z"
         id="path3"
         sodipodi:nodetypes="cscscsccsczsscc" /><path
         style="fill:#cbcbcb;fill-opacity:0.99526793;stroke:none"
         d="m 10.230951,26.428116 c 0.972272,3.137786 1.016466,4.154252 1.37002,7.689786 0.353553,3.535534 -0.312271,5.484778 0.817591,7.258894 0.565319,0.887666 0.51508,1.223996 0.03315,1.193246 C 11.810165,42.324876 10.462971,41.851885 10.131514,38.40474 9.800058,34.957591 8.0654367,33.388698 8.5515726,30.670757 9.0377085,27.952815 10.230951,26.428116 10.230951,26.428116 Z"
         id="path4"
         sodipodi:nodetypes="csscssc" /><path
         style="fill:#cbcbcb;fill-opacity:0.99526793;stroke:none"
         d="m 17.125243,37.940698 c 1.35897,-1.088282 3.86699,-3.170932 4.441514,-3.900136 l -0.475098,-0.03314 c -0.817592,0.850738 -4.187398,2.784233 -5.424834,3.414 -1.237437,0.629767 -1.988738,1.789864 -1.988738,1.789864 0,0 2.088181,-0.182302 3.447152,-1.270583 z"
         id="path5"
         sodipodi:nodetypes="zccsczz" /><path
         style="fill:#cbcbcb;fill-opacity:0.99526793;stroke:none"
         d="m 21.080621,33.98532 c -0.03315,-1.811961 0.01792,-1.744876 0.165728,-1.97769 0.147804,-0.232814 1.142264,-0.984495 1.491553,-1.060659 0.349289,-0.07616 0.943701,0.100472 1.414214,0.596621 -0.08191,0.363566 -0.438724,0.337099 -0.629767,0.276213 0.521587,-0.232138 0.08888,-0.493599 -0.320408,-0.585573 -0.409286,-0.09197 -1.247523,0.706972 -1.602039,1.160097 -0.354516,0.453125 -0.04419,1.657282 -0.04419,1.657282 l -0.475087,0.209922 z"
         id="path6"
         sodipodi:nodetypes="czzcczzccc" /><path
         style="fill:#cbcbcb;fill-opacity:0.99526793;stroke:none"
         d="m 22.947825,32.449572 c 0.712075,-0.58451 0.973129,-1.185372 1.272574,-1.593191 0.299444,-0.40782 0.319344,-0.847206 0.340512,-1.102653 -0.37727,-0.317947 -0.765907,0.786759 -0.855545,1.112342 -0.136512,0.0014 -0.164571,-0.211249 0.181588,-1.079197 0.14694,-0.418729 0.534305,-0.34042 0.784007,-0.472521 0.249702,-0.132102 0.318281,-0.01664 0.512349,0.131912 0.12633,-0.01557 0.312648,-0.03904 0.408789,0.152319 0.112523,-0.0098 0.266956,0.03803 0.319039,0.174243 0.161458,0.0034 0.337753,0.345178 0.337753,0.345178 0,0 0.123626,0.240291 0.173426,0.490483 -0.129888,-0.390434 -0.310441,-0.61985 -0.419404,-0.65288 -0.1324,0.07244 -0.06572,0.3548 -0.06572,0.3548 0,0 -0.233159,-0.483428 -0.404009,-0.54563 -0.17085,-0.0622 -0.181678,0.341509 -0.181678,0.341509 0,0 -0.244608,-0.506025 -0.414943,-0.56248 0.0094,0.154483 0.155545,0.810599 -0.21628,1.507084 -0.371824,0.696484 -1.039224,1.026161 -1.772461,1.398682 z"
         id="path7"
         sodipodi:nodetypes="czccczccccccczcczc" /><path
         style="fill:#cbcbcb;fill-opacity:0.99526793;stroke:none"
         d="m 32.730531,35.756728 -2.882407,2.414488 -2.556961,2.270162 c 0,0 -0.55328,0.615618 -0.403778,0.809406 0.287346,0.372465 2.751119,-0.671785 3.646832,-1.407549 0.895713,-0.735765 2.245201,-2.252526 2.597088,-3.004285 0.351887,-0.751759 -0.05785,-1.606799 -0.05991,-2.235702 -0.0021,-0.627706 0.06142,-1.458717 0.323137,-1.720436 0.261719,-0.261719 1.253907,-1.257812 1.484375,-1.0625 0.230469,0.195313 0.132813,0.878906 0.132813,0.878906 0,0 0.201348,-0.292891 0.132812,-0.792968 -0.03046,-0.222251 -0.128916,-0.437897 -0.417969,-0.542969 -0.359374,0.226564 -1.428291,1.094944 -1.859374,1.472656 -0.114678,0.358181 -0.147115,1.025681 -0.152313,1.493599 -0.0052,0.467918 0.01566,1.427192 0.01566,1.427192 z"
         id="path8"
         sodipodi:nodetypes="cccssssszcscczc" /><path
         style="fill:#cbcbcb;fill-opacity:0.99526793;stroke:none"
         d="m 35.179687,31.074219 c -0.131608,0.422629 -0.304165,0.853372 0.06641,1.074218 0.386719,0.230469 0.468751,0.08984 0.609375,-0.06249 -0.144531,0.04297 -0.437499,0.101563 -0.554687,-0.25 0.02577,-0.536064 0.214844,-1.042968 0.457031,-1.160156 0.242188,-0.117187 0.460938,-0.03516 0.460938,-0.03516 0,0 -0.293036,0.290603 -0.386719,0.785156 -0.09679,0.510973 -0.138205,0.830018 -0.03906,1.023437 0.103668,0.202248 0.382812,0.132813 0.441406,0.04297 -0.218751,0.05469 -0.425782,-0.160156 -0.347657,-0.417969 0.07813,-0.257812 0.05859,-0.847656 0.355469,-1.121093 0.296875,-0.273438 0.623657,-0.103783 0.753907,0.03906 -0.123656,0.08425 -0.325457,0.265059 -0.414063,0.539063 -0.08861,0.274003 -0.158091,0.943939 -0.128906,1.132812 0.02918,0.188873 0.09477,0.267051 0.167968,0.304688 -0.0479,-0.188925 -0.03707,-0.404783 -0.0039,-0.570313 0.03317,-0.16553 0.22799,-0.801675 0.394532,-0.972656 0.166542,-0.170981 0.514764,-0.185391 0.679687,-0.03516 -0.272577,0.25961 -0.314464,0.364663 -0.41797,0.585938 -0.103505,0.221274 -0.116241,0.398198 -0.121096,0.597655 -0.0049,0.199457 0.09766,0.390626 0.09766,0.390626 0,0 0.03065,-0.377258 0.121091,-0.585938 0.09045,-0.20868 0.378158,-0.558227 0.554687,-0.734375 0.176529,-0.176148 0.608417,-0.276036 0.785155,-0.148437 -0.07717,-0.196621 -0.237059,-0.313819 -0.343749,-0.332031 -0.10669,-0.01821 -0.131465,0.06072 -0.335937,0.0039 -0.08702,-0.09585 -0.07699,-0.187847 -0.26953,-0.246094 -0.19254,-0.05825 -0.19106,0.05709 -0.464845,-0.08592 -0.273784,-0.143016 -0.241557,-0.146295 -0.382812,-0.281251 -0.141259,-0.13496 -0.284061,-0.138096 -0.359375,-0.04688 -0.07531,-0.04159 -0.09862,-0.05098 -0.265628,-0.156249 -0.235849,-0.122949 -0.314575,-0.253764 -0.555014,-0.01076 -0.239614,0.242168 -0.454362,0.412338 -0.554356,0.733448 z"
         id="path9"
         sodipodi:nodetypes="ssccscsscssczzczzczzczzczczzzccsss" /></g></g></svg>
