<?xml version="1.0" encoding="UTF-8" standalone="no"?>
<!-- Created with Inkscape (http://www.inkscape.org/) -->

<svg
   width="16"
   height="16"
   viewBox="0 0 16 16"
   version="1.1"
   id="svg1"
   inkscape:version="1.3.2 (091e20e, 2023-11-25, custom)"
   sodipodi:docname="food_fish_cooked2.svg"
   xmlns:inkscape="http://www.inkscape.org/namespaces/inkscape"
   xmlns:sodipodi="http://sodipodi.sourceforge.net/DTD/sodipodi-0.dtd"
   xmlns="http://www.w3.org/2000/svg"
   xmlns:svg="http://www.w3.org/2000/svg">
  <sodipodi:namedview
     id="namedview1"
     pagecolor="#ffffff"
     bordercolor="#000000"
     borderopacity="0.25"
     inkscape:showpageshadow="2"
     inkscape:pageopacity="0.0"
     inkscape:pagecheckerboard="0"
     inkscape:deskcolor="#d1d1d1"
     inkscape:document-units="px"
     showgrid="true"
     inkscape:zoom="50.8125"
     inkscape:cx="7.2521525"
     inkscape:cy="7.8819188"
     inkscape:window-width="1920"
     inkscape:window-height="1009"
     inkscape:window-x="-8"
     inkscape:window-y="-8"
     inkscape:window-maximized="1"
     inkscape:current-layer="layer1">
    <inkscape:grid
       id="grid1"
       units="px"
       originx="0"
       originy="0"
       spacingx="2"
       spacingy="2"
       empcolor="#0099e5"
       empopacity="0.30196078"
       color="#0099e5"
       opacity="0.14901961"
       empspacing="4"
       dotted="false"
       gridanglex="30"
       gridanglez="30"
       visible="true" />
  </sodipodi:namedview>
  <defs
     id="defs1" />
  <g
     inkscape:label="Warstwa 1"
     inkscape:groupmode="layer"
     id="layer1">
    <rect
       style="fill:#ffeeaa;paint-order:markers fill stroke"
       id="rect1"
       width="16.288288"
       height="16.205919"
       x="-0.059040591"
       y="-0.078720793" />
    <g
       id="g6">
      <path
         style="fill:#000000;fill-opacity:1;stroke-width:0.5;stroke-linecap:square;stroke-dasharray:0.5, 1;paint-order:markers fill stroke"
         d="M 12.693727,1.3776138 12.241082,1.1611316 c 0,0 -0.201491,2.1603535 -0.846248,3.4046741 C 10.868158,4.0192284 8.6590582,3.1527416 7.202952,3.8966789 4.4204875,5.3182642 2.8951074,8.7843303 0.62976629,10.646987 1.0802924,11.053309 4.9163302,12.65188 7.2423125,12.378844 9.1786241,12.15155 11.719545,10.556603 12.260763,9.1316113 12.76519,7.8034877 12.285561,5.3887099 11.749077,4.900369 c 0.723049,-1.1574676 0.94465,-3.5227552 0.94465,-3.5227552 z"
         id="path1"
         sodipodi:nodetypes="cccscsscc" />
      <path
         style="fill:#533b29;fill-opacity:1;stroke-width:0.5;stroke-linecap:square;stroke-dasharray:0.5, 1;paint-order:markers fill stroke"
         d="M 7.9803198,6.297663 6.9372694,5.8548586 6.504305,6.7207872 6.7306273,6.8782288 H 6.5436654 l 0.059041,0.1672817 -0.1377613,0.01968 0.078721,0.2361623 -0.068881,0.1574416 0.078721,0.3640836 z"
         id="path6" />
      <path
         style="fill:#ffffff;fill-opacity:1;stroke-width:0.5;stroke-linecap:square;stroke-dasharray:0.5, 1;paint-order:markers fill stroke"
         d="M 8.7576876,5.2939729 C 7.5543392,6.7680834 6.1813432,8.1290956 4.7429274,9.4464945 4.7334852,9.6671741 4.8641404,9.8555236 5.195572,9.99754 7.0484926,9.1322079 8.632623,8.065283 10.174662,6.9667897 9.9469275,6.314504 9.7737095,5.6411151 8.7576876,5.2939729 Z"
         id="path2"
         sodipodi:nodetypes="ccccc" />
      <path
         id="path3"
         style="fill:#533b29;fill-opacity:1;stroke-width:0.5;stroke-linecap:square;stroke-dasharray:0.5, 1;paint-order:markers fill stroke"
         d="M 9.8242188 4.8476562 C 9.1898935 4.8549739 8.4433594 5.1464844 8.4433594 5.1464844 C 8.4433594 5.1464844 8.635956 5.2670471 8.71875 5.34375 C 9.217526 5.8058313 9.7831284 6.5952132 10.027344 6.9667969 C 10.271557 7.3383807 10.3125 7.46875 10.3125 7.46875 C 10.3125 7.46875 10.60257 6.7387086 10.693359 6.0605469 C 10.471837 6.0261267 10.105469 6.140625 10.105469 6.140625 C 10.105469 6.140625 10.510302 5.7750945 10.71875 5.7558594 C 10.72693 5.4698595 10.681795 5.2183732 10.539062 5.0683594 C 10.378653 4.8997667 10.112548 4.84433 9.8242188 4.8476562 z " />
      <path
         id="path4"
         style="fill:#533b29;fill-opacity:1;stroke-width:0.5;stroke-linecap:square;stroke-dasharray:0.5, 1;paint-order:markers fill stroke"
         d="M 4.7929688 9.3476562 C 4.7929688 9.3476562 2.872854 9.3491191 2.5097656 9.40625 C 2.6164256 9.4812982 2.7200983 9.5969768 2.8242188 9.734375 L 3.375 9.6230469 L 3.0117188 9.8105469 L 3.1484375 9.8691406 L 3.0996094 9.9980469 L 3.4628906 9.7910156 L 3.2773438 10.095703 L 3.4140625 10.076172 L 3.375 10.234375 L 3.2011719 10.306641 C 3.5983635 10.956918 4.0088029 11.672785 4.5058594 11.601562 C 5.0259694 11.351206 5.2949219 9.9882813 5.2949219 9.9882812 L 4.7929688 9.3476562 z " />
      <path
         style="fill:#533b29;fill-opacity:1;stroke-width:0.5;stroke-linecap:square;stroke-dasharray:0.5, 1;paint-order:markers fill stroke"
         d="M 9.8302583,5.7564576 C 9.0172033,6.5096809 5.9226917,9.0093477 4.7921279,9.800738 5.9866573,9.1894283 9.1336652,6.6398489 9.8302583,5.7564576 Z"
         id="path5"
         sodipodi:nodetypes="ccc" />
    </g>
  </g>
</svg>
