<?xml version="1.0" encoding="UTF-8" standalone="no"?>
<!-- Created with Inkscape (http://www.inkscape.org/) -->

<svg
   width="16"
   height="16"
   viewBox="0 0 16 16"
   version="1.1"
   id="svg1"
   inkscape:version="1.3.2 (091e20e, 2023-11-25, custom)"
   sodipodi:docname="food_critter.svg"
   xml:space="preserve"
   xmlns:inkscape="http://www.inkscape.org/namespaces/inkscape"
   xmlns:sodipodi="http://sodipodi.sourceforge.net/DTD/sodipodi-0.dtd"
   xmlns="http://www.w3.org/2000/svg"
   xmlns:svg="http://www.w3.org/2000/svg"><sodipodi:namedview
     id="namedview1"
     pagecolor="#ffffff"
     bordercolor="#000000"
     borderopacity="0.25"
     inkscape:showpageshadow="2"
     inkscape:pageopacity="0.0"
     inkscape:pagecheckerboard="0"
     inkscape:deskcolor="#d1d1d1"
     inkscape:document-units="px"
     showgrid="true"
     inkscape:zoom="22.627417"
     inkscape:cx="7.4688154"
     inkscape:cy="3.9995727"
     inkscape:window-width="1662"
     inkscape:window-height="967"
     inkscape:window-x="132"
     inkscape:window-y="26"
     inkscape:window-maximized="0"
     inkscape:current-layer="layer1"><inkscape:grid
       id="grid1"
       units="px"
       originx="0"
       originy="0"
       spacingx="2"
       spacingy="2"
       empcolor="#0099e5"
       empopacity="0.30196078"
       color="#0099e5"
       opacity="0.14901961"
       empspacing="4"
       dotted="false"
       gridanglex="30"
       gridanglez="30"
       visible="true" /></sodipodi:namedview><defs
     id="defs1" /><g
     inkscape:label="Warstwa 1"
     inkscape:groupmode="layer"
     id="layer1"><rect
       style="fill:#ffeeaa;paint-order:markers fill stroke"
       id="rect1"
       width="16.288288"
       height="16.205919"
       x="-0.12355212"
       y="-0.082368083" /><path
       style="fill:#000000;fill-opacity:1;stroke:none;stroke-opacity:1;paint-order:markers fill stroke"
       d="M 7.2036503,2.8947184 C 7.035899,2.9660278 6.8548911,3.0583414 6.7175144,3.1819805 6.682458,3.2135312 6.6608516,3.2575678 6.629126,3.292466 6.4445786,3.4954681 6.2650559,3.7129138 6.0766988,3.9111844 6.029927,3.9604179 5.9713175,3.9970633 5.9220192,4.0437669 5.6792954,4.2737158 5.4596517,4.5241354 5.2370095,4.7729708 5.2304958,4.7802508 4.878694,5.1701467 4.8613591,5.1928154 4.789263,5.2870949 4.6988611,5.4690619 4.6403882,5.5684659 4.5202931,5.7726276 4.5206419,5.733397 4.4194173,5.9662135 3.9425404,7.0630304 4.6415177,5.5298427 4.1984465,6.4965436 4.1428267,6.6178958 3.9755178,6.9717353 3.9332814,7.0931649 3.9109721,7.1573041 3.9082487,7.2268897 3.8890872,7.2920387 3.8713298,7.352414 3.8390113,7.4080078 3.822796,7.4688154 3.792194,7.5835734 3.81273,7.7086094 3.778602,7.8223688 3.753028,7.9076158 3.691937,7.9796836 3.6681166,8.0654367 c -0.0138,0.049679 0.010112,0.104121 0,0.1546796 -0.012342,0.061711 -0.053105,0.1152411 -0.066291,0.1767767 -0.00926,0.043213 0.00727,0.08899 0,0.1325825 -0.00766,0.045951 -0.037111,0.086539 -0.044194,0.1325826 -0.01344,0.087361 0.015811,0.1782024 0,0.265165 -0.00833,0.045833 -0.029463,0.088388 -0.044194,0.1325825 0,0.05156 0.00784,0.1037193 0,0.1546796 -0.00708,0.046043 -0.037111,0.086539 -0.044194,0.1325822 -0.01792,0.116481 0,0.235703 0,0.353554 0,0.162045 0,0.3240896 0,0.4861356 0,0.238911 -0.014827,0.477272 0.066291,0.707106 0.066733,0.189076 0.2852544,0.610015 0.4640388,0.729204 0.098821,0.06588 0.2089419,0.113356 0.3093592,0.176777 0.039876,0.02519 0.069747,0.06462 0.1104854,0.08839 0.1253234,0.07311 0.2625255,0.124191 0.3977476,0.176777 0.2961773,0.11518 0.012802,-0.01844 0.3093592,0.06629 0.053937,0.01541 0.1019615,0.04712 0.1546796,0.06629 0.099111,0.03604 0.2074594,0.03912 0.3093592,0.06629 0.038326,0.01022 0.07136,0.03767 0.1104855,0.04419 0.2094089,0.0349 0.5230261,-0.0082 0.7071068,-0.110485 0.069646,-0.03869 0.1292277,-0.09389 0.1988737,-0.132583 0.069348,-0.03853 0.1513266,-0.0504 0.2209709,-0.08839 0.2010321,-0.109654 0.3850745,-0.270504 0.508233,-0.464039 0.087633,-0.137709 0.1653983,-0.311214 0.2209709,-0.464039 0.018414,-0.05064 0.1012783,-0.31074 0.1104854,-0.331456 0.04374,-0.09842 0.1356946,-0.224643 0.1767767,-0.331457 0.1270904,-0.330428 0.2259892,-0.6789646 0.3314556,-1.0164576 0.018117,-0.057974 0.023979,-0.1194999 0.044194,-0.1767763 0.1251812,-0.35468 0.052146,-0.042546 0.1988738,-0.4198446 0.022015,-0.056609 0.029463,-0.1178511 0.044194,-0.1767767 0.029463,-0.073657 0.056169,-0.1484773 0.088388,-0.2209709 0.2418201,-0.5440953 -0.092379,0.27188 0.1988738,-0.4198446 0.024421,-0.058001 0.035963,-0.1216342 0.066291,-0.1767767 0.051194,-0.09308 0.1235518,-0.1732312 0.1767767,-0.2651651 0.028106,-0.048546 0.03846,-0.1059751 0.066291,-0.1546796 C 9.091242,7.3033162 9.1391132,7.258811 9.170291,7.2036503 9.7457713,6.185493 9.158369,7.227744 9.3912619,6.6954173 9.4216578,6.625941 9.4678331,6.564372 9.5017473,6.4965436 9.610154,6.2797302 9.5357118,6.3838745 9.6343298,6.1208931 c 0.017349,-0.046265 0.055181,-0.084437 0.066291,-0.1325825 0.025793,-0.1117695 0,-0.4638184 0,-0.5966214 0,-0.2700557 0.019589,-0.5157565 -0.066291,-0.773398 C 9.5339592,4.3171794 9.6076427,4.563387 9.4796502,4.2647378 9.4318042,4.153097 9.4120338,3.9911768 9.3470677,3.8890873 9.3191054,3.8451466 9.263879,3.8229591 9.2365823,3.7786019 9.2035995,3.7250049 9.2020009,3.656185 9.170291,3.6018252 9.1492964,3.5658344 9.1061209,3.5473424 9.0819027,3.5134368 8.9554905,3.3364599 9.2203033,3.5855462 8.9935143,3.3587572 8.9818681,3.347111 8.9584562,3.3503642 8.9493201,3.3366601 8.9273177,3.3036564 8.9312459,3.256026 8.905126,3.2261747 8.8768438,3.1938523 8.8285424,3.1862516 8.7946405,3.1598834 8.7535284,3.1279074 8.7293761,3.0752386 8.6841551,3.049398 8.6040233,3.0036084 8.5254245,2.9542988 8.4410871,2.9168155 8.3355324,2.8699022 8.2186241,2.8881918 8.1096308,2.8726213 8.042405,2.8630176 7.9773467,2.8417451 7.9107571,2.8284271 7.8620633,2.8186884 7.3172402,2.7861688 7.2920386,2.80633 c -0.032536,0.026029 -0.058925,0.058926 -0.088388,0.088388 z"
       id="path36" /><path
       style="fill:#000000;fill-opacity:1;stroke:none;stroke-opacity:1;paint-order:markers fill stroke"
       d="m 7.2699416,2.9168155 c 0,-0.029463 -0.013176,-0.062036 0,-0.088388 0.018634,-0.037268 0.06417,-0.054483 0.088388,-0.088388 0.099554,-0.1393762 -0.1093627,0.010206 0.1104855,-0.1546796 0.026352,-0.019764 0.06098,-0.025922 0.088388,-0.044194 0.017334,-0.011556 0.02686,-0.032638 0.044194,-0.044194 0.00613,-0.00409 0.018803,0.00659 0.022097,0 0.013582,-0.027163 0.00525,-0.063119 0.022097,-0.088388 0.014731,-0.022097 0.047512,-0.025415 0.066291,-0.044194 0.011646,-0.011646 0.010451,-0.032548 0.022097,-0.044194 0.083818,-0.083819 0.042722,-0.012375 0.1325825,-0.066291 0.072942,-0.043765 0.1264682,-0.1333333 0.1988738,-0.1767767 0.028246,-0.016948 0.057804,-0.03196 0.088388,-0.044194 0.00684,-0.00274 0.016889,0.00521 0.022097,0 0.018779,-0.018779 0.025415,-0.047512 0.044194,-0.066291 0.03037,-0.030369 0.076126,-0.040522 0.1104855,-0.066291 0.025,-0.01875 0.041889,-0.04677 0.066291,-0.066291 0.033538,-0.02683 0.077491,-0.038796 0.1104854,-0.066291 0.032009,-0.026674 0.054483,-0.06417 0.088388,-0.088388 0.049299,-0.035213 0.1243559,-0.031344 0.1767767,-0.066291 0.017334,-0.011556 0.02556,-0.034877 0.044194,-0.044194 0.095211,-0.047606 0.2131245,-0.086427 0.3093592,-0.1104855 0.031957,-0.00799 0.056432,-0.036205 0.088388,-0.044194 0.019907,-0.00498 0.096252,0.014234 0.1104855,0 0.011646,-0.011646 0.00839,-0.035058 0.022097,-0.044194 0.028638,-0.019092 0.9641093,0 0.9722723,0 0.298174,0 0.635082,-0.029055 0.928077,0.044194 0.05382,0.013454 0.107566,0.050587 0.15468,0.066291 0.01398,0.00466 0.03022,-0.00466 0.04419,0 0.01803,0.00601 0.175877,0.07459 0.198874,0.088388 0.04236,0.025414 0.06639,0.088439 0.110485,0.1104854 0.02083,0.010417 0.04766,0.00812 0.06629,0.022097 0.0098,0.00735 0.13859,0.1968359 0.15468,0.2209709 0.022,0.033004 0.0204,0.078753 0.04419,0.1104854 0.01875,0.025 0.05079,0.039159 0.06629,0.066291 0.01225,0.021429 0.02438,0.1282634 0.04419,0.1546796 0.0099,0.013176 0.03506,0.00839 0.04419,0.022097 0.0082,0.012257 -0.0036,0.029903 0,0.044194 0.0191,0.07641 0.110452,0.1324813 0.132582,0.1988738 0.0047,0.013975 -0.0066,0.031018 0,0.044194 0.0041,0.00812 0.106878,0.1289747 0.110486,0.1325825 0.01165,0.011646 0.03431,0.00892 0.04419,0.022097 0.01398,0.018634 0.01011,0.046318 0.0221,0.066291 0.01072,0.017864 0.03169,0.027528 0.04419,0.044194 0.01165,0.01553 0.08407,0.1638325 0.08839,0.1767767 0.01075,0.032255 -0.01488,0.080721 0,0.1104855 0.0164,0.032804 0.0579,0.076925 0.06629,0.1104854 0.0054,0.021437 -0.0036,0.044495 0,0.066291 0.0066,0.039659 0.04848,0.1190629 0.06629,0.1546797 0.02443,0.048858 0.01371,0.00686 0.04419,0.022097 0.05487,0.027436 -0.0095,0.018861 0.0221,0.066291 0.02676,0.040137 0.127366,0.038977 0.15468,0.066291 0.0052,0.00521 -0.0052,0.016889 0,0.022097 0.02471,0.024707 0.162523,0.1112025 0.176777,0.1325826 0.02839,0.042587 0.108557,0.1758128 0.154679,0.1988738 0.01502,0.00751 0.08736,0.020032 0.08839,0.022097 0.0066,0.013176 0,0.029463 0,0.044194 0,0.1059679 0.0097,0.051691 -0.04419,0.1325825 -0.01226,0.018386 0.0054,0.044854 0,0.066291 -0.01171,0.04686 -0.04282,0.053183 -0.06629,0.088388 -0.04906,0.073586 -0.06221,0.1747352 -0.154679,0.2209709 -0.04981,0.024905 -0.121291,0.022097 -0.176777,0.022097 -0.06043,0 -0.192878,0.025095 -0.243068,0 C 12.562651,4.4804244 12.446988,4.3247643 12.35225,4.198447 12.32725,4.165114 12.28886,4.143392 12.26386,4.110059 12.24988,4.091425 12.25375,4.063741 12.24176,4.043768 12.20215,3.977758 12.119538,3.9319071 12.087081,3.8669913 c -0.0066,-0.013176 0.0055,-0.030516 0,-0.044194 -0.01648,-0.041203 -0.09096,-0.1338686 -0.132583,-0.1546796 -0.02083,-0.010417 -0.04546,-0.01168 -0.06629,-0.022097 -0.06325,-0.031622 -0.139634,-0.129385 -0.198874,-0.1767767 -0.05546,-0.044368 -0.122211,-0.065014 -0.176777,-0.1104854 -0.02401,-0.020006 -0.03949,-0.050213 -0.06629,-0.066291 -0.01263,-0.00758 -0.03022,0.00466 -0.04419,0 -0.01976,-0.00659 -0.02398,-0.039141 -0.04419,-0.044194 -0.01229,-0.00307 -0.140907,-0.01521 -0.15468,-0.022097 -0.01863,-0.00932 -0.02686,-0.032638 -0.04419,-0.044194 -0.02242,-0.014943 -0.113255,0.00644 -0.132583,0 -0.007,-0.00233 0.0052,-0.016889 0,-0.022097 -0.01563,-0.015625 -0.04533,0.00699 -0.06629,0 -0.0099,-0.00329 -0.01278,-0.017439 -0.0221,-0.022097 -0.01768,-0.00884 -0.04861,0.00884 -0.06629,0 -0.0093,-0.00466 -0.01199,-0.019571 -0.0221,-0.022097 -0.03573,-0.00893 -0.07476,-0.00893 -0.110486,0 -0.05359,0.013398 -0.153088,0.1073022 -0.176776,0.1546796 -0.0033,0.00659 0.0052,0.016889 0,0.022097 -0.0052,0.00521 -0.01597,-0.00409 -0.0221,0 -0.04722,0.031481 -0.08956,0.098168 -0.132582,0.1325826 -0.130805,0.1046439 -0.366207,0.2544374 -0.5303303,0.2872621 -0.03279,0.00656 -0.2015878,0.012406 -0.2209708,0.022097 -0.00932,0.00466 -0.012215,0.018803 -0.022097,0.022097 -0.034939,0.011646 -0.074757,-0.00893 -0.1104855,0 -0.010106,0.00253 -0.012215,0.018803 -0.022097,0.022097 -0.056698,0.018899 -0.072848,-0.00777 -0.1325826,0.022097 -0.085028,0.042514 -0.2553567,-0.054002 -0.3535534,0.044194"
       id="path37" /><path
       style="fill:#000000;fill-opacity:1;stroke:none;stroke-opacity:1;paint-order:markers fill stroke"
       d="M 10.451922,1.5467961 C 10.189713,1.4170431 9.9202633,1.2710501 9.6785241,1.1048543 9.644189,1.081249 9.6240413,1.0406843 9.5901357,1.016466 9.5522281,0.98938916 9.496314,0.99811239 9.4575532,0.97227182 9.4315516,0.95493744 9.4156641,0.92550228 9.3912619,0.90598056 9.3346148,0.86066288 9.2572732,0.85003474 9.1923881,0.81759221 c -0.00932,-0.004658 -0.012215,-0.018803 -0.022097,-0.0220971 -0.03563,-0.0118768 -0.076893,-0.005301 -0.1104855,-0.0220971 -0.042184,-0.0210921 -0.068301,-0.0672962 -0.1104854,-0.0883884 -0.019764,-0.009882 -0.045775,0.008207 -0.066291,0 -0.019343,-0.007737 -0.02686,-0.0326379 -0.044194,-0.0441942 -0.00613,-0.004086 -0.016889,0.005208 -0.022097,0 -0.00521,-0.005208 0.00659,-0.018803 0,-0.0220971 -0.041761,-0.0208807 -0.3476556,0 -0.4198447,0 -0.3461877,0 -0.6923754,0 -1.0385631,0 -0.045065,0 -0.5990326,-0.0172745 -0.6187184,0.0220971 -0.032413,0.0648261 0.1857561,0.17070198 0.2209709,0.19887378 0.044922,0.0359374 0.091904,0.069807 0.1325825,0.11048544 0.00521,0.005208 -0.00521,0.0168888 0,0.0220971 0.00788,0.0542818 0.046911,0.009177 0.066291,0.0220971 0.026001,0.0173344 0.03834,0.0523158 0.066291,0.0662913 0.019764,0.00988 0.045328,-0.00699 0.066291,0 0.034324,0.011441 0.071595,0.053328 0.1104854,0.066291 0.00699,0.00233 0.014731,0 0.022097,0 0.022097,0.00737 0.044882,0.012922 0.066291,0.022097 0.029463,0.014731 0.058925,0.029463 0.088388,0.044194 0.00737,0.00737 0.01278,0.017439 0.022097,0.022097 0.07605,0.038025 0.1634658,0.058538 0.2430679,0.088388 0.067925,0.025472 0.1309491,0.062917 0.1988738,0.088388 0.1206687,0.045251 0.2554354,0.048317 0.3756505,0.088388 0.033468,0.011156 0.071393,0.058473 0.1104854,0.066291 0.021668,0.00433 0.046527,-0.00988 0.066291,0 0.014731,0.00737 0.010451,0.032548 0.022097,0.044194 0.010215,0.010215 0.05295,-0.00667 0.066291,0 0.038357,0.019179 0.048134,0.039455 0.088388,0.066291 0.011314,0.00754 0.075051,0.015428 0.088388,0.022097"
       id="path38" /><path
       style="fill:#000000;fill-opacity:1;stroke:none;stroke-opacity:1;paint-order:markers fill stroke"
       d="M 11.38,1.767767 C 11.408181,1.583455 11.232429,1.4726261 11.159029,1.3258252 11.095467,1.198701 11.050914,1.1253763 10.960155,1.016466 c -0.034,-0.0408039 -0.05083,-0.0950247 -0.08839,-0.13258252 -0.01165,-0.0116462 -0.03255,-0.0104509 -0.04419,-0.0220971 -0.0052,-0.005208 0,-0.0147314 0,-0.0220971 -0.01473,-0.0147314 -0.02686,-0.0326379 -0.04419,-0.0441942 -0.02881,-0.0192044 -0.09439,-0.0567426 -0.132582,-0.0662913 -0.01429,-0.003573 -0.03065,0.005803 -0.04419,0 -0.03948,-0.0169185 -0.07366,-0.0441942 -0.110486,-0.0662913 -0.05156,-0.0220971 -0.102596,-0.0454579 -0.154679,-0.0662913 -0.09876,-0.0395045 -0.163855,-0.0478642 -0.265165,-0.0883884 -0.1243915,-0.0497564 -0.2694523,-0.001429 -0.3977479,-0.0441942 -0.014731,-0.007366 -0.029463,-0.0147314 -0.044194,-0.0220971 0,-0.007366 0.00613,-0.0180113 0,-0.0220971 C 9.6023261,0.39850138 9.2332918,0.29056363 9.2144964,0.30935895 9.1519104,0.37194475 9.335576,0.51882691 9.369176,0.5524269 c 0.060247,0.0602473 0.1059254,0.15163953 0.1767767,0.19887378 0.032202,0.0214678 0.046025,0.0137952 0.066291,0.0441942 0.00914,0.013704 0.010451,0.032548 0.022097,0.0441942 0.059096,0.0590958 0.1599734,0.0936822 0.2209708,0.15467961 0.011646,0.0116462 0.010451,0.032548 0.022097,0.0441942 0.00521,0.00521 0.015509,-0.00329 0.022097,0 0.035389,0.017694 0.05519,0.066256 0.088388,0.088388 0.013704,0.00914 0.032548,0.010451 0.044194,0.022097 0.02691,0.026914 0.01035,0.04937 0.0442,0.066291 0.1662,0.0831 -0.04614,-0.013183 0.154679,0.044194 0.05174,0.014784 0.13016,0.079407 0.176777,0.1104854 0.0573,0.0382 0.119131,0.072055 0.176777,0.1104854 0.01338,0.00892 0.04327,0.065829 0.04419,0.066291 0.01318,0.00659 0.02946,0 0.04419,0"
       id="path39" /><path
       style="fill:#000000;fill-opacity:1;stroke:none;stroke-opacity:1;paint-order:markers fill stroke"
       d="m 9.3912619,4.7729708 c 0.029463,0.029463 0.069755,0.05112 0.088388,0.088388 0.034391,0.068782 0.037731,0.1495709 0.066291,0.2209709 0.015951,0.039877 0.047084,0.072071 0.066291,0.1104854 0.059903,0.1198049 0.1268869,0.2509261 0.1767767,0.3756505 0.04286,0.1071499 0.048811,0.1844708 0.1104854,0.2872621 0.016078,0.026797 0.052316,0.03834 0.066291,0.066291 0.00988,0.019764 -0.00988,0.046527 0,0.066291 0.021092,0.042184 0.063392,0.070491 0.088389,0.1104855 0.01234,0.019752 0.01168,0.045458 0.0221,0.066291 0.0241,0.048208 0.07739,0.1105509 0.110485,0.1546796 0.0221,0.029463 0.04419,0.029463 0.06629,0.066291 0.07329,0.2198604 -0.03125,-0.041667 0.06629,0.088388 0.01398,0.018634 0.0092,0.046911 0.0221,0.066291 0.0041,0.00613 0.01689,-0.00521 0.0221,0 0.01647,0.01647 0.0056,0.049821 0.0221,0.066291 0.0095,0.00946 0.05335,-0.00518 0.06629,0 0.03058,0.012234 0.05629,0.036787 0.08839,0.044194 0.298936,0.068985 0.622719,0.044194 0.928078,0.044194 0.09501,0 0.207229,-0.017919 0.287262,0.022097 0.02635,0.013176 0.06006,-0.00809 0.08839,0 0.288679,0.08248 -0.231463,0.020729 0.287262,0.088388 0.22592,0.029468 0.402722,0.034389 0.618718,0.088388 0.04022,0.010056 0.09406,-0.014447 0.132583,0 0.04021,0.01508 0.07207,0.047084 0.110485,0.066291 0.03618,0.018089 0.09305,0.01419 0.132583,0.022097 0.02756,0.00551 0.09561,0.058854 0.110485,0.066291 0.01976,0.00988 0.04533,-0.00699 0.06629,0 0.0099,0.00329 0.01221,0.018803 0.0221,0.022097 0.01398,0.00466 0.03022,-0.00466 0.0442,0 0.03936,0.013119 0.08671,0.057118 0.132582,0.066291 0.02167,0.00433 0.04485,-0.00536 0.06629,0 0.03138,0.00784 0.07467,0.054353 0.110486,0.066291 0.007,0.00233 0.01689,-0.00521 0.0221,0 0.0052,0.00521 -0.0052,0.016889 0,0.022097 0.01165,0.011646 0.03255,0.010451 0.04419,0.022097 0.01278,0.012777 0.142156,0.2496917 0.15468,0.2872621 0.0083,0.024974 0.0084,0.527181 0,0.5524272 -0.0042,0.012739 -0.115965,0.1491404 -0.132583,0.1546796 -0.05254,0.017513 -0.227209,0.015182 -0.265165,0 -0.03419,-0.013678 -0.05266,-0.057359 -0.08839,-0.066291 -0.09809,-0.024524 -0.0351,0.028161 -0.110486,-0.022097 -0.04242,-0.028277 -0.06967,-0.079876 -0.110485,-0.1104855 C 13.002014,7.900865 12.816105,7.7228184 12.61745,7.6234906 12.5915,7.6105156 12.53291,7.5480766 12.506964,7.5351026 c -0.02701,-0.013503 -0.127891,0 -0.154679,0 -0.0221,0 -0.04419,0 -0.06629,0 -0.01473,-0.00737 -0.02789,-0.019768 -0.04419,-0.022097 -0.03646,-0.00521 -0.07384,0.00366 -0.110485,0 -0.371814,-0.037181 -0.751632,-0.022097 -1.126952,-0.022097 -0.132474,0 -0.371366,0.028692 -0.486136,0 -0.03853,-0.00963 -0.07196,-0.034562 -0.110485,-0.044194 -0.03466,-0.00867 -0.07582,0.00867 -0.110486,0 -0.01011,-0.00253 -0.01243,-0.018228 -0.0221,-0.022097 -0.0282,-0.011279 -0.06047,-0.010134 -0.08839,-0.022097 C 10.100443,7.3655322 10.029147,7.2820278 9.9436891,7.2478445 9.9228779,7.23952 9.8371497,7.2296935 9.8111066,7.2036503 9.7994604,7.1920041 9.8006557,7.1711023 9.7890095,7.1594562 9.7657171,7.1361638 9.7239135,7.1385544 9.7006211,7.115262 c -0.00521,-0.00521 0.00521,-0.016889 0,-0.022097 C 9.6889751,7.081519 9.6680731,7.082714 9.6564271,7.071068 9.6190041,7.033646 9.6275581,7.020102 9.5901361,6.98268 9.5713571,6.963901 9.5397791,6.959732 9.5238451,6.938486 c -0.00884,-0.011785 0.00466,-0.030219 0,-0.044194 -0.015449,-0.046348 -0.093698,-0.08222 -0.1104854,-0.1325825 -0.00466,-0.013975 0.00466,-0.030219 0,-0.044194 -0.015078,-0.045233 -0.087527,-0.057777 -0.1104854,-0.088388 -0.013975,-0.018634 -0.01168,-0.045458 -0.022097,-0.066291 -0.013975,-0.027951 -0.048957,-0.04029 -0.066291,-0.066291 -0.053721,-0.080581 -0.046125,-0.1806382 -0.088388,-0.265165 -0.039693,-0.079385 -0.016287,0.079057 -0.044194,-0.088388 -0.00916,-0.054968 0.018653,-0.091832 -0.022097,-0.1325826"
       id="path40" /><path
       style="fill:#000000;fill-opacity:1;stroke:none;stroke-opacity:1;paint-order:markers fill stroke"
       d="m 9.0156114,5.4579805 c 0,0.036828 -0.00521,0.074027 0,0.1104854 0.00494,0.034612 0.035682,0.076436 0.044194,0.1104854 0.01868,0.074721 0,0.1893957 0,0.2651651 0,0.2493989 -0.038009,0.5329745 0.022097,0.773398 0.00536,0.021437 -0.00536,0.044854 0,0.066291 0.016553,0.066212 0.080706,0.1172177 0.1104854,0.1767767 0.010417,0.020833 0.00812,0.047657 0.022097,0.066291 0.00988,0.013176 0.032548,0.010451 0.044194,0.022097 0.00189,0.00189 0.1545016,0.1986068 0.1546796,0.1988738 0.01292,0.01938 0.00662,0.048882 0.022097,0.066291 0.045116,0.050755 0.1066611,0.084564 0.1546796,0.1325825 0.066,0.066 0.1082319,0.1745231 0.1767767,0.2430679 0.018779,0.018779 0.047512,0.025415 0.066291,0.044194 0.011646,0.011646 0.012215,0.031018 0.022097,0.044194 0.074308,0.099077 0.1877423,0.1683869 0.2651653,0.265165 0.0401,0.025835 0.04052,0.076126 0.06629,0.1104855 0.0125,0.016667 0.02946,0.029463 0.04419,0.044194 0.0221,0.014731 0.0497,0.023456 0.06629,0.044194 0.01455,0.018188 0.0081,0.047657 0.0221,0.066291 0.0099,0.013176 0.03255,0.010451 0.04419,0.022097 0.04331,0.043314 0.09834,0.1254127 0.132582,0.1767766 0.01827,0.027408 0.02592,0.06098 0.04419,0.088388 0.01156,0.017334 0.03348,0.02633 0.0442,0.044194 0.01198,0.019973 0.0086,0.047337 0.0221,0.066291 0.02422,0.033906 0.06127,0.056753 0.08839,0.088388 0.02209,0.025769 0.10481,0.166844 0.110485,0.1767767 0.04239,0.07418 0.05334,0.1642002 0.08839,0.2430679 0.04243,0.095468 0.09389,0.1905272 0.132582,0.2872622 0.03239,0.080972 0.01795,0.133498 0.0442,0.2209708 0.02601,0.086714 0.07294,0.1503986 0.08839,0.243068 0.0096,0.057467 0.01832,0.125038 0.04419,0.176777 0.0047,0.0093 0.01957,0.01199 0.0221,0.0221 0.01848,0.07392 -0.03081,0.247742 0,0.309359 0.0093,0.01863 0.03646,0.02485 0.04419,0.04419 0.0082,0.02052 -0.0043,0.04462 0,0.06629 0.0032,0.01615 0.01689,0.02857 0.0221,0.04419 0.01417,0.0425 0,0.108888 0,0.154679 0,0.02842 0.0052,0.163153 -0.0221,0.176777 -0.07001,0.03501 -0.02056,-0.04573 -0.08839,0.0221 -0.0052,0.0052 0.007,0.01977 0,0.0221 -0.01933,0.0064 -0.110167,-0.01494 -0.132583,0 -0.01733,0.01156 -0.02686,0.03264 -0.04419,0.04419 -0.01326,0.0088 -0.05524,-0.01105 -0.06629,0 -0.0052,0.0052 0.0066,0.0188 0,0.0221 -0.01312,0.0066 -0.154481,0.03696 -0.176777,0.0221 -0.07502,-0.05001 -0.01971,-0.03017 -0.06629,-0.08839 -0.02603,-0.03254 -0.07291,-0.0497 -0.08839,-0.08839 -0.01128,-0.0282 -0.0085,-0.06122 -0.0221,-0.08839 -0.0093,-0.01863 -0.03646,-0.02485 -0.0442,-0.04419 -0.01033,-0.02582 -0.016,-0.168401 -0.0221,-0.198873 -0.0078,-0.03917 -0.05904,-0.07784 -0.06629,-0.110486 -0.01288,-0.05797 -0.01147,-0.11835 -0.0221,-0.176777 -0.0187,-0.102825 -0.107187,-0.185678 -0.132583,-0.287262 -0.0054,-0.021437 0.0099,-0.046527 0,-0.066291 -0.03988,-0.079769 -0.06857,-0.1592363 -0.110485,-0.243068 -0.01358,-0.027163 -0.0085,-0.061225 -0.0221,-0.088388 -0.01921,-0.038415 -0.04885,-0.071238 -0.06629,-0.1104854 -0.01234,-0.027752 -0.01013,-0.060474 -0.0221,-0.088388 -0.02059,-0.048042 -0.079212,-0.09962 -0.088389,-0.1546796 -0.00484,-0.029062 0.011606,-0.061308 0,-0.088388 C 9.975557,9.1415658 9.941097,9.1283998 9.921576,9.1039978 9.8066066,8.960268 9.9395627,9.1178441 9.8994949,9.0377085 9.8603246,8.9593678 9.816483,8.8419424 9.7669124,8.7725435 9.7573393,8.7591411 9.7343644,8.7620926 9.7227182,8.7504464 9.5758793,8.6036075 9.7101771,8.7221789 9.6343299,8.5957668 9.6075332,8.5511057 9.5571874,8.5252929 9.5238444,8.4852814 9.4883958,8.442743 9.4675435,8.395482 9.4354561,8.3526988 9.3922604,8.2951046 9.3257252,8.2542052 9.2807765,8.1980192 9.2539465,8.1644817 9.2402546,8.121893 9.2144852,8.0875338 9.1637201,8.019847 9.228619,8.1237646 9.148194,8.0433396 9.060109,7.9552556 9.222484,8.0453196 9.081903,7.9328542 9.063715,7.9183032 9.034992,7.9236742 9.015612,7.9107572 8.989611,7.8934232 8.978044,7.8567762 8.949321,7.8444662 c -0.027081,-0.011606 -0.059805,0.00715 -0.088388,0 C 8.844955,7.8404762 8.852543,7.8094082 8.838836,7.8002722 8.7764549,7.7586851 8.7040293,7.7376412 8.6620581,7.6676891 8.5996396,7.5636583 8.604826,7.4504726 8.5736697,7.3362328 8.534977,7.1943598 8.487553,7.0557856 8.4410872,6.9163882"
       id="path41" /><path
       style="fill:#000000;fill-opacity:1;stroke:none;stroke-opacity:1;paint-order:markers fill stroke"
       d="m 4.2205436,11.490485 c 0.047014,0.122123 0.076526,0.245164 0.088388,0.375651 0.00267,0.02934 -0.00809,0.06006 0,0.08839 0.0073,0.02554 0.032317,0.04254 0.044194,0.06629 0.030936,0.06187 0.035355,0.137002 0.066291,0.198874 0.07106,0.142121 0.3776096,0.459125 0.508233,0.552427 0.080249,0.05732 0.1828838,0.08321 0.265165,0.132583 0.017864,0.01072 0.02556,0.03488 0.044194,0.04419 0.029689,0.01484 0.1654425,0.03305 0.1988738,0.04419 0.03125,0.01042 0.057138,0.03378 0.088388,0.04419 0.046244,0.01541 0.1065834,-0.0096 0.1546796,0 0.052226,0.01045 0.2069182,0.0837 0.2209709,0.08839 0.1311172,0.04371 0.285404,0.0053 0.4198446,0.0221 0.042358,0.0053 0.090316,0.03715 0.1325826,0.04419 0.043593,0.0073 0.093054,-0.01976 0.1325825,0 0.00659,0.0033 0,0.01473 0,0.0221 0.022097,0.0074 0.043316,0.01827 0.066291,0.0221 0.021796,0.0036 0.045328,-0.007 0.066291,0 0.00699,0.0023 -0.00521,0.01689 0,0.0221 0.015625,0.01563 0.044854,-0.0054 0.066291,0 0.02519,0.0063 0.1554248,0.05561 0.1767767,0.06629 0.048506,0.02425 0.205892,-0.03718 0.2430679,0 0.011646,0.01165 0.010451,0.03255 0.022097,0.0442 0.023064,0.02306 0.1011778,0.01163 0.1325825,0.0221 0.048802,0.01627 0.1092881,0.08022 0.1546796,0.110485 0.025055,0.0167 0.084129,0.05751 0.1104855,0.06629 0.052511,0.0175 0.040133,-0.02616 0.088388,0.0221 0.00521,0.0052 -0.00521,0.01689 0,0.0221 0.033254,0.03325 0.093332,0.04667 0.1325825,0.06629 0.018634,0.0093 0.02556,0.03488 0.044194,0.04419 0.1045504,0.05227 0.2400992,-0.09018 0.3314563,-0.110485 0.035951,-0.008 0.073882,0.0041 0.1104855,0 0.1247605,-0.01386 0.080038,-0.04141 0.2209708,-0.08839 0.020963,-0.007 0.044329,0.0024 0.066291,0 0.1263014,-0.01403 0.2506839,-0.04844 0.3756505,-0.06629 0.045115,-0.0064 0.111713,0.0086 0.1546796,0 0.04568,-0.0091 0.087032,-0.03443 0.1325825,-0.04419 0.087903,-0.01884 0.4154075,-0.04208 0.4640388,-0.04419 0.3080927,-0.0134 0.6231197,0.02115 0.9280777,-0.0442 0.03878,-0.0083 0.07159,-0.03641 0.110485,-0.04419 0.06855,-0.01371 0.222588,-0.0027 0.287263,-0.0221 0.04114,-0.01234 0.07012,-0.05161 0.110485,-0.06629 0.04211,-0.01531 0.08936,-0.01031 0.132582,-0.0221 0.03827,-0.01044 0.07201,-0.03457 0.110486,-0.04419 0.02144,-0.0054 0.04485,0.0054 0.06629,0 0.02576,-0.0064 0.0411,-0.0358 0.06629,-0.0442 0.09444,-0.03148 0.275725,-0.05427 0.342505,-0.187827 0.0554,-0.10135 0.03639,-0.513757 -1.060664,-0.513757 -0.416692,0 -0.439386,0.03145 -0.8507377,0.08287 -0.043853,0.0055 -0.089247,-0.0087 -0.1325826,0 -0.053233,0.01065 -0.1036733,0.03399 -0.1546796,0.04419 -0.021668,0.0043 -0.045328,-0.007 -0.066291,0 -0.025195,0.0084 -0.042538,0.03232 -0.066291,0.04419 -0.00494,0.0025 -0.2675578,0.01165 -0.3093592,0.0221 -0.3005562,0.07514 0.191466,-0.04172 -0.1325825,0.06629 -0.09323,0.03108 -0.2437335,1.66e-4 -0.3314563,0.0221 -0.1406081,0.03515 -0.2932967,0.0221 -0.4419418,0.0221 -0.034068,0 -0.401201,0.01243 -0.4198446,0 -0.085742,-0.05716 -0.013084,-0.04827 -0.066291,-0.15468 -0.043343,-0.08669 -0.3073735,-0.281254 -0.3977475,-0.353553 -0.040283,-0.03223 -0.298623,-0.171409 -0.3535534,-0.198874 -0.035478,-0.01774 -0.076849,-0.02317 -0.1104855,-0.04419 -0.1296133,-0.08101 0.00579,-0.07173 -0.1767767,-0.132583 -0.027951,-0.0093 -0.059326,0.0048 -0.088388,0 -0.055741,-0.0093 -0.105482,-0.06871 -0.1546796,-0.08839 -0.061929,-0.02477 -0.1352107,-0.0022 -0.1988738,-0.0221 -0.069241,-0.02164 -0.1293895,-0.06754 -0.1988738,-0.08839 -0.333879,-0.100164 -0.1401182,-0.0087 -0.4419417,-0.0442 -0.060323,-0.0071 -0.117484,-0.03102 -0.1767767,-0.04419 -0.078945,-0.01754 -0.1835087,0 -0.265165,0 H 4.7729629 4.4194095 c -0.03517,0 -0.04835,0.03544 -0.088388,0.0221 -0.03763,-0.01254 -0.073657,-0.02946 -0.1104854,-0.04419 z"
       id="path42"
       sodipodi:nodetypes="ccccsssccccccccccccccscscccscccccccccccsscscccssccccccccscccscccsccccscsscc" /><path
       style="fill:#000000;fill-opacity:1;stroke:none;stroke-opacity:1;paint-order:markers fill stroke"
       d="m 6.7451358,12.534573 c 0.08187,-0.0027 1.0655405,-0.09001 1.1435242,-0.116013 0.03125,-0.01042 0.057138,-0.03378 0.088388,-0.04419 0.061735,-0.02058 0.1368022,-0.0066 0.1988737,-0.0221 0.032071,-0.008 0.1810773,-0.04849 0.1988738,-0.06629 0.00521,-0.0052 -0.00521,-0.01689 0,-0.0221 0.021475,-0.02147 0.061225,-0.0085 0.088388,-0.0221 0.038415,-0.01921 0.076126,-0.04052 0.1104854,-0.06629 0.00589,-0.0044 -0.00521,-0.01689 0,-0.0221 0.00505,-0.005 0.080816,-0.06377 0.088388,-0.06629 h 0.044194 c 0,-0.0074 -0.00659,-0.0188 0,-0.0221 0.019764,-0.0099 0.046527,0.0099 0.066291,0 0.035286,-0.01764 0.044636,-0.06132 0.066291,-0.08839 0.026029,-0.03254 0.063388,-0.05505 0.088388,-0.08839 0.029136,-0.03885 0.057425,-0.09543 0.088388,-0.132583 0.042596,-0.05111 0.1133229,-0.09954 0.1546797,-0.154679 0.033223,-0.0443 0.076246,-0.142538 0.1104854,-0.176777 0.011646,-0.01165 0.032548,-0.01045 0.044194,-0.0221 0.011646,-0.01165 0.011808,-0.03133 0.022097,-0.04419 0.019522,-0.0244 0.050213,-0.0395 0.066291,-0.06629 0.00758,-0.01263 -0.00659,-0.03102 0,-0.04419 0.00189,-0.0038 0.1406424,-0.162739 0.1546796,-0.176776 0.040315,-0.04031 0.1002134,-0.106126 0.1325825,-0.15468 0.00409,-0.0061 -0.00521,-0.01689 0,-0.0221 0.011646,-0.01165 0.032548,-0.01045 0.044194,-0.0221 0.041061,-0.04106 0.069424,-0.113619 0.1104854,-0.15468 0.00521,-0.0052 0.016889,0.0052 0.022097,0 0.060921,-0.06092 0.093617,-0.159908 0.1546795,-0.220971 0.01878,-0.01878 0.04505,-0.02826 0.06629,-0.04419 0.09002,-0.06751 0.1606,-0.174609 0.220971,-0.265165 0.01741,-0.02611 0.05303,-0.03093 0.06629,-0.04419 0.02424,-0.02424 0.120037,-0.2054334 0.132582,-0.2430681 0.05006,-0.1501791 -0.09256,-0.3242868 -0.220971,-0.3756505 -0.04553,-0.018212 -0.108712,-0.00677 -0.154679,-0.022097 -0.09473,-0.031577 -0.2167247,-0.046317 -0.3093596,0 -0.054358,0.027179 -0.17757,0.1112787 -0.2209709,0.1546796 -0.00521,0.00521 0.00409,0.015968 0,0.022097 -0.048965,0.073448 -0.1030903,0.1300879 -0.1546796,0.1988737 -0.029646,0.039528 -0.038883,0.09147 -0.066291,0.1325823 -0.026955,0.04043 -0.028173,0.0022 -0.044194,0.06629 -0.00357,0.01429 0.00659,0.03102 0,0.04419 -0.013258,0.02652 -0.053033,0.03977 -0.066291,0.06629 -0.010417,0.02083 -0.010541,0.04607 -0.022097,0.06629 -0.018272,0.03198 -0.049821,0.05545 -0.066291,0.08839 -0.00659,0.01318 0.00817,0.03194 0,0.04419 -0.00914,0.0137 -0.032548,0.01045 -0.044194,0.0221 -0.022119,0.02212 -0.076336,0.200883 -0.088388,0.220971 -0.00847,0.01412 -0.03572,0.008 -0.044194,0.0221 -0.015625,0.02604 -0.00647,0.06235 -0.022097,0.08839 -0.00847,0.01412 -0.034312,0.0089 -0.044194,0.0221 -0.013975,0.01863 -0.010113,0.04632 -0.022097,0.06629 -0.010719,0.01786 -0.032638,0.02686 -0.044194,0.04419 -0.01998,0.02997 -0.019043,0.07695 -0.044194,0.110485 -0.023116,0.03082 -0.075742,0.07255 -0.088388,0.110486 -0.04674,0.140219 0.076517,-0.07256 -0.044194,0.08839 -0.026521,0.03536 -0.025439,0.112156 -0.066291,0.132582 -0.083509,0.04176 -0.567863,0.02376 -0.6629126,0 -0.3612007,-0.0903 0.1392279,0.0076 -0.3093593,-0.110485 -0.2450128,-0.06448 -0.5087255,-0.06327 -0.7513009,-0.132582 -0.035216,-0.01006 -0.6557473,0.849443 -0.6850093,0.839683 -0.081916,-0.02731 0.5821513,-0.854153 0.5303303,-0.905983"
       id="path43"
       sodipodi:nodetypes="cscccccccccscscscsssscccscccscsssscsscssscccsscscccscssscccscc" /><path
       style="fill:#000000;fill-opacity:1;stroke:none;stroke-opacity:1;paint-order:markers fill stroke"
       d="m 3.4471456,10.00998 c -0.025039,0.136996 -0.046648,0.260243 -0.066291,0.397748 -0.00924,0.06466 0.00807,0.134304 0,0.198874 -0.015456,0.123649 -0.04847,0.250902 -0.066291,0.37565 -0.00582,0.04074 0.011297,0.115139 0,0.15468 -0.00905,0.03167 -0.035527,0.05661 -0.044194,0.08839 -0.032609,0.119565 -0.01338,0.311996 -0.044194,0.419845 -0.00905,0.03167 -0.029463,0.05893 -0.044194,0.08839 -0.014731,0.05156 -0.032562,0.102334 -0.044194,0.15468 -0.014059,0.06327 -0.00947,0.135754 -0.022097,0.198874 -0.032848,0.164238 -0.016416,-0.111737 -0.044194,0.110485 -0.016573,0.132582 0.013258,0.07955 0,0.198874 -0.051457,0.463115 0.011367,0.819504 0.088388,1.281631 0.018614,0.111685 0.1447439,0.333682 0.1988738,0.441942 0.054459,0.108918 0.1271158,0.273139 0.1988738,0.37565 0.023894,0.03413 0.065276,0.05372 0.088388,0.08839 0.045648,0.06847 0.035407,0.135297 0.088388,0.198874 0.017002,0.0204 0.047512,0.02541 0.066291,0.04419 0.08523,0.08523 0.1584039,0.180501 0.243068,0.265165 0.07879,0.07879 0.1806363,0.128434 0.265165,0.198874 0.1021449,0.08512 0.2150061,0.175139 0.3314563,0.243068 0.2638083,0.153888 0.08163,0.0365 0.3314563,0.132583 0.046117,0.01774 0.085357,0.05176 0.1325826,0.06629 0.092596,0.02849 0.1906669,0.03676 0.2872621,0.04419 0.051408,0.004 0.1038213,-0.0085 0.1546796,0 0.039126,0.0065 0.072218,0.03376 0.1104854,0.04419 0.177793,0.04849 0.3714029,0.03914 0.5524272,0.06629 0.013477,0.002 0.2968445,0.06224 0.3535534,0.06629 0.3114324,0.02224 0.6384508,0 0.9501747,0 0.1975563,0 0.4231078,0.02794 0.6187185,0 0.099667,-0.01424 0.032906,-0.02092 0.1104854,-0.04419 0.1285634,-0.03857 0.2710407,-0.04615 0.3977476,-0.08839 0.070946,-0.02365 0.1261638,-0.06761 0.1988738,-0.08839 0.1092568,-0.03122 0.2230696,-0.04461 0.3314563,-0.06629 0.064601,-0.01292 0.1150906,-0.06526 0.1767767,-0.08839 0.02069,-0.0078 0.046527,0.0099 0.066291,0 0.078105,-0.03905 0.1320861,-0.08249 0.1988738,-0.132582 0.036205,-0.02715 0.078435,-0.01214 0.1104854,-0.04419 0.00521,-0.0052 -0.00589,-0.01768 0,-0.0221 0.026352,-0.01976 0.060142,-0.02725 0.088388,-0.04419 0.017864,-0.01072 0.02556,-0.03488 0.044194,-0.04419 0.020833,-0.01042 0.047657,-0.0081 0.066291,-0.0221 0.013176,-0.0099 0.010451,-0.03255 0.022097,-0.04419 0.00521,-0.0052 0.016889,0.0052 0.022097,0 0.00521,-0.0052 -0.00589,-0.01768 0,-0.0221 0.04645,-0.03484 0.1078977,-0.0533 0.1546797,-0.08839 0.025,-0.01875 0.03834,-0.05232 0.06629,-0.06629 0.06194,-0.03097 0.133848,-0.111118 0.176777,-0.132582 0.03696,-0.01848 0.04742,-0.03898 0.08839,-0.06629 0.0061,-0.0041 0.0188,0.0066 0.0221,0 0.0066,-0.01318 -0.0047,-0.03022 0,-0.04419 0.01178,-0.03535 0.0766,-0.05303 0.08839,-0.08839 0.0047,-0.01398 -0.0047,-0.03022 0,-0.04419 0.0088,-0.02652 0.05745,-0.03978 0.06629,-0.06629 0.0047,-0.01397 -0.0082,-0.03194 0,-0.04419 0.01551,-0.02327 0.05464,-0.03254 0.06629,-0.04419 0.01563,-0.01563 -0.0099,-0.04653 0,-0.06629 0.0033,-0.0066 0.01689,0.0052 0.0221,0 0.0041,-0.0041 0.01803,-0.06222 0.0221,-0.06629 0.0052,-0.0052 0.0188,0.0066 0.0221,0 0.0066,-0.01318 -0.0036,-0.0299 0,-0.0442 0.008,-0.03196 0.03378,-0.05714 0.04419,-0.08839 0.009,-0.027 0.07027,-0.349572 0.0442,-0.37565 -0.02604,-0.02604 -0.07555,-0.01165 -0.110486,0 -0.01976,0.0066 -0.02753,0.03169 -0.04419,0.04419 -0.01581,0.01186 -0.105475,0.06128 -0.110485,0.06629 -0.0052,0.0052 0.0059,0.01768 0,0.0221 -0.03953,0.02965 -0.08671,0.04794 -0.132583,0.06629 -0.103351,0.04134 -0.202251,0.08974 -0.309359,0.132583 -0.07738,0.03095 -0.1815508,0.04957 -0.2651651,0.06629 -0.014445,0.0029 -0.030516,-0.0055 -0.044194,0 -0.024658,0.0099 -0.042538,0.03232 -0.066291,0.04419 -0.045814,0.02291 -0.171807,0.0057 -0.2209709,0.0221 -0.0278,0.0093 -0.055785,0.03333 -0.088388,0.0442 -0.057488,0.01916 -0.1225171,0.02611 -0.1767767,0.04419 -0.016283,0.0054 -0.1265918,0.0615 -0.1325825,0.06629 -0.020738,0.01659 -0.023456,0.0497 -0.044194,0.06629 -0.018188,0.01455 -0.048103,0.0075 -0.066291,0.0221 -0.020738,0.01659 -0.022948,0.05036 -0.044194,0.06629 -0.011785,0.0088 -0.030517,-0.0055 -0.044194,0 -0.088743,0.0355 -0.1652814,0.124919 -0.243068,0.176776 -0.019915,0.04387 -0.061225,0.0085 -0.088388,0.0221 -0.00659,0.0033 0.00613,0.01801 0,0.0221 -0.01938,0.01292 -0.046911,0.0092 -0.066291,0.0221 -0.026001,0.01733 -0.039495,0.05021 -0.066291,0.06629 -0.012632,0.0076 -0.030219,-0.0047 -0.044194,0 -0.00988,0.0033 -0.014731,0.01473 -0.022097,0.0221 -0.014731,0.0074 -0.028216,0.0181 -0.044194,0.0221 -0.014292,0.0036 -0.031018,-0.0066 -0.044194,0 -0.018634,0.0093 -0.02633,0.03348 -0.044194,0.04419 -0.05056,0.03034 -0.1268633,0.01924 -0.1767767,0.04419 -0.023754,0.01188 -0.042538,0.03232 -0.066291,0.0442 -0.028607,0.0143 -0.1041323,-0.0047 -0.1325825,0 -0.1242904,0.02072 -0.2252707,0.0221 -0.3535534,0.0221 -0.2946278,0 -0.5892556,0 -0.8838835,0 -0.2872621,0 -0.5745242,0 -0.8617863,0 -0.07327,0 -0.2535545,0.01947 -0.3314564,0 -0.092895,-0.02322 -0.1736453,-0.08233 -0.265165,-0.110486 -0.1229448,-0.03783 -0.2539334,-0.04782 -0.3756505,-0.08839 -0.03125,-0.01042 -0.057138,-0.03378 -0.088388,-0.04419 -0.033146,-0.01105 -0.022097,0.0221 -0.066291,0 -0.018634,-0.0093 -0.02686,-0.03264 -0.044194,-0.04419 -0.058806,-0.0392 -0.1493825,-0.108719 -0.2209708,-0.132582 -0.020963,-0.007 -0.046527,0.0099 -0.066291,0 -0.014731,-0.0074 -0.010451,-0.03255 -0.022097,-0.04419 -0.027621,-0.02762 -0.052481,-0.0083 -0.066291,-0.0221 -0.00521,-0.0052 0.00409,-0.01597 0,-0.0221 -0.085414,-0.128121 -0.010629,-0.01636 -0.066291,-0.0442 -0.070034,-0.03502 -0.1311024,-0.137974 -0.1767767,-0.198873 -0.046948,-0.0626 -0.00576,-0.02305 -0.022097,-0.08839 -0.00827,-0.03307 -0.05441,-0.08672 -0.066291,-0.110485 -0.043001,-0.086 -0.00171,-0.05556 -0.044194,-0.15468 -0.010461,-0.02441 -0.029463,-0.04419 -0.044194,-0.06629 -0.00737,-0.02946 -0.012493,-0.05958 -0.022097,-0.08839 -0.018695,-0.05609 -0.07682,-0.09684 -0.088388,-0.15468 -0.00433,-0.02167 0.00536,-0.04485 0,-0.06629 -0.012051,-0.0482 -0.074842,-0.100494 -0.088388,-0.15468 -0.0135,-0.054 -0.01689,-0.727935 0,-0.795495 0.00799,-0.03196 0.038779,-0.0559 0.044194,-0.08839 0.00484,-0.02906 -0.00484,-0.05933 0,-0.08839 0.00723,-0.04336 0.05365,-0.12097 0.066291,-0.154679 0.049829,-0.132877 0.096386,-0.299259 0.1767767,-0.419845 0.024757,-0.03714 0.068757,-0.07122 0.088388,-0.110485 0.013582,-0.02716 0.00388,-0.06409 0.022097,-0.08839 0.025,-0.03333 0.075212,-0.04886 0.088388,-0.08839 0.00699,-0.02096 -0.015625,-0.05067 0,-0.06629 0.011646,-0.01165 0.035058,-0.0084 0.044194,-0.0221 0.00817,-0.01226 -0.00659,-0.03102 0,-0.0442 0.00329,-0.0066 0.015509,0.0033 0.022097,0 0.018634,-0.0093 0.029463,-0.02946 0.044194,-0.04419"
       id="path44" /></g></svg>
