<?xml version="1.0" encoding="UTF-8" standalone="no"?>
<!-- Created with Inkscape (http://www.inkscape.org/) -->

<svg
   width="16"
   height="16"
   viewBox="0 0 16 16"
   version="1.1"
   id="svg1"
   inkscape:version="1.3.2 (091e20e, 2023-11-25, custom)"
   sodipodi:docname="food_crab.svg"
   xml:space="preserve"
   xmlns:inkscape="http://www.inkscape.org/namespaces/inkscape"
   xmlns:sodipodi="http://sodipodi.sourceforge.net/DTD/sodipodi-0.dtd"
   xmlns="http://www.w3.org/2000/svg"
   xmlns:svg="http://www.w3.org/2000/svg"><sodipodi:namedview
     id="namedview1"
     pagecolor="#ffffff"
     bordercolor="#000000"
     borderopacity="0.25"
     inkscape:showpageshadow="2"
     inkscape:pageopacity="0.0"
     inkscape:pagecheckerboard="0"
     inkscape:deskcolor="#d1d1d1"
     inkscape:document-units="px"
     showgrid="true"
     inkscape:zoom="97.125"
     inkscape:cx="6.9395109"
     inkscape:cy="8.2522523"
     inkscape:window-width="1662"
     inkscape:window-height="967"
     inkscape:window-x="132"
     inkscape:window-y="26"
     inkscape:window-maximized="0"
     inkscape:current-layer="layer1"><inkscape:grid
       id="grid1"
       units="px"
       originx="0"
       originy="0"
       spacingx="2"
       spacingy="2"
       empcolor="#0099e5"
       empopacity="0.30196078"
       color="#0099e5"
       opacity="0.14901961"
       empspacing="4"
       dotted="false"
       gridanglex="30"
       gridanglez="30"
       visible="true" /></sodipodi:namedview><defs
     id="defs1" /><g
     inkscape:label="Warstwa 1"
     inkscape:groupmode="layer"
     id="layer1"><rect
       style="fill:#ffeeaa;paint-order:markers fill stroke"
       id="rect1"
       width="16.288288"
       height="16.205919"
       x="-0.12355212"
       y="-0.082368083" /><path
       id="path7"
       style="fill:#000000;fill-opacity:1;paint-order:markers fill stroke;stroke:none;stroke-opacity:1"
       d="M 9.5449219 4.6367188 L 8.9042969 4.703125 L 8.8085938 4.8125 L 9.1738281 4.8925781 L 9.5585938 5.1621094 L 8.7441406 4.8554688 L 8.8671875 5.1757812 L 9.2675781 5.7148438 L 9.8652344 6.1152344 L 10.337891 6.515625 L 10.599609 6.6328125 L 10.673828 6.7421875 L 10.25 6.9023438 L 10.015625 7.2714844 C 9.8584627 7.1601981 9.6755754 7.0599709 9.4863281 6.9882812 C 9.3475602 6.9635749 9.2001629 6.9322914 9.0507812 6.9003906 L 9.1523438 6.828125 L 9.1289062 6.6464844 L 9.0351562 6.6113281 L 8.9628906 6.6972656 L 8.7753906 6.84375 C 8.4936915 6.784359 8.2269181 6.7320374 8.0371094 6.7265625 C 7.8707971 6.7217654 7.5841766 6.753985 7.2851562 6.8164062 L 7.1933594 6.7773438 L 7.0546875 6.625 L 6.9375 6.6679688 L 6.953125 6.7636719 L 7.0234375 6.8769531 C 6.7814431 6.9426818 6.5523818 7.029818 6.3925781 7.1347656 C 6.2957781 7.198337 6.2034741 7.2731477 6.1191406 7.3535156 L 5.9550781 7.0917969 L 5.8613281 7.2148438 L 5.6503906 6.9667969 L 5.4609375 6.9238281 L 5.4960938 6.8652344 L 5.7304688 6.6679688 L 6.1015625 6.40625 L 6.4804688 6.0859375 L 7.0976562 5.671875 L 7.4921875 5.4101562 L 7.6738281 5.2714844 L 7.5214844 5.1914062 L 6.7773438 5.2714844 L 6.8808594 5.1464844 L 7.0917969 5.0605469 L 7.375 5.0605469 L 7.5566406 5.0957031 L 7.6230469 5.0371094 L 7.5273438 4.9433594 L 7.265625 4.796875 L 6.8359375 4.8261719 L 6.4648438 4.9863281 L 6.2539062 5.1328125 L 6.1367188 5.1542969 L 6.09375 5.2265625 L 6.0722656 5.1328125 L 6.0058594 5.1464844 L 5.9472656 5.2421875 L 5.546875 5.4667969 L 5.3300781 5.7304688 L 5.234375 6.0507812 L 5.1171875 5.9472656 L 5.0898438 6.1308594 L 5.015625 6.2460938 L 4.9804688 6.3769531 L 4.8339844 6.5078125 L 4.8125 6.7421875 L 4.8339844 6.9882812 L 4.921875 7.1855469 L 4.9003906 7.265625 L 5.0019531 7.375 L 5.0097656 7.5488281 L 5.1171875 7.796875 L 5.34375 7.9570312 L 5.4960938 8.0371094 L 5.6015625 8.1132812 C 5.5950992 8.1322827 5.5887371 8.1501595 5.5839844 8.1679688 C 5.5806438 8.1804865 5.579328 8.1858486 5.5761719 8.1972656 L 5.3007812 7.9863281 L 4.8847656 7.8984375 L 4.7402344 7.9570312 L 4.6230469 7.7167969 L 4.5722656 7.6875 L 4.5136719 7.4335938 L 4.0761719 6.8066406 L 3.9902344 6.7265625 L 4.484375 6.2832031 L 4.7460938 6.1230469 L 4.375 6.1738281 L 3.8652344 6.421875 L 3.6621094 6.625 L 3.640625 6.8222656 L 3.5683594 6.9160156 L 3.7285156 7.3164062 L 4.0761719 7.6230469 L 4.2519531 7.6953125 L 4.0195312 7.6738281 L 3.9902344 7.7382812 L 4.2519531 7.9941406 L 4.5644531 8.2050781 L 4.796875 8.2265625 L 4.8339844 8.328125 L 5.5546875 8.5917969 L 5.5839844 8.5800781 C 5.6032445 8.6078015 5.6260144 8.6383731 5.65625 8.6777344 C 5.7039872 8.7398797 5.7867615 8.791404 5.8867188 8.8378906 L 5.5546875 8.9042969 L 5.1757812 9.0058594 L 4.9648438 9.0488281 L 4.7460938 8.8964844 L 4.609375 8.765625 L 3.9101562 8.4316406 L 3.7421875 8.4238281 L 3.7558594 8.2636719 L 3.7285156 7.9140625 L 3.8222656 7.5722656 L 3.5097656 8.1464844 L 3.5449219 8.546875 L 3.5683594 8.6933594 L 4.1796875 8.9980469 L 4.2363281 9.0644531 L 4.7539062 9.2832031 L 5.0957031 9.2539062 L 5.1972656 9.3554688 L 5.5761719 9.3398438 L 5.6113281 9.3457031 L 5.5117188 9.3632812 L 5.4238281 9.4140625 L 5.0234375 9.4492188 L 4.7539062 9.3339844 L 4.3027344 9.3632812 L 4.2148438 9.3183594 L 4.1289062 9.2832031 L 3.9316406 9.0488281 L 3.7128906 8.9335938 L 3.8300781 9.2167969 L 4.0117188 9.4570312 L 4.2304688 9.5527344 L 4.609375 9.625 L 4.8847656 9.6757812 L 5.4316406 9.6542969 L 5.5625 9.6601562 L 5.8378906 9.5800781 L 6.3925781 9.5664062 L 7.0410156 9.4863281 L 7.1542969 9.390625 C 7.2009417 9.4253736 7.2488158 9.4582044 7.2949219 9.4902344 L 7.2441406 9.5957031 L 6.9453125 9.5800781 L 6.4726562 9.6171875 L 5.984375 9.6679688 L 5.8828125 9.7929688 L 5.7304688 9.9238281 L 5.6855469 10.15625 L 5.7949219 10.455078 L 6.1367188 10.724609 L 6.4433594 10.775391 L 6.9082031 10.650391 L 6.3554688 10.548828 L 6.2324219 10.548828 L 6.1523438 10.177734 L 6.0136719 10.033203 L 6.0507812 10.009766 L 6.734375 9.9804688 L 7.0976562 9.8867188 L 7.3027344 9.8789062 L 7.4414062 9.7773438 L 7.5722656 9.7773438 L 7.6972656 9.6738281 C 7.9032221 9.7216782 8.1528456 9.7338267 8.375 9.7167969 L 8.4882812 9.84375 L 8.6777344 9.9375 L 8.9921875 10.054688 L 9.1152344 10.025391 L 9.5234375 10.113281 L 9.9882812 10.089844 L 10.076172 10.134766 L 10.025391 10.207031 L 9.8867188 10.570312 L 9.8066406 10.703125 L 9.6328125 10.6875 L 9.1796875 10.738281 L 9.5527344 10.863281 L 9.9375 10.796875 L 10.185547 10.673828 L 10.345703 10.404297 L 10.388672 10.054688 L 10.177734 9.8496094 L 10.113281 9.7636719 L 9.2382812 9.6601562 L 8.9121094 9.734375 L 8.8320312 9.6972656 L 8.8457031 9.609375 C 8.8688741 9.5972252 8.8905355 9.5856287 8.9101562 9.5722656 L 8.9121094 9.6035156 L 9.2167969 9.5957031 L 9.3847656 9.6171875 L 10.279297 9.6835938 L 10.505859 9.7636719 L 10.599609 9.7480469 L 11.4375 9.7851562 L 11.496094 9.7128906 L 12.011719 9.6386719 L 12.064453 9.5449219 L 12.318359 9.09375 L 11.960938 9.4433594 L 11.298828 9.4433594 L 11.080078 9.5449219 L 10.628906 9.515625 L 10.619141 9.4589844 L 10.914062 9.4648438 L 10.986328 9.3769531 L 11.21875 9.4140625 L 11.605469 9.3183594 L 11.931641 9.1152344 L 12.339844 8.9394531 L 12.529297 8.7949219 L 12.521484 8.6933594 L 12.595703 8.453125 L 12.486328 7.9492188 L 12.289062 7.6953125 L 12.339844 7.9648438 L 12.361328 8.5039062 L 12.158203 8.5253906 L 11.53125 8.8320312 L 11.335938 9.0136719 L 11.007812 9.1738281 L 10.935547 9.1074219 L 10.328125 8.9707031 C 10.400233 8.8941298 10.458253 8.8083827 10.501953 8.7167969 L 10.789062 8.6347656 L 11.248047 8.4667969 L 11.255859 8.2988281 L 11.371094 8.3359375 L 11.800781 8.1386719 L 12.136719 7.8476562 L 12.115234 7.7753906 L 11.845703 7.8183594 L 12.005859 7.6953125 L 12.121094 7.6738281 L 12.464844 7.3164062 L 12.566406 6.9960938 L 12.470703 6.9746094 L 12.478516 6.8574219 L 12.267578 6.5742188 L 11.416016 6.2167969 L 12.048828 6.8007812 L 12.230469 6.8867188 L 12.078125 6.8867188 L 11.488281 7.7167969 L 11.517578 7.8125 L 11.306641 8.0078125 L 10.970703 8.0449219 L 10.615234 8.2363281 C 10.615817 8.2111336 10.616344 8.1862267 10.615234 8.1621094 C 10.610211 8.0529452 10.587386 7.9610624 10.550781 7.8769531 L 10.847656 7.7539062 L 11.234375 7.4472656 L 11.210938 7.3242188 L 11.365234 7.2011719 L 11.328125 7.1210938 L 11.451172 6.7636719 L 11.320312 6.2539062 L 11.285156 5.9121094 L 11.138672 6 L 10.804688 5.3007812 L 10.410156 4.8554688 L 10.265625 4.90625 L 9.5449219 4.6367188 z " /></g></svg>
