<?xml version="1.0" encoding="UTF-8" standalone="no"?>
<!-- Created with Inkscape (http://www.inkscape.org/) -->

<svg
   width="16"
   height="16"
   viewBox="0 0 16 16"
   version="1.1"
   id="svg1"
   inkscape:version="1.3.2 (091e20e, 2023-11-25, custom)"
   sodipodi:docname="food_berries.svg"
   xml:space="preserve"
   xmlns:inkscape="http://www.inkscape.org/namespaces/inkscape"
   xmlns:sodipodi="http://sodipodi.sourceforge.net/DTD/sodipodi-0.dtd"
   xmlns="http://www.w3.org/2000/svg"
   xmlns:svg="http://www.w3.org/2000/svg"><sodipodi:namedview
     id="namedview1"
     pagecolor="#ffffff"
     bordercolor="#000000"
     borderopacity="0.25"
     inkscape:showpageshadow="2"
     inkscape:pageopacity="0.0"
     inkscape:pagecheckerboard="0"
     inkscape:deskcolor="#d1d1d1"
     inkscape:document-units="px"
     showgrid="true"
     inkscape:zoom="90.509668"
     inkscape:cx="8.6068153"
     inkscape:cy="7.8389416"
     inkscape:window-width="1662"
     inkscape:window-height="967"
     inkscape:window-x="132"
     inkscape:window-y="26"
     inkscape:window-maximized="0"
     inkscape:current-layer="layer1"><inkscape:grid
       id="grid1"
       units="px"
       originx="0"
       originy="0"
       spacingx="2"
       spacingy="2"
       empcolor="#0099e5"
       empopacity="0.30196078"
       color="#0099e5"
       opacity="0.14901961"
       empspacing="4"
       dotted="false"
       gridanglex="30"
       gridanglez="30"
       visible="true" /></sodipodi:namedview><defs
     id="defs1" /><g
     inkscape:label="Warstwa 1"
     inkscape:groupmode="layer"
     id="layer1"><rect
       style="fill:#ffeeaa;paint-order:markers fill stroke"
       id="rect1"
       width="16.288288"
       height="16.205919"
       x="-0.12355212"
       y="-0.082368083" /><path
       style="fill:#000000;fill-opacity:1;stroke:none;stroke-opacity:1;paint-order:markers fill stroke"
       d="M 11.243243,5.0244531 C 10.683776,4.4109267 7.908181,3.4717035 6.054054,4.6949807 4.199927,5.9182579 4.0066812,10.466578 3.3359073,12.355212 6.3511051,13.090693 10.525195,12.568488 11.963964,10.666667 13.402733,8.7648454 12.195665,5.3701764 11.51094,5.1685972 12.102921,4.2257052 12.087516,3.5830116 12.087516,3.5830116 L 11.263835,3.4594595 c 0,0 0.271179,0.6135264 -0.02059,1.5649936 z"
       id="path19"
       sodipodi:nodetypes="czczcccc" /><path
       style="fill:#ffffff;fill-opacity:1;stroke:none;stroke-opacity:1;paint-order:markers fill stroke"
       d="m 8.4198525,5.6992076 c 0.2523857,-0.04593 0.499205,0.3981001 0.499205,0.3981001 0,0 0.6031908,-0.2033428 0.7980923,-0.027444 0.1949014,0.175899 0.1239807,0.5582685 0.1239807,0.5582685 0,0 0.5480315,-0.068514 0.6791075,0.1624523 0.131077,0.230966 0.01021,0.509804 0.01021,0.509804 0,0 0.383846,0.1771646 0.401633,0.4168369 0.01779,0.2396723 -0.250209,0.4725817 -0.250209,0.4725817 0,0 0.337523,0.409053 0.229617,0.6599794 -0.107906,0.2509264 -0.605484,0.2995303 -0.605484,0.2995303 0,0 -0.07608,0.4678705 -0.3417489,0.5447426 -0.2656712,0.076872 -0.5921722,-0.2720498 -0.5921722,-0.2720498 0,0 -0.1584726,0.3356333 -0.4168368,0.3956019 C 8.6968809,9.8775803 8.2016554,9.703232 8.2016554,9.703232 c 0,0 -0.2400526,0.444079 -0.5437076,0.42326 -0.303655,-0.02082 -0.5150149,-0.3883216 -0.5150149,-0.3883216 0,0 -0.1156932,0.5130726 -0.5067737,0.5076306 -0.3910805,-0.0054 -0.5531979,-0.2906826 -0.5531979,-0.2906826 0,0 -0.4600662,0.2280526 -0.6695438,-0.013955 -0.2094777,-0.2420075 0.041576,-0.711977 0.041576,-0.711977 0,0 -0.4075239,-0.2159181 -0.3916401,-0.5441363 0.015884,-0.3282182 0.2186703,-0.6000313 0.7275725,-0.5915659 -0.1473478,-0.00716 -0.2512623,-0.3690126 0.01374,-0.6233633 0.2650025,-0.2543507 0.769577,0.013918 0.769577,0.013918 0,0 -0.1182052,-0.357711 0.1364719,-0.6110864 0.2546771,-0.2533754 0.6994858,-0.066166 0.6994858,-0.066166 0,0 -0.085938,-0.4154508 0.1447871,-0.6133703 0.2307252,-0.1979195 0.53268,-0.089042 0.53268,-0.089042 0,0 0.079799,-0.3592359 0.3321848,-0.4051666 z"
       id="path20"
       sodipodi:nodetypes="zczczczczczczczczczczczczczcz" /><path
       style="fill:#000000;fill-opacity:1;stroke:none;stroke-opacity:1;paint-order:markers fill stroke"
       d="m 6.0817043,9.9403068 c 0,0 -0.061053,-0.3626361 0.1052707,-0.5189667 C 6.3532986,9.26501 6.5874661,9.2357217 6.7731852,9.2247697 6.8140096,9.0642478 6.9077117,8.8316405 7.0826181,8.7054264 7.2575246,8.5792125 7.5722126,8.6749734 7.5722126,8.6749734 c 0,0 -0.3475718,-0.1986866 -0.5611381,-0.091258 C 6.7975082,8.6911436 6.8076122,8.9705183 6.7607821,9.2161838 6.5752403,9.1970285 6.2505731,9.1098872 6.0924176,9.3175395 5.9342619,9.5251917 6.0817043,9.9403068 6.0817043,9.9403068 Z"
       id="path21"
       sodipodi:nodetypes="czczczczc" /><path
       style="fill:#000000;fill-opacity:1;stroke:none;stroke-opacity:1;paint-order:markers fill stroke"
       d="m 10.566105,7.3150395 c 0,0 -0.317971,-0.1715 -0.538293,0.017633 -0.2203225,0.189133 -0.2117213,0.4681354 -0.2117213,0.4681354 0,0 -0.034065,-0.3080286 0.1609399,-0.5161354 0.1950084,-0.208107 0.6279444,-0.125197 0.6279444,-0.125197 z"
       id="path22"
       sodipodi:nodetypes="czczcc" /><path
       style="fill:#ffffff;fill-opacity:1;stroke:none;stroke-opacity:1;paint-order:markers fill stroke"
       d="M 8.9824658,10.330389 C 8.9339218,10.112284 8.6889713,9.9043805 8.4410872,9.9215915 8.1932031,9.9388017 7.8229069,10.212495 7.8665629,10.496117 c 0.043656,0.283622 0.5565054,0.49785 0.8065437,0.419844 0.2500383,-0.07801 0.3579032,-0.367467 0.3093592,-0.585572 z"
       id="path23"
       sodipodi:nodetypes="zzzzz" /><path
       style="fill:#ffffff;fill-opacity:1;stroke:none;stroke-width:0.999996;stroke-opacity:1;paint-order:markers fill stroke"
       d="M 9.4277005,9.7109741 C 9.220246,9.6869454 8.8318043,9.8053752 8.7937406,10.070584 c -0.038063,0.265209 0.3026706,0.611242 0.5578847,0.602347 0.2552142,-0.0089 0.4978401,-0.368746 0.4818098,-0.593356 C 9.817404,9.8549648 9.6351551,9.7350028 9.4277005,9.7109741 Z"
       id="path24"
       sodipodi:nodetypes="zzzzz" /><path
       style="fill:#ffffff;fill-opacity:1;stroke:none;stroke-width:1;stroke-opacity:1;paint-order:markers fill stroke"
       d="m 6.0155167,10.651492 c -0.0831,-0.186096 -0.4031805,-0.31294 -0.5914449,-0.231366 -0.1882643,0.08158 -0.3434208,0.358084 -0.2545459,0.566446 0.088875,0.208363 0.492452,0.30119 0.673798,0.199453 C 6.02467,11.084287 6.098617,10.837587 6.0155167,10.651492 Z"
       id="path25"
       sodipodi:nodetypes="zzzzz" /><path
       style="fill:#000000;fill-opacity:1;stroke:none;stroke-opacity:1;paint-order:markers fill stroke"
       d="m 7.3483342,6.7844893 c 0,0 0.3937604,0.147908 0.4464969,0.3363637 C 7.8475681,7.3093085 7.601551,7.64452 7.601551,7.64452 c 0,0 0.3373222,-0.3013115 0.2928955,-0.5426708 C 7.8500201,6.8604899 7.3242426,6.6132386 7.3242426,6.6132386 Z"
       id="path26"
       sodipodi:nodetypes="czczcc" /><ellipse
       style="fill:#000000;fill-opacity:1;stroke:none;stroke-opacity:1;paint-order:markers fill stroke"
       id="path27"
       cx="2.1100929"
       cy="11.688142"
       rx="0.095703125"
       ry="0.04296875"
       transform="rotate(-17.46927)" /><ellipse
       style="fill:#000000;fill-opacity:1;stroke:none;stroke-opacity:1;paint-order:markers fill stroke"
       id="path28"
       cx="5.7967577"
       cy="11.707295"
       rx="0.12109375"
       ry="0.046875"
       transform="rotate(-13.307947)" /><ellipse
       style="fill:#000000;fill-opacity:1;stroke:none;stroke-opacity:1;paint-order:markers fill stroke"
       id="path29"
       cx="7.3370214"
       cy="11.344303"
       rx="0.11328125"
       ry="0.046875"
       transform="rotate(-10.384677)" /><ellipse
       style="fill:#000000;fill-opacity:1;stroke:none;stroke-opacity:1;paint-order:markers fill stroke"
       id="path30"
       cx="12.512172"
       cy="3.9066327"
       rx="0.11523438"
       ry="0.044921875"
       transform="rotate(24.023664)" /><ellipse
       style="fill:#000000;fill-opacity:1;stroke:none;stroke-opacity:1;paint-order:markers fill stroke"
       id="path31"
       cx="4.9823966"
       cy="11.252537"
       rx="0.1171875"
       ry="0.0390625"
       transform="rotate(-20.409883)" /><ellipse
       style="fill:#000000;fill-opacity:1;stroke:none;stroke-opacity:1;paint-order:markers fill stroke"
       id="path32"
       cx="7.6386719"
       cy="9.1425781"
       rx="0.12304688"
       ry="0.044921875" /><ellipse
       style="fill:#000000;fill-opacity:1;stroke:none;stroke-opacity:1;paint-order:markers fill stroke"
       id="path33"
       cx="6.5117188"
       cy="9.4472656"
       rx="0.08984375"
       ry="0.056640625" /><ellipse
       style="fill:#000000;fill-opacity:1;stroke:none;stroke-opacity:1;paint-order:markers fill stroke"
       id="path34"
       cx="2.9942687"
       cy="9.4200211"
       rx="0.12109375"
       ry="0.041015625"
       transform="rotate(-15.849333)" /><ellipse
       style="fill:#000000;fill-opacity:1;stroke:none;stroke-opacity:1;paint-order:markers fill stroke"
       id="path35"
       cx="8.3553886"
       cy="5.1660352"
       rx="0.12890625"
       ry="0.056640625"
       transform="rotate(18.167425)" /><ellipse
       style="fill:#000000;fill-opacity:1;stroke:none;stroke-opacity:1;paint-order:markers fill stroke"
       id="path36"
       cx="9.8066807"
       cy="2.5573118"
       rx="0.1171875"
       ry="0.03125"
       transform="rotate(28.432006)" /></g></svg>
