<?xml version="1.0" encoding="UTF-8" standalone="no"?>
<!-- Created with Inkscape (http://www.inkscape.org/) -->

<svg
   width="16"
   height="16"
   viewBox="0 0 16 16"
   version="1.1"
   id="svg1"
   inkscape:version="1.3.2 (091e20e, 2023-11-25, custom)"
   sodipodi:docname="food_critter.svg"
   xml:space="preserve"
   xmlns:inkscape="http://www.inkscape.org/namespaces/inkscape"
   xmlns:sodipodi="http://sodipodi.sourceforge.net/DTD/sodipodi-0.dtd"
   xmlns="http://www.w3.org/2000/svg"
   xmlns:svg="http://www.w3.org/2000/svg"><sodipodi:namedview
     id="namedview1"
     pagecolor="#ffffff"
     bordercolor="#000000"
     borderopacity="0.25"
     inkscape:showpageshadow="2"
     inkscape:pageopacity="0.0"
     inkscape:pagecheckerboard="0"
     inkscape:deskcolor="#d1d1d1"
     inkscape:document-units="px"
     showgrid="true"
     inkscape:zoom="45.254834"
     inkscape:cx="2.3643883"
     inkscape:cy="9.3139221"
     inkscape:window-width="1662"
     inkscape:window-height="967"
     inkscape:window-x="93"
     inkscape:window-y="21"
     inkscape:window-maximized="0"
     inkscape:current-layer="layer1"><inkscape:grid
       id="grid1"
       units="px"
       originx="0"
       originy="0"
       spacingx="2"
       spacingy="2"
       empcolor="#0099e5"
       empopacity="0.30196078"
       color="#0099e5"
       opacity="0.14901961"
       empspacing="4"
       dotted="false"
       gridanglex="30"
       gridanglez="30"
       visible="true" /></sodipodi:namedview><defs
     id="defs1" /><g
     inkscape:label="Warstwa 1"
     inkscape:groupmode="layer"
     id="layer1"><rect
       style="fill:#ffeeaa;paint-order:markers fill stroke"
       id="rect1"
       width="16.288288"
       height="16.205919"
       x="-0.12355212"
       y="-0.082368083" /><path
       style="fill:#000000;fill-opacity:1;stroke:none;stroke-opacity:1;paint-order:markers fill stroke"
       d="M 11.004349,3.314563 C 11.81403,2.4704128 11.711456,1.7235728 11.711456,1.7235728 l 0.662913,0.4419417 c 0,0 -0.205209,0.5741581 -1.016466,1.4142136 0.829368,0.4025555 2.139416,3.3737022 0.972271,5.6568542 C 11.163029,11.519734 4.5834005,13.495509 2.1681164,13.901098 3.1122073,11.666062 4.1238413,6.5754514 5.6036977,4.8756042 7.0835541,3.175757 10.100918,2.8774632 11.004349,3.314563 Z"
       id="path44"
       sodipodi:nodetypes="cccczczc" /><path
       style="fill:#ffffff;fill-opacity:1;stroke:none;stroke-opacity:1;paint-order:markers fill stroke"
       d="M 6.5625,5.609375 C 6.897437,5.293119 6.9473189,5.0986305 7.21875,5.03125 7.4901811,4.9638695 7.3521836,4.9987622 8,5.21875 c 0.6478164,0.2199878 2.55059,0.8705921 3.015625,1.34375 0.465035,0.4731579 0.24093,0.3992622 0.265625,0.625 0.02469,0.2257378 0.03355,0.2990615 -0.125,0.671875 C 10.997705,8.2321885 10.664428,8.7348266 10.140625,9.28125 9.6168215,9.8276734 8.8587152,10.818287 7.9375,11 7.0162848,11.181713 5.8457413,10.598328 5.203125,10.234375 4.5605087,9.8704217 4.2018348,9.4619599 4.046875,9.140625 3.8919152,8.8192901 3.9506764,8.8151438 4,8.59375 4.0493236,8.3723562 4.2054368,8.1697077 4.40625,7.890625 4.6070632,7.6115423 4.8770372,7.3355181 5.234375,6.953125 5.5917128,6.5707319 6.227563,5.925631 6.5625,5.609375 Z"
       id="path50"
       sodipodi:nodetypes="zzzzzzzzzzzzzz" /><path
       style="fill:#533b29;fill-opacity:1;stroke:none;stroke-opacity:1;paint-order:markers fill stroke"
       d="M 6.5625,5.609375 C 6.897437,5.293119 6.9473189,5.0986305 7.21875,5.03125 7.4901811,4.9638695 7.3521836,4.9987622 8,5.21875 c 0.6478164,0.2199878 2.55059,0.8705921 3.015625,1.34375 0.465035,0.4731579 0.24093,0.3992622 0.265625,0.625 0.02469,0.2257378 -0.02895,0.2990615 -0.1875,0.671875 C 10.935205,8.2321885 10.625366,8.7035766 10.101563,9.25 9.577759,9.7964234 8.8665277,10.747975 7.9453125,10.929688 7.0240973,11.111401 5.8848038,10.543641 5.2421875,10.179688 4.5995712,9.8157342 4.2487098,9.4463349 4.09375,9.125 3.9387902,8.8036651 3.9663014,8.8229563 4.015625,8.6015625 4.0649486,8.3801687 4.2054368,8.1697077 4.40625,7.890625 4.6070632,7.6115423 4.8770372,7.3355181 5.234375,6.953125 5.5917128,6.5707319 6.227563,5.925631 6.5625,5.609375 Z"
       id="path46"
       sodipodi:nodetypes="zzzzzzzzzzzzzz" /><path
       style="fill:#ffffff;fill-opacity:1;stroke:none;stroke-width:1;stroke-opacity:1;paint-order:markers fill stroke"
       d="m 10.849107,7.4997981 c -0.157852,-0.011708 -0.268848,0.3147949 -0.271602,0.4335125 -0.0027,0.1187176 -0.01833,0.2042382 0.118088,0.2073321 0.136422,0.00309 0.233011,-0.2608813 0.247985,-0.3769674 0.01497,-0.1160861 0.06338,-0.2521689 -0.09447,-0.2638772 z"
       id="path47"
       sodipodi:nodetypes="zzzzz" /><path
       style="fill:#ffffff;fill-opacity:1;stroke:none;stroke-width:1;stroke-opacity:1;paint-order:markers fill stroke"
       d="m 10.183554,8.3597346 c -0.1961122,-0.013705 -0.3340116,0.368494 -0.3374331,0.507463 -0.00335,0.1389689 -0.022773,0.239078 0.1467103,0.2426997 0.1694878,0.00362 0.2894888,-0.3053836 0.3080918,-0.4412722 0.0186,-0.1358886 0.07874,-0.295185 -0.117369,-0.3088905 z"
       id="path47-9"
       sodipodi:nodetypes="zzzzz" /><path
       style="fill:#ffffff;fill-opacity:1;stroke:none;stroke-width:1;stroke-opacity:1;paint-order:markers fill stroke"
       d="M 9.5124595,9.3127395 C 9.360984,9.3035995 9.2544723,9.5584928 9.2518299,9.6511729 c -0.00259,0.09268 -0.01759,0.1594441 0.1133172,0.1618595 0.1309107,0.00241 0.2235982,-0.2036641 0.237967,-0.2942899 0.014366,-0.090626 0.060818,-0.1968626 -0.090655,-0.206003 z"
       id="path47-9-8"
       sodipodi:nodetypes="zzzzz" /><path
       style="fill:#ffffff;fill-opacity:1;stroke:none;stroke-width:1;stroke-opacity:1;paint-order:markers fill stroke"
       d="m 8.6778622,10.140798 c -0.1387219,-0.0066 -0.2362659,0.176711 -0.2386858,0.243353 -0.00237,0.06664 -0.016109,0.11465 0.1037764,0.116387 0.1198887,0.0017 0.2047723,-0.146447 0.2179314,-0.211612 0.013156,-0.06517 0.055697,-0.141556 -0.083022,-0.148128 z"
       id="path47-9-8-5"
       sodipodi:nodetypes="zzzzz" /><path
       style="fill:#ffffff;fill-opacity:1;stroke:none;stroke-opacity:1;paint-order:markers fill stroke"
       d="M 4.8125,8.453125 C 5.0535254,8.7204515 5.3289361,8.6500306 5.84375,8.53125 6.3585639,8.4124694 7.1104919,7.8560085 7.6875,7.453125 8.2645081,7.0502415 9.0482669,6.6284145 9.296875,6.125 9.5454831,5.6215855 9.4548621,5.1345423 9.34375,4.84375 8.2999059,3.2618455 4.4926261,8.0983459 4.8125,8.453125 Z"
       id="path48"
       sodipodi:nodetypes="zzzzzz" /><path
       style="fill:#533b29;fill-opacity:1;stroke:none;stroke-opacity:1;paint-order:markers fill stroke"
       d="M 8.9375,4.421875 C 8.5661439,4.273295 7.644509,4.3304081 7.125,4.5 6.605491,4.6695919 6.3241315,4.8492505 5.90625,5.3125 5.4883685,5.7757495 4.9876477,6.7793521 4.84375,7.328125 4.6998523,7.8768979 4.6105371,8.115486 4.8515625,8.3828125 5.0925879,8.650139 5.3289361,8.5250306 5.84375,8.40625 6.3585639,8.2874694 7.0089294,7.723196 7.5859375,7.3203125 8.1629456,6.917429 9.0013919,6.4721645 9.25,5.96875 9.4986081,5.4653355 9.4548621,5.1345423 9.34375,4.84375 9.2326379,4.5529577 9.3088561,4.570455 8.9375,4.421875 Z"
       id="path49"
       sodipodi:nodetypes="zzzzzzzzzz" /></g></svg>
