<?xml version="1.0" encoding="UTF-8" standalone="no"?>
<!-- Created with Inkscape (http://www.inkscape.org/) -->

<svg
   width="16"
   height="16"
   viewBox="0 0 16 16"
   version="1.1"
   id="svg1"
   inkscape:version="1.3.2 (091e20e, 2023-11-25, custom)"
   sodipodi:docname="forest.svg"
   xmlns:inkscape="http://www.inkscape.org/namespaces/inkscape"
   xmlns:sodipodi="http://sodipodi.sourceforge.net/DTD/sodipodi-0.dtd"
   xmlns="http://www.w3.org/2000/svg"
   xmlns:svg="http://www.w3.org/2000/svg">
  <sodipodi:namedview
     id="namedview1"
     pagecolor="#ffffff"
     bordercolor="#000000"
     borderopacity="0.25"
     inkscape:showpageshadow="2"
     inkscape:pageopacity="0.0"
     inkscape:pagecheckerboard="0"
     inkscape:deskcolor="#d1d1d1"
     inkscape:document-units="px"
     showgrid="true"
     inkscape:zoom="32"
     inkscape:cx="5.59375"
     inkscape:cy="7"
     inkscape:window-width="1662"
     inkscape:window-height="946"
     inkscape:window-x="88"
     inkscape:window-y="22"
     inkscape:window-maximized="0"
     inkscape:current-layer="layer1">
    <inkscape:grid
       id="grid1"
       units="px"
       originx="0"
       originy="0"
       spacingx="2"
       spacingy="2"
       empcolor="#0099e5"
       empopacity="0.30196078"
       color="#0099e5"
       opacity="0.14901961"
       empspacing="4"
       dotted="false"
       gridanglex="30"
       gridanglez="30"
       visible="true" />
  </sodipodi:namedview>
  <defs
     id="defs1" />
  <g
     inkscape:label="Warstwa 1"
     inkscape:groupmode="layer"
     id="layer1">
    <rect
       style="fill:#5599ff"
       id="rect1"
       width="16.453024"
       height="16.514801"
       x="-0.18275419"
       y="-0.12612613" />
    <path
       style="fill:#404040;paint-order:markers fill stroke"
       d="M -0.46875,7.8125 1.375,2.78125 l 1.65625,5.0625 2,-5.15625 1.75,5.40625 1.75,-1.875 L 6.59375,6.15625 8.78125,3.6875 11.125,6.28125 H 9.46875 l 1.6875,1.6875 1.53125,-3.375 1.25,3.3125 1.5,-4.03125 2.25,4.6875 -0.4375,1.71875 0.25,1.125 -19.375,0.5 z"
       id="path5"
       sodipodi:nodetypes="ccccccccccccccccccc" />
    <path
       style="fill:#000000;stroke:#000000;stroke-width:0.3;stroke-opacity:1"
       d="M -0.94723295,10.39897 H 16.926641 Z"
       id="path1" />
    <path
       id="path2"
       style="fill:#000000;stroke:#000000;stroke-width:0;stroke-dasharray:none;stroke-opacity:0"
       d="M 4.6328125,3.6445312 3.4179688,5.2714844 h 1.0546874 l -0.00781,0.064453 -2.0351563,2.0351563 H 4.3457031 L 4.3242188,10.378906 H 4.9433594 L 4.9238281,7.3710938 H 6.8378906 L 4.8027344,5.3359375 4.7949219,5.2714844 h 1.0546875 l -1.2148438,-1.6269532 -0.00195,0.00977 z"
       sodipodi:nodetypes="cccccccccccccccc" />
    <path
       id="path3"
       style="fill:#000000;stroke:#000000;stroke-width:0;stroke-dasharray:none;stroke-opacity:0"
       d="m 8.849609,0.640625 -0.002,0.005859 -1.042968,1.7734375 h 0.808593 v 0.042969 L 6.4453125,4.6328125 H 8.4375 L 5.4101562,7.6601562 H 8.4375 V 10.34375 H 9.263672 V 7.6601562 h 3.027344 L 9.263672,4.6328125 h 1.99414 L 9.074219,2.4492188 v -0.029297 h 0.822265 l -1.042968,-1.77343752 -0.002,-0.003906 z"
       sodipodi:nodetypes="ccccccccccccccccccccc" />
    <path
       id="path4"
       style="fill:#000000;stroke:#000000;stroke-width:0;stroke-dasharray:none;stroke-opacity:0"
       d="M 12.390625,4.15625 10.59375,9.3125 h 1.4375 v 1.046875 h 0.720703 V 9.3125 h 1.4375 L 12.392578,4.15625 v 0.017578 z"
       sodipodi:nodetypes="cccccccccc" />
    <rect
       style="fill:#404040;paint-order:markers fill stroke"
       id="rect2"
       width="17.53125"
       height="6.96875"
       x="-0.71875"
       y="10.5" />
  </g>
</svg>
