<?xml version="1.0" encoding="UTF-8" standalone="no"?>
<!-- Created with Inkscape (http://www.inkscape.org/) -->

<svg
   width="16"
   height="16"
   viewBox="0 0 16 16"
   version="1.1"
   id="svg1"
   inkscape:version="1.3.2 (091e20e, 2023-11-25, custom)"
   sodipodi:docname="herb_vision.svg"
   xmlns:inkscape="http://www.inkscape.org/namespaces/inkscape"
   xmlns:sodipodi="http://sodipodi.sourceforge.net/DTD/sodipodi-0.dtd"
   xmlns="http://www.w3.org/2000/svg"
   xmlns:svg="http://www.w3.org/2000/svg">
  <sodipodi:namedview
     id="namedview1"
     pagecolor="#ffffff"
     bordercolor="#000000"
     borderopacity="0.25"
     inkscape:showpageshadow="2"
     inkscape:pageopacity="0.0"
     inkscape:pagecheckerboard="0"
     inkscape:deskcolor="#d1d1d1"
     inkscape:document-units="px"
     showgrid="true"
     inkscape:zoom="22.627417"
     inkscape:cx="-5.1265242"
     inkscape:cy="4.3973203"
     inkscape:window-width="1920"
     inkscape:window-height="991"
     inkscape:window-x="-9"
     inkscape:window-y="-9"
     inkscape:window-maximized="1"
     inkscape:current-layer="layer1">
    <inkscape:grid
       id="grid1"
       units="px"
       originx="0"
       originy="0"
       spacingx="2"
       spacingy="2"
       empcolor="#0099e5"
       empopacity="0.30196078"
       color="#0099e5"
       opacity="0.14901961"
       empspacing="4"
       dotted="false"
       gridanglex="30"
       gridanglez="30"
       visible="true" />
  </sodipodi:namedview>
  <defs
     id="defs1" />
  <g
     inkscape:label="Warstwa 1"
     inkscape:groupmode="layer"
     id="layer1">
    <rect
       style="fill:#c2deb5;fill-opacity:1;paint-order:markers fill stroke"
       id="rect1"
       width="16.41184"
       height="16.329472"
       x="-0.24324325"
       y="-0.1003861" />
    <path
       style="fill:#42682f;paint-order:markers fill stroke"
       d="M 4.4478764,5.6370657 4.4684685,5.5186615 4.6898327,4.1492922 5.3796654,3.1042471 6.0079683,2.7340181 6.8159588,2.5122265 l 1.6679537,-0.10296 1.1393377,0.5641088 0.8580878,0.9391087 0.494209,1.4002574 0.393058,1.0721827 0.174308,1.1190577 -0.228272,1.1368545 -0.462646,0.9962294 -1.1325613,1.1325613 -1.6679536,1.297297 -0.5971686,1.050193 -0.3294724,1.606178 -0.2882883,0.247104 -0.8854568,0.123552 0.5148005,0.164736 0.6177606,-0.20592 0.041184,0.473617 0.4324325,-0.391249 0.8236808,0.329472 -0.2059202,-0.391248 0.9472329,0.144144 -0.5353925,-0.432432 -0.4942085,-0.04118 V 13.281853 L 8.5868726,12.23166 10.254826,10.893179 11.160875,9.8018018 11.643752,8.6671191 11.861004,7.4543115 11.674278,6.2230333 11.284427,5.1480051 10.687259,3.6859717 9.7727238,2.741534 8.5456885,2.2033462 6.7541828,2.3886744 5.940074,2.6243967 5.2509653,3.047619 4.5508366,4.0978121 4.2831403,5.5598456 4.3861004,5.971686 Z"
       id="path1"
       sodipodi:nodetypes="ccccccccccccccccccccccccccccccccccccccccccccccc" />
    <path
       style="fill:#42682f;paint-order:markers fill stroke"
       d="m 7.9647343,14.677243 0.4513835,-1.325028 0.6989163,-1.106618 0.9027669,-0.626113 1.310468,-0.320336 1.470637,0.01456 0.480505,-0.546028 0.18929,-1.084777 L 13.221168,8.9257443 12.784345,8.401557 12.245597,8.285071 11.92526,8.0812204 l 0.349458,-0.1310469 0.786281,0.1019253 0.465945,0.5241873 0.349458,0.9755708 -0.04368,0.7862811 -0.364019,0.902767 -0.364019,0.567869 -0.582431,0.131047 -0.902767,-0.131047 -0.859084,0.131047 -0.859085,0.364019 -0.8882062,0.844524 -0.480505,1.033814 0.1892899,0.728038 -0.3348974,0.101925 z"
       id="path2"
       sodipodi:nodetypes="cccccccccccccccccccccccccccc" />
    <path
       style="fill:#42682f;paint-order:markers fill stroke"
       d="m 7.2221357,14.575318 v -0.05824 L 7.4551078,12.740663 7.2658179,11.488438 6.9309205,10.673035 6.363051,10.221652 5.4457233,9.784829 4.3536665,9.6100999 3.7275539,9.304324 3.5237033,8.8092582 3.5673856,8.1103419 4.018769,7.6443976 4.3973487,7.6589584 4.0042083,7.4114255 l -0.422262,0.2184114 -0.4659442,0.96101 0.2912151,0.96101 0.6406734,0.3494581 0.596991,0.131047 0.5969911,0.01456 0.6697948,0.407701 0.4950658,0.553309 0.2620936,0.58243 0.1747291,0.888206 0.058243,1.062935 -0.014561,0.859085 -0.2038507,0.757159 0.422262,-0.20385 z"
       id="path3" />
    <path
       style="fill:#42682f;paint-order:markers fill stroke"
       d="M 7.0619673,14.575318 7.1347711,13.192046 7.0328458,12.362083 6.479537,11.72141 5.7223777,11.590363 5.0671436,11.73597 l -0.480505,0.495066 -0.422262,0.626113 -0.5533088,0.232972 -0.7134771,0.05824 -0.4368227,-0.37858 -0.1892898,-0.567869 0.1456075,-0.436823 0.2912152,-0.451383 -0.5241873,0.39314 -0.2329721,0.728038 0.1456076,0.509626 0.2620936,0.451384 0.6843556,0.320336 0.7717201,-0.116486 0.6843556,-0.291215 0.3348975,-0.451383 0.3203366,-0.582431 0.4659443,-0.189289 0.6406733,0.04368 0.3348974,0.39314 0.043682,0.538748 -0.1164861,0.829964 -0.2329721,0.58243 0.014561,0.436823 0.1019253,0.20385 0.4513834,-0.116486 z"
       id="path4" />
    <path
       style="fill:#42682f;paint-order:markers fill stroke"
       d="M 8.4598001,14.735486 V 14.619 l 0.2038506,-0.495065 0.2912151,-0.465945 0.5096265,-0.320336 0.3931405,-0.01456 0.3785792,0.08737 0.684356,0.02912 0.320337,-0.145607 0.276654,-0.276655 v -0.349458 l -0.01989,-0.388859 0.223733,0.40342 0.0728,0.364019 -0.02912,0.276654 -0.218411,0.247533 -0.37858,0.145607 h -0.37858 l -0.538748,-0.0728 -0.232972,-0.101926 H 9.6537822 l -0.3203367,0.262094 -0.014561,0.232972 -0.058243,0.480505 -0.2475329,0.262094 -0.3494581,0.160168 z"
       id="path5"
       sodipodi:nodetypes="ccccccccccccccccccccccccccc" />
    <path
       style="fill:#d01268;fill-opacity:1;paint-order:markers fill stroke"
       d="M 4.359375,5.53125 C 3.8676298,5.548474 3.4821762,6.1819819 3.3926832,6.5733859 3.3031902,6.9647899 3.7118331,6.7963037 3.9234733,7.1934842 4.1351135,7.5906648 3.9679642,8.7572415 4.3088714,8.7629721 4.6497786,8.7687027 4.5382598,7.7107551 4.8323762,7.256932 5.1264926,6.803109 5.5064911,6.8988766 5.4016735,6.4973192 5.2968559,6.0957618 4.8511202,5.5140257 4.359375,5.53125 Z"
       id="path6"
       sodipodi:nodetypes="zzzzzzz" />
    <path
       style="fill:#42682f;fill-opacity:1;paint-order:markers fill stroke"
       d="M 4.3641747,5.469029 3.9609028,5.5684659 3.679165,5.7783882 3.5244854,6.0490775 3.3090388,6.2037571 3.1488349,6.0822232 3.2427475,6.3805338 3.4858155,6.363961 3.7509805,6.0435533 4.0271941,5.8281067 4.0106213,6.0656504 4.0548154,6.3915824 4.1376795,6.5517863 4.2647378,6.4081552 4.391796,6.0822232 4.4636116,5.7341941 4.6514368,6.0601261 4.7232523,6.2755727 4.8834562,6.546262 5.0270873,6.6236018 5.1928154,6.5131164 5.0657572,6.4523494 4.9994659,6.363961 4.9221261,5.9717377 4.7895436,5.7452426 5.0105145,5.855728 5.2370096,6.1871843 5.347495,6.424728 5.4856018,6.5075921 5.6016115,6.4910193 5.7065727,6.3860581 V 6.2479513 L 5.6071358,6.3252911 5.469029,6.3197669 5.3364465,6.0104076 5.0491844,5.6789513 4.7011552,5.4911261 4.4912329,5.4635047 Z"
       id="path7" />
    <path
       style="fill:#42682f;fill-opacity:1;paint-order:markers fill stroke"
       d="M 4.5575242,5.5408445 4.6624853,5.3419708 4.8337378,5.2370096 4.5575242,5.2922523 4.452563,5.3640678 4.2978834,5.0989028 4.0769125,5.0160387 4.2150193,5.1541455 4.2315921,5.3585436 4.0769125,5.2204368 4.1984465,5.5574174 Z"
       id="path8" />
  </g>
</svg>
