<?xml version="1.0" encoding="UTF-8" standalone="no"?>
<!-- Created with Inkscape (http://www.inkscape.org/) -->

<svg
   width="16"
   height="16"
   viewBox="0 0 16 16"
   version="1.1"
   id="svg1"
   inkscape:version="1.3.2 (091e20e, 2023-11-25, custom)"
   sodipodi:docname="illness.svg"
   xmlns:inkscape="http://www.inkscape.org/namespaces/inkscape"
   xmlns:sodipodi="http://sodipodi.sourceforge.net/DTD/sodipodi-0.dtd"
   xmlns="http://www.w3.org/2000/svg"
   xmlns:svg="http://www.w3.org/2000/svg">
  <sodipodi:namedview
     id="namedview1"
     pagecolor="#ffffff"
     bordercolor="#000000"
     borderopacity="0.25"
     inkscape:showpageshadow="2"
     inkscape:pageopacity="0.0"
     inkscape:pagecheckerboard="0"
     inkscape:deskcolor="#d1d1d1"
     inkscape:document-units="px"
     showgrid="true"
     inkscape:zoom="22.627417"
     inkscape:cx="3.7344077"
     inkscape:cy="8.4631843"
     inkscape:window-width="1920"
     inkscape:window-height="991"
     inkscape:window-x="-9"
     inkscape:window-y="-9"
     inkscape:window-maximized="1"
     inkscape:current-layer="layer1">
    <inkscape:grid
       id="grid1"
       units="px"
       originx="0"
       originy="0"
       spacingx="2"
       spacingy="2"
       empcolor="#0099e5"
       empopacity="0.30196078"
       color="#0099e5"
       opacity="0.14901961"
       empspacing="4"
       dotted="false"
       gridanglex="30"
       gridanglez="30"
       visible="true" />
  </sodipodi:namedview>
  <defs
     id="defs1">
    <inkscape:path-effect
       effect="mirror_symmetry"
       start_point="7.9895641,2.0507238"
       end_point="7.9868083,9.4831456"
       center_point="7.9881862,5.7669347"
       id="path-effect14"
       is_visible="true"
       lpeversion="1.2"
       lpesatellites=""
       mode="free"
       discard_orig_path="false"
       fuse_paths="true"
       oposite_fuse="false"
       split_items="false"
       split_open="false"
       link_styles="false" />
    <inkscape:path-effect
       effect="mirror_symmetry"
       start_point="7.9895641,2.0507238"
       end_point="7.9868083,9.4831456"
       center_point="7.9881862,5.7669347"
       id="path-effect2"
       is_visible="true"
       lpeversion="1.2"
       lpesatellites=""
       mode="free"
       discard_orig_path="false"
       fuse_paths="true"
       oposite_fuse="false"
       split_items="false"
       split_open="false"
       link_styles="false" />
  </defs>
  <g
     inkscape:label="Warstwa 1"
     inkscape:groupmode="layer"
     id="layer1">
    <rect
       style="fill:#333333;fill-opacity:1;stroke-width:0.05;paint-order:markers fill stroke"
       id="rect2"
       width="16.53125"
       height="16.53125"
       x="-0.28125"
       y="-0.21875" />
    <path
       id="path1"
       style="display:inline;fill:#38862e;fill-opacity:1;stroke-width:0.05;paint-order:markers fill stroke"
       d="M 5.9824219,2.0175781 C 4.5778756,2.0198778 3.9726846,3.242269 3.96875,4.0039062 3.9601644,5.6652294 7.49581,9.4994336 7.9863281,10.023438 8.4772347,9.4997975 12.017119,5.6691416 12.009766,4.0078125 12.006396,3.2461726 11.400638,2.0228725 9.9960938,2.0195313 8.9121887,2.0186796 8.0283027,2.8579395 7.9882812,3.9101563 7.9490401,2.8579101 7.0663272,2.0175302 5.9824219,2.0175781 Z"
       sodipodi:nodetypes="cscccc"
       inkscape:path-effect="#path-effect2"
       inkscape:original-d="M 5.9824219,2.0175781 C 4.5778742,2.0198778 3.9726846,3.2422682 3.96875,4.0039062 3.9600124,5.6946513 7.6224355,9.6366358 8.0097656,10.048828 L 8.4627559,6.6529565 7.9902346,3.984371 C 7.9903804,2.8981503 7.0913947,2.0175291 5.9824219,2.0175781 Z"
       transform="translate(0.046875,2.609375)"
       inkscape:label="Heart" />
    <path
       id="path5"
       style="fill:#38862e;fill-opacity:1;stroke:none;stroke-width:1;stroke-dasharray:none;stroke-opacity:1;paint-order:markers fill stroke"
       d="M 3.3242188 -0.21875 C 3.3103675 -0.20764601 3.2960003 -0.19733352 3.28125 -0.1875 C 3.2065024 -0.13766827 2.852875 0.13800048 2.8125 0.21875 C 2.80784 0.22806689 2.81987 0.24263401 2.8125 0.25 C 2.7859426 0.27655736 2.7476027 0.28845609 2.71875 0.3125 C 2.6173157 0.39702861 2.5389343 0.50922139 2.4375 0.59375 C 2.397489 0.62709287 2.349328 0.65067154 2.3125 0.6875 C 2.275672 0.72432846 2.242042 0.76591535 2.21875 0.8125 C 2.21409 0.82181689 2.22742 0.83797201 2.21875 0.84375 C 2.191342 0.86202198 2.148292 0.85170762 2.125 0.875 C 2.0879243 0.91207565 2.0189779 1.1230387 2 1.15625 C 1.9375911 1.2654657 1.8267856 1.3727679 1.75 1.46875 C 1.72541 1.499484 1.731032 1.556903 1.71875 1.59375 C 1.70228 1.643161 1.651797 1.674089 1.625 1.71875 C 1.5926526 1.7726622 1.47794 1.994486 1.46875 2.03125 C 1.46117 2.061567 1.480356 2.095985 1.46875 2.125 C 1.3857361 2.3325338 1.422623 2.0595094 1.375 2.25 C 1.3445266 2.3718937 1.3124679 2.5000641 1.25 2.625 C 1.2368238 2.6513523 1.203843 2.6629855 1.1875 2.6875 C 1.1116925 2.8012113 1.0193632 2.890849 0.9375 3 C 0.90954918 3.0372678 0.90794036 3.0920596 0.875 3.125 C 0.85852982 3.1414702 0.82897017 3.1397798 0.8125 3.15625 C 0.80513401 3.163616 0.81827799 3.17883 0.8125 3.1875 C 0.77297061 3.246794 0.67893218 3.3069531 0.65625 3.375 C 0.64966201 3.394764 0.66696869 3.419636 0.65625 3.4375 C 0.62593303 3.4880279 0.55760227 3.5097951 0.53125 3.5625 C 0.51651861 3.591963 0.51827198 3.628842 0.5 3.65625 C 0.49422191 3.66492 0.47611599 3.64888 0.46875 3.65625 C 0.34375012 3.7812499 0.5416665 3.6666668 0.375 3.75 C 0.34196615 3.7830339 0.3182966 3.878465 0.28125 3.90625 C 0.25489772 3.9260142 0.21322209 3.9169223 0.1875 3.9375 C 0.11654578 3.9942633 0.084605035 4.105487 0 4.15625 C -0.028246122 4.1731977 -0.067397716 4.1677358 -0.09375 4.1875 C -0.11238388 4.201475 -0.10416672 4.239583 -0.125 4.25 C -0.15295077 4.263975 -0.18910373 4.24012 -0.21875 4.25 C -0.22863199 4.253294 -0.21250001 4.27292 -0.21875 4.28125 C -0.23614572 4.3044441 -0.25962242 4.3222684 -0.28125 4.3417969 L -0.28125 5.7578125 C -0.20385962 5.6483476 -0.080185553 5.4684495 -0.0625 5.4375 C -0.0053652346 5.3375141 0.020694068 5.2926909 0.029296875 5.2773438 C 0.011815859 5.3010825 -0.061577661 5.403483 0 5.21875 C 0.046181484 5.0802055 0.14104566 4.9518631 0.1875 4.8125 C 0.20752507 4.7524248 0.21990492 4.6539401 0.25 4.59375 C 0.38463783 4.3244744 0.62407728 4.1264763 0.78125 3.875 C 0.81828476 3.8157444 0.83904855 3.747419 0.875 3.6875 C 0.9558547 3.5527421 1.0589104 3.4341745 1.15625 3.3125 C 1.1797122 3.2831723 1.1979167 3.25 1.21875 3.21875 C 1.21875 3.208333 1.2125 3.19583 1.21875 3.1875 C 1.245267 3.152145 1.284892 3.12826 1.3125 3.09375 C 1.347112 3.0504851 1.371638 2.980765 1.40625 2.9375 C 1.433858 2.90299 1.477262 2.881646 1.5 2.84375 C 1.5673691 2.7314681 1.6379182 2.6322898 1.71875 2.53125 C 1.8062327 2.4218966 1.9987982 2.2836537 2.0625 2.15625 C 2.0944019 2.0924462 2.0947137 1.8730725 2.125 1.8125 C 2.1417964 1.7789073 2.1756232 1.7543805 2.1875 1.71875 C 2.207264 1.6594574 2.172341 1.5918839 2.1875 1.53125 C 2.200132 1.4807221 2.260733 1.454122 2.28125 1.40625 C 2.298168 1.366774 2.300701 1.322547 2.3125 1.28125 C 2.3530427 1.1393507 2.4149983 1.1645021 2.5 1.0625 C 2.5298228 1.0267126 2.5333987 0.97387654 2.5625 0.9375 C 2.5938157 0.89835539 2.9082453 0.78457413 2.96875 0.75 C 3.026661 0.71690795 3.0630714 0.64977144 3.125 0.625 C 3.1696262 0.60714952 3.3977807 0.5397193 3.4375 0.5 C 3.44487 0.49263431 3.43013 0.47611599 3.4375 0.46875 C 3.45397 0.45227982 3.481366 0.45147539 3.5 0.4375 C 3.6450149 0.32873889 3.8014798 0.21616819 3.9375 0.09375 C 4.0492232 -0.0068008825 4.1464044 -0.10286855 4.2207031 -0.21875 L 3.3242188 -0.21875 z " />
    <path
       id="path6"
       style="fill:#38862e;fill-opacity:1;stroke:none;stroke-width:1;stroke-dasharray:none;stroke-opacity:1;paint-order:markers fill stroke"
       d="M 11.847656 -0.21875 C 12.066987 -0.11824939 12.28402 0.0027698744 12.40625 0.125 C 12.45566 0.17441055 12.45807 0.25659836 12.5 0.3125 C 12.5062 0.32083299 12.52474 0.30436601 12.53125 0.3125 C 12.704501 0.5290632 12.57187 0.39373707 12.65625 0.5625 C 12.779589 0.8091781 12.957815 1.0270864 13.125 1.25 C 13.16421 1.3022749 13.28359 1.5324199 13.34375 1.5625 C 13.35305 1.56716 13.36633 1.55672 13.375 1.5625 C 13.41177 1.587014 13.42772 1.639837 13.46875 1.65625 C 13.50863 1.672201 13.55533 1.668293 13.59375 1.6875 C 13.6201 1.700676 13.63174 1.733657 13.65625 1.75 C 13.67358 1.761556 13.70012 1.74068 13.71875 1.75 C 13.73193 1.75659 13.73682 1.774662 13.75 1.78125 C 13.84605 1.829273 14.10095 1.7518 14.21875 1.78125 C 14.26552 1.792943 14.341394 1.858197 14.375 1.875 C 14.40362 1.889308 14.514991 1.87094 14.53125 1.875 C 14.56769 1.88411 14.59141 1.920704 14.625 1.9375 C 14.897084 2.0735421 15.090088 2.1847534 15.34375 2.375 C 15.40396 2.420156 15.470577 2.451462 15.53125 2.5 C 15.62066 2.5715289 15.737957 2.7505709 15.8125 2.84375 C 15.84931 2.889763 15.90718 2.9182221 15.9375 2.96875 C 15.95445 2.996996 15.94899 3.036148 15.96875 3.0625 C 15.98273 3.081134 16.01478 3.07728 16.03125 3.09375 C 16.08085 3.14335 16.05843 3.2282735 16.09375 3.28125 C 16.11458 3.3125 16.16496 3.313704 16.1875 3.34375 C 16.2 3.360417 16.17678 3.388386 16.1875 3.40625 C 16.220311 3.4609374 16.23716 3.4801952 16.25 3.4882812 L 16.25 2.5859375 C 16.240841 2.5659823 16.230567 2.5470055 16.21875 2.53125 C 16.16717 2.4624771 16.081414 2.41398 16.03125 2.34375 C 15.901774 2.1624844 15.815003 1.9400031 15.65625 1.78125 C 15.589961 1.7149607 15.375369 1.6296753 15.3125 1.59375 C 15.292277 1.5821937 15.302083 1.5416667 15.28125 1.53125 C 15.21875 1.5 15.234375 1.546875 15.1875 1.53125 C 15.146755 1.5176683 15.100915 1.5192074 15.0625 1.5 C 15.036148 1.4868238 15.027951 1.4468169 15 1.4375 C 14.906057 1.4061857 14.651561 1.4363279 14.53125 1.40625 C 14.372784 1.3666336 14.250781 1.2816405 14.125 1.21875 C 14.09865 1.205574 14.09045 1.165567 14.0625 1.15625 C 14.04274 1.14966 14.01863 1.16557 14 1.15625 C 13.95 1.13125 13.925 1.05625 13.875 1.03125 C 13.845537 1.0165186 13.810713 1.0147314 13.78125 1 C 13.719574 0.96916207 13.68249 0.88207666 13.625 0.84375 C 13.6163 0.83797201 13.60112 0.85111599 13.59375 0.84375 C 13.58635 0.83638401 13.60115 0.81986569 13.59375 0.8125 C 13.567193 0.78594264 13.526557 0.77655736 13.5 0.75 C 13.48353 0.73352982 13.482725 0.70613388 13.46875 0.6875 C 13.3 0.46250022 13.478125 0.73124986 13.375 0.59375 C 13.31645 0.51568598 13.27631 0.42049492 13.21875 0.34375 C 13.17068 0.27966046 13.106821 0.22273108 13.0625 0.15625 C 12.993954 0.053429424 12.937743 -0.093699839 12.869141 -0.21875 L 11.847656 -0.21875 z " />
    <path
       id="path7"
       style="fill:#38862e;fill-opacity:1;stroke:none;stroke-width:1;stroke-dasharray:none;stroke-opacity:1;paint-order:markers fill stroke"
       d="M 16.224609 11.716797 C 16.222088 11.716839 16.2206 11.7169 16.21875 11.71875 C 16.21135 11.72612 16.22345 11.7407 16.21875 11.75 C 16.182714 11.822072 15.98835 11.878694 15.9375 12.03125 C 15.9309 12.05101 15.9468 12.07512 15.9375 12.09375 C 15.91875 12.13125 15.8625 12.15 15.84375 12.1875 C 15.800058 12.274883 15.72478 12.4068 15.6875 12.5 C 15.66777 12.549316 15.6744 12.60633 15.65625 12.65625 C 15.62584 12.739892 15.59933 12.82523 15.5625 12.90625 C 15.55678 12.918831 15.47355 13.02876 15.46875 13.0625 C 15.46135 13.11406 15.48245 13.1685 15.46875 13.21875 C 15.45036 13.286165 15.39888 13.34058 15.375 13.40625 C 15.34888 13.478092 15.32823 13.68686 15.3125 13.78125 C 15.29223 13.902902 15.32995 14.034119 15.3125 14.15625 C 15.2814 14.373939 15.22368 14.595424 15.1875 14.8125 C 15.17722 14.87415 15.19976 14.93871 15.1875 15 C 15.1738 15.06852 15.11585 15.12121 15.09375 15.1875 C 15.08715 15.20726 15.10035 15.23024 15.09375 15.25 C 15.04068 15.409211 14.873082 15.555546 14.75 15.65625 C 14.529665 15.836524 14.386934 15.939961 14.15625 16.09375 C 14.0625 16.15625 14.09375 16.09375 13.96875 16.1875 C 13.823385 16.296524 13.832196 16.307418 13.841797 16.3125 L 14.371094 16.3125 C 14.52294 16.226824 14.661034 16.113868 14.8125 16.03125 C 14.861746 16.00439 14.92387 16.00241 14.96875 15.96875 C 15.01042 15.9375 15.02861 15.8833 15.0625 15.84375 C 15.281165 15.588641 15.343551 15.505574 15.5 15.21875 C 15.52909 15.165427 15.57119 15.1189 15.59375 15.0625 C 15.61348 15.013184 15.60635 14.95598 15.625 14.90625 C 15.72194 14.64774 15.66004 15.002378 15.75 14.6875 C 15.77183 14.611079 15.75 14.48614 15.75 14.40625 C 15.75 14.105618 15.677587 13.447413 15.90625 13.21875 C 15.93281 13.19219 15.97344 13.18281 16 13.15625 C 16.071347 13.084903 16.15578 12.942153 16.25 12.867188 L 16.25 11.71875 C 16.242748 11.721675 16.232173 11.71667 16.224609 11.716797 z " />
    <path
       id="path8"
       style="fill:#38862e;fill-opacity:1;stroke:none;stroke-width:1;stroke-dasharray:none;stroke-opacity:1;paint-order:markers fill stroke"
       d="M -0.28125 13.9375 L -0.28125 14.875 C -0.26382687 14.922874 -0.24495508 14.974932 -0.1875 14.96875 C -0.14795543 15.00264 -0.10416663 15.03125 -0.0625 15.0625 C -0.031250031 15.08333 0.0023973089 15.10096 0.03125 15.125 C 0.087834783 15.172154 0.11911127 15.25389 0.1875 15.28125 C 0.21651487 15.29286 0.25060683 15.27515 0.28125 15.28125 C 0.35434606 15.29587 0.42872787 15.35124 0.5 15.375 C 0.6415221 15.422174 0.80067881 15.417442 0.9375 15.46875 C 0.97266646 15.48194 0.99513724 15.52093 1.03125 15.53125 C 1.1684759 15.5705 1.3316388 15.52822 1.46875 15.5625 C 1.5294179 15.57767 1.5689901 15.63385 1.625 15.65625 C 1.7047542 15.68815 1.8215061 15.54878 1.875 15.71875 C 1.9964781 15.779489 2.1035778 15.865517 2.21875 15.9375 C 2.347061 16.017694 2.4487078 16.142888 2.5625 16.21875 C 2.601261 16.24459 2.647554 16.25728 2.6875 16.28125 C 2.6929373 16.284512 2.7144213 16.302886 2.7265625 16.3125 L 3.1992188 16.3125 C 3.0728305 16.117874 2.9030195 15.970445 2.71875 15.8125 C 2.6628256 15.764565 2.6283809 15.68919 2.5625 15.65625 C 2.5144191 15.63221 2.418909 15.6201 2.375 15.59375 C 2.2861797 15.540458 2.0558209 15.36863 1.96875 15.34375 C 1.8060709 15.29727 1.4845938 15.22667 1.34375 15.15625 C 1.317398 15.14307 1.309201 15.10305 1.28125 15.09375 C 1.2120753 15.07069 1.1291319 15.12336 1.0625 15.09375 C 0.99385852 15.06324 0.94066283 15.00523 0.875 14.96875 C 0.84620493 14.95275 0.81071277 14.95223 0.78125 14.9375 C 0.74172154 14.91774 0.72427176 14.86826 0.6875 14.84375 C 0.57844976 14.77105 0.14166752 14.53333 0.09375 14.4375 C 0.045845438 14.341691 0.0017299658 14.24617 -0.0625 14.15625 C -0.12243707 14.072338 -0.21414067 14.01579 -0.28125 13.9375 z " />
    <path
       id="path9"
       style="fill:#38862e;fill-opacity:1;stroke:none;stroke-width:1;stroke-dasharray:none;stroke-opacity:1;paint-order:markers fill stroke"
       d="M 8.6035156 1.4238281 C 8.4069237 1.4214844 8.0954873 1.4496525 8 1.46875 C 8.010417 1.510417 8.041667 1.552083 8.03125 1.59375 C 7.9935811 1.7444252 7.7228187 1.9354657 7.59375 2 C 7.5642872 2.0147314 7.5282461 2.0143023 7.5 2.03125 C 7.442806 2.0655665 7.3909135 2.1090865 7.34375 2.15625 C 7.3171926 2.1828074 7.3120186 2.228462 7.28125 2.25 C 7.0948604 2.3804728 6.8293792 2.4404148 6.625 2.53125 C 6.4347872 2.615789 6.5120871 2.6376032 6.3125 2.6875 C 6.282183 2.69508 6.249393 2.68137 6.21875 2.6875 C 6.1030267 2.710645 5.9967587 2.763856 5.875 2.78125 C 5.7837231 2.79429 5.6836896 2.761263 5.59375 2.78125 C 5.548275 2.791356 5.513542 2.830952 5.46875 2.84375 C 5.3857848 2.8674544 5.1224746 2.8887536 5 2.90625 C 4.9299209 2.9162613 4.8507849 2.892343 4.78125 2.90625 C 4.7184957 2.8990788 4.6794205 2.9551448 4.625 2.96875 C 4.5037641 2.999059 4.3726071 2.9962194 4.25 3.03125 C 4.1606293 3.0567845 4.0870911 3.1417348 4 3.15625 C 3.9589 3.1631 3.915423 3.146144 3.875 3.15625 C 3.5347478 3.2413129 3.9352197 3.1882601 3.65625 3.28125 C 3.626604 3.29113 3.592146 3.27137 3.5625 3.28125 C 3.4962088 3.3033471 3.4388544 3.3466202 3.375 3.375 C 3.0469047 3.5208202 2.7417482 3.7035015 2.46875 3.9375 L 2.375 4.03125 C 2.375 4.041667 2.38237 4.055134 2.375 4.0625 C 2.3484426 4.0890574 2.3078074 4.0984426 2.28125 4.125 C 2.2318394 4.1744106 2.2221688 4.2518298 2.1875 4.3125 C 2.059051 4.5372857 1.9070033 4.742394 1.78125 4.96875 C 1.6429816 5.2176331 1.8421516 4.9105124 1.75 5.15625 C 1.7286731 5.2131217 1.6801763 5.2566721 1.65625 5.3125 C 1.616836 5.4044659 1.65625 5.6168339 1.65625 5.71875 C 1.65625 5.9746012 1.630844 6.2459393 1.65625 6.5 C 1.671095 6.648449 1.75413 6.7081512 1.78125 6.84375 C 1.807393 6.9744655 1.76237 7.1178406 1.78125 7.25 C 1.78591 7.282609 1.807085 7.311258 1.8125 7.34375 C 1.81764 7.374575 1.80262 7.407854 1.8125 7.4375 C 1.831707 7.4951219 1.881582 7.538246 1.90625 7.59375 C 1.9889089 7.7797335 2.0573612 7.9782503 2.15625 8.15625 C 2.2303689 8.2896643 2.3751574 8.4695373 2.40625 8.625 C 2.4723769 8.9556358 2.2877268 8.3757562 2.4375 8.875 C 2.453619 8.9287299 2.486395 8.9768295 2.5 9.03125 C 2.53792 9.1829304 2.53877 9.4276371 2.5625 9.59375 C 2.594598 9.8184382 2.7166995 10.034831 2.78125 10.25 C 2.796512 10.30087 2.805912 10.353545 2.8125 10.40625 C 2.81638 10.43726 2.798525 10.47205 2.8125 10.5 C 2.832264 10.53953 2.883512 10.55585 2.90625 10.59375 C 2.940739 10.65123 2.920705 10.822171 2.96875 10.90625 C 3.001842 10.96416 3.060658 11.00459 3.09375 11.0625 C 3.1515309 11.163617 3.1801231 11.28183 3.25 11.375 C 3.3691615 11.533882 3.6636456 11.898298 3.875 11.96875 C 3.904646 11.97865 3.940799 11.95477 3.96875 11.96875 C 3.989583 11.97917 3.98353 12.01478 4 12.03125 C 4.0531149 12.08437 4.123089 12.1176 4.1875 12.15625 C 4.231591 12.18271 4.3446432 12.20952 4.375 12.25 C 4.394764 12.27635 4.387978 12.31634 4.40625 12.34375 C 4.574257 12.595761 4.5237791 12.459785 4.6875 12.65625 C 4.7415549 12.72112 4.789695 12.810134 4.84375 12.875 C 4.879299 12.91766 4.940811 12.95344 4.96875 13 C 4.985698 13.02825 4.97671 13.07046 5 13.09375 C 5.023292 13.11704 5.067398 13.10524 5.09375 13.125 C 5.135417 13.15625 5.14683 13.21746 5.1875 13.25 C 5.2722029 13.31776 5.3757074 13.381674 5.46875 13.4375 C 5.6813876 13.565083 6.1686732 13.59106 6.40625 13.625 C 6.4996289 13.63834 6.5999197 13.6212 6.6875 13.65625 C 6.722372 13.6702 6.744814 13.70964 6.78125 13.71875 C 6.8317779 13.73138 6.8859402 13.71135 6.9375 13.71875 C 6.960558 13.72205 6.97716 13.74543 7 13.75 C 7.0510719 13.76021 7.1057218 13.73737 7.15625 13.75 C 7.178847 13.7556 7.196153 13.7756 7.21875 13.78125 C 7.238961 13.78635 7.262616 13.77195 7.28125 13.78125 C 7.307602 13.79443 7.317398 13.83057 7.34375 13.84375 C 7.362384 13.85305 7.386039 13.83865 7.40625 13.84375 C 7.4877239 13.86412 7.5485458 13.934 7.625 13.96875 C 7.8698901 14.080064 8.1294857 14.167936 8.375 14.28125 C 8.4595939 14.32029 8.5366117 14.37679 8.625 14.40625 C 8.6990219 14.43092 9.1632048 14.42645 9.21875 14.40625 C 9.6135005 14.262704 9.9389937 13.978171 10.28125 13.75 C 10.33179 13.71631 10.391789 13.69625 10.4375 13.65625 C 10.761636 13.372631 10.3741 13.64447 10.59375 13.46875 C 10.727548 13.361712 10.889814 13.250541 11.03125 13.15625 C 11.07001 13.13041 11.11834 13.12083 11.15625 13.09375 C 11.19221 13.06806 11.21512 13.02713 11.25 13 C 11.714835 12.638462 11.22236 13.03926 11.5625 12.8125 C 11.673494 12.7385 11.757547 12.625744 11.875 12.5625 C 11.95336 12.52031 12.045396 12.50855 12.125 12.46875 C 12.17159 12.44546 12.20447 12.40029 12.25 12.375 C 12.420431 12.28032 12.62574 12.214702 12.78125 12.09375 C 12.83939 12.04853 12.882448 11.986435 12.9375 11.9375 C 12.97643 11.9029 13.02916 11.88376 13.0625 11.84375 C 13.08359 11.81844 13.07902 11.77946 13.09375 11.75 C 13.203964 11.529572 13.399357 11.23131 13.46875 11 C 13.51428 10.848222 13.44892 10.658669 13.46875 10.5 C 13.48101 10.40189 13.56806 10.045827 13.59375 9.96875 C 13.729739 9.5607827 13.969027 9.1855591 14.03125 8.75 C 14.04837 8.6301654 14.03345 8.4913897 14.0625 8.375 C 14.07611 8.3205791 14.11283 8.2735096 14.125 8.21875 C 14.15157 8.0991637 14.125 7.9360547 14.125 7.8125 L 14.125 6.9375 C 14.125 6.7337782 14.1627 6.0759013 14.125 5.90625 C 14.11489 5.860775 14.0798 5.824503 14.0625 5.78125 C 13.971827 5.5545672 13.881168 5.3348692 13.75 5.125 C 13.7445 5.11617 13.72453 5.13367 13.71875 5.125 C 13.67669 5.0619021 13.69831 4.969348 13.65625 4.90625 C 13.63542 4.875 13.58654 4.872603 13.5625 4.84375 C 13.53268 4.807963 13.52795 4.756018 13.5 4.71875 C 13.40237 4.5885793 13.260268 4.4892853 13.1875 4.34375 C 13.1782 4.325116 13.2 4.297917 13.1875 4.28125 C 13.16497 4.251204 13.11458 4.25 13.09375 4.21875 C 13.06993 4.183014 13.07718 4.134113 13.0625 4.09375 C 13.02744 3.9973311 12.958408 3.8230656 12.90625 3.71875 C 12.83288 3.5720138 12.85927 3.6794339 12.8125 3.5625 C 12.80027 3.531916 12.79952 3.496158 12.78125 3.46875 C 12.75674 3.431978 12.71402 3.410355 12.6875 3.375 C 12.6813 3.36667 12.6875 3.354167 12.6875 3.34375 C 12.67708 3.322917 12.6708 3.299438 12.65625 3.28125 C 12.60103 3.2122301 12.540675 3.1451246 12.46875 3.09375 C 12.43084 3.066673 12.38013 3.060351 12.34375 3.03125 C 12.32556 3.016699 12.33069 2.983301 12.3125 2.96875 C 12 2.7187502 12.3125 3.0156249 12.125 2.875 C 12.10143 2.8573223 12.087014 2.828843 12.0625 2.8125 C 12.008207 2.7763048 11.898043 2.7549452 11.84375 2.71875 C 11.806978 2.6942355 11.786772 2.6495145 11.75 2.625 C 11.722592 2.606728 11.685713 2.6084814 11.65625 2.59375 C 11.532978 2.5321142 11.411933 2.486506 11.28125 2.4375 C 11.094582 2.3675001 10.911655 2.2357264 10.71875 2.1875 C 10.472841 2.1260231 10.966027 2.3192913 10.53125 2.15625 C 10.48763 2.139893 10.45144 2.105049 10.40625 2.09375 C 10.36583 2.083644 10.32235 2.1006 10.28125 2.09375 C 10.121414 2.067111 9.9308933 1.8936311 9.78125 1.84375 C 9.751604 1.83387 9.716057 1.856442 9.6875 1.84375 C 9.640678 1.82294 9.4514996 1.6753749 9.375 1.65625 C 9.344683 1.64867 9.309201 1.670225 9.28125 1.65625 C 9.262722 1.64699 9.168863 1.5375161 9.125 1.53125 C 9.0631281 1.52241 8.9981338 1.546409 8.9375 1.53125 C 8.908917 1.5241 8.901352 1.481926 8.875 1.46875 C 8.85 1.45625 8.80625 1.48125 8.78125 1.46875 C 8.7680738 1.4621619 8.7639754 1.4421585 8.75 1.4375 C 8.7224544 1.4283181 8.6690463 1.4246094 8.6035156 1.4238281 z M 8.9453125 2.4824219 C 9.2245444 2.483846 9.5008624 2.4967675 9.625 2.53125 C 9.7238499 2.558708 9.8071218 2.629816 9.90625 2.65625 C 9.9828309 2.676671 10.196739 2.645245 10.28125 2.6875 C 10.40109 2.7474199 10.514076 2.866912 10.625 2.9375 C 10.943978 3.1404855 10.68938 2.9118022 10.96875 3.15625 C 11.03527 3.2144539 11.082706 3.294721 11.15625 3.34375 C 11.19525 3.369752 11.447997 3.4965812 11.5 3.53125 C 11.629432 3.6175379 11.762893 3.7198112 11.90625 3.78125 C 11.94573 3.798168 11.99735 3.78613 12.03125 3.8125 C 12.09547 3.862448 12.12997 3.9424722 12.1875 4 C 12.27073 4.0832279 12.405419 4.1444493 12.46875 4.25 C 12.51454 4.3263169 12.52945 4.4173656 12.5625 4.5 C 12.58333 4.5520829 12.60417 4.6041668 12.625 4.65625 C 12.64583 4.6875 12.67271 4.715479 12.6875 4.75 C 12.71737 4.8197029 12.72013 4.8990472 12.75 4.96875 C 12.80316 5.0927775 12.851358 5.2202427 12.90625 5.34375 C 12.94981 5.4417529 13.020254 5.5264253 13.0625 5.625 C 13.0707 5.644149 13.0559 5.667736 13.0625 5.6875 C 13.10121 5.8036254 13.1425 5.8324955 13.1875 5.9375 C 13.21737 6.0072029 13.22184 6.0858395 13.25 6.15625 C 13.27946 6.2299069 13.32591 6.2977007 13.34375 6.375 C 13.37186 6.4967988 13.34375 6.6250001 13.34375 6.75 C 13.34375 6.8790896 13.36199 7.0285957 13.34375 7.15625 C 13.32568 7.2827752 13.25321 7.3793743 13.21875 7.5 C 13.18672 7.6121019 13.18358 7.7344262 13.15625 7.84375 C 13.026195 8.3639695 13.16055 7.7683064 13.03125 8.15625 C 12.9676 8.3471906 12.9395 8.5817643 12.90625 8.78125 C 12.8819 8.9273489 12.89675 9.0730541 12.84375 9.21875 C 12.81987 9.2844199 12.77008 9.3393199 12.75 9.40625 C 12.73803 9.446159 12.75 9.489583 12.75 9.53125 C 12.73958 9.5937499 12.73738 9.6581899 12.71875 9.71875 C 12.68864 9.8166019 12.615436 10.019128 12.5625 10.125 C 12.47184 10.30633 12.51968 10.124604 12.4375 10.34375 C 12.37886 10.500133 12.326357 10.677992 12.21875 10.8125 C 12.095203 10.966934 11.984747 11.140253 11.84375 11.28125 C 11.7538 11.3712 11.469109 11.46857 11.34375 11.53125 C 11.050701 11.677775 10.755879 11.849268 10.5 12.0625 C 10.41929 12.12976 10.332803 12.187898 10.25 12.25 C 10.17054 12.30959 10.117072 12.419709 10.03125 12.46875 C 9.982546 12.49658 9.9206467 12.49864 9.875 12.53125 C 9.7982191 12.58609 9.7913719 12.658231 9.71875 12.71875 C 9.682963 12.74857 9.631658 12.75417 9.59375 12.78125 C 9.557788 12.80694 9.536772 12.85049 9.5 12.875 C 9.472592 12.89327 9.434496 12.8893 9.40625 12.90625 C 9.3268921 12.95387 9.2662084 13.046525 9.1875 13.09375 C 9.1177611 13.13559 8.9180794 13.228763 8.84375 13.25 C 8.813702 13.2586 8.777951 13.23602 8.75 13.25 C 8.5039358 13.373032 8.8176337 13.33409 8.53125 13.375 C 8.4597921 13.38521 8.3839582 13.36479 8.3125 13.375 C 8.279891 13.3797 8.251242 13.40084 8.21875 13.40625 C 8.1375351 13.41979 8.0178259 13.40625 7.9375 13.40625 C 7.8213755 13.40625 7.6760187 13.43148 7.5625 13.40625 C 7.2039471 13.32657 6.8879141 13.193957 6.5625 13.03125 C 6.4861491 12.99307 6.3541111 12.96454 6.28125 12.90625 C 6.1647519 12.81305 6.0637439 12.676493 5.96875 12.5625 C 5.935407 12.52249 5.915012 12.47084 5.875 12.4375 C 5.849695 12.41641 5.80985 12.42259 5.78125 12.40625 C 5.73204 12.37813 5.4037831 12.180921 5.375 12.15625 C 5.335455 12.12236 5.322362 12.06323 5.28125 12.03125 C 5.2260921 11.98835 5.1483148 11.98115 5.09375 11.9375 C 5.0416671 11.89583 5.015913 11.828413 4.96875 11.78125 C 4.8785583 11.691058 4.7253254 11.571661 4.625 11.5 C 4.5755746 11.464696 4.5148665 11.445778 4.46875 11.40625 C 4.440234 11.381808 4.4302939 11.341353 4.40625 11.3125 C 4.306004 11.192205 4.2525067 11.190007 4.125 11.0625 C 4.0395226 10.977022 3.9485817 10.831635 3.90625 10.71875 C 3.8911696 10.678536 3.8924432 10.632997 3.875 10.59375 C 3.8503315 10.538246 3.8125 10.489583 3.78125 10.4375 C 3.75 10.375 3.7143758 10.314502 3.6875 10.25 C 3.6049291 10.05183 3.5680197 9.8290592 3.5 9.625 C 3.4799749 9.5649248 3.4675951 9.4664401 3.4375 9.40625 C 3.306975 9.1452002 3.1535992 8.8900898 3.03125 8.625 C 2.9250305 8.3948578 2.9275889 8.1204152 2.875 7.875 C 2.7719325 7.3940182 2.5400584 6.4359289 2.625 5.96875 C 2.6350347 5.9135594 2.6713811 5.8662296 2.6875 5.8125 C 2.702762 5.7616251 2.701954 5.706639 2.71875 5.65625 C 2.740847 5.5899591 2.795552 5.5365407 2.8125 5.46875 C 2.827868 5.4072801 2.826343 5.3421741 2.84375 5.28125 C 2.859938 5.2245921 2.942398 5.2089549 2.96875 5.15625 C 2.982725 5.128299 2.951416 5.088502 2.96875 5.0625 C 2.997641 5.019164 3.059148 5.007678 3.09375 4.96875 C 3.1642319 4.8894581 3.2313157 4.7374343 3.3125 4.65625 C 3.349328 4.619421 3.400672 4.599329 3.4375 4.5625 C 3.5008619 4.4991381 3.5347431 4.4111865 3.59375 4.34375 C 3.632553 4.299404 3.680402 4.26349 3.71875 4.21875 C 3.767635 4.1617181 3.7906351 4.0843647 3.84375 4.03125 C 3.85112 4.02388 3.866667 4.0375 3.875 4.03125 C 3.910355 4.004734 3.932788 3.963187 3.96875 3.9375 C 4.0461179 3.8822371 4.2928493 3.7516103 4.375 3.71875 C 4.80467 3.546882 5.3621327 3.7205899 5.8125 3.65625 C 5.9794393 3.632401 6.1326507 3.5324354 6.28125 3.46875 C 6.320726 3.451831 6.36896 3.45881 6.40625 3.4375 C 6.4574119 3.408265 6.4785451 3.338852 6.53125 3.3125 C 6.560713 3.297769 6.595537 3.295981 6.625 3.28125 C 6.671585 3.257958 6.6994721 3.200132 6.75 3.1875 C 6.780317 3.17992 6.813107 3.19363 6.84375 3.1875 C 6.9264251 3.170965 7.1595798 3.0230021 7.25 2.96875 C 7.3844498 2.8880801 7.5601039 2.8661807 7.6875 2.78125 C 7.7120145 2.764907 7.7236477 2.7319262 7.75 2.71875 C 7.7705938 2.7084531 7.8649626 2.6958645 7.875 2.6875 C 7.9262396 2.6448002 7.9583333 2.5833332 8 2.53125 C 8.0833332 2.5208333 8.1662042 2.5055864 8.25 2.5 C 8.3839336 2.491071 8.6660806 2.4809978 8.9453125 2.4824219 z "
       inkscape:label="innerRing" />
    <path
       id="path12"
       style="fill:#317527;fill-opacity:1;stroke:none;stroke-width:1;stroke-dasharray:none;stroke-opacity:1;paint-order:markers fill stroke"
       d="M 4.9179688,4.953125 C 4.2997522,5.3690883 4.0182948,6.0964795 4.015625,6.6132812 4.0070395,8.2746028 7.5426855,12.108809 8.0332031,12.632812 8.2198984,12.433668 8.8468961,11.754919 9.5527344,10.900391 8.5054046,10.743943 7.6268953,11.568583 5.546875,8.28125 4.9129378,7.2793547 4.9562277,6.1028113 4.9179688,4.953125 Z"
       sodipodi:nodetypes="ccccsc" />
    <path
       style="fill:#122b0e;fill-opacity:1;stroke:none;stroke-width:1;stroke-dasharray:none;stroke-opacity:1;paint-order:markers fill stroke"
       d="m 7.015625,6.984375 c 0,0 1.7489394,0.024696 2.453125,0.46875 0.579795,0.3656136 1.21875,1.65625 1.21875,1.65625 0,0 -0.9669061,-1.0326053 -1.546875,-1.359375 -0.6682694,-0.3765206 -2.125,-0.765625 -2.125,-0.765625 z"
       id="path14"
       sodipodi:nodetypes="cscsc" />
    <path
       style="fill:#122b0e;fill-opacity:1;stroke:none;stroke-width:1;stroke-dasharray:none;stroke-opacity:1;paint-order:markers fill stroke"
       d="m 8.5625,7.390625 2.5e-6,1.6328126 c 0,0 -0.4255571,0.8396936 -0.359375,1.1484374 0.066182,0.308744 0.3000971,0.483602 0.546875,0.46875 0.2467779,-0.01485 0.4556928,-0.18744 0.5078125,-0.503906 C 9.309935,9.8202525 8.9101588,9.0351563 8.9101588,9.0351563 L 8.92969,7.4257812 Z"
       id="path15"
       sodipodi:nodetypes="cczzzccc" />
    <path
       style="fill:#5fa953;fill-opacity:1;stroke:none;stroke-width:1;stroke-dasharray:none;stroke-opacity:1;paint-order:markers fill stroke"
       d="m 8.9765626,9.6640626 c 0.1042762,-0.033419 0.1471443,0.1699029 0.1757812,0.2656249 0.028637,0.095724 0.032859,0.2209365 -0.054687,0.2539065 -0.087547,0.03297 -0.094594,-0.111244 -0.1328125,-0.2070318 -0.038219,-0.095793 -0.092558,-0.2790808 0.011718,-0.3124996 z"
       id="path16"
       sodipodi:nodetypes="zzzzz" />
  </g>
</svg>
