<?xml version="1.0" encoding="UTF-8" standalone="no"?>
<!-- Created with Inkscape (http://www.inkscape.org/) -->

<svg
   width="16"
   height="16"
   viewBox="0 0 16 16"
   version="1.1"
   id="svg1"
   inkscape:version="1.3.2 (091e20e, 2023-11-25, custom)"
   sodipodi:docname="mat_campfire.svg"
   xmlns:inkscape="http://www.inkscape.org/namespaces/inkscape"
   xmlns:sodipodi="http://sodipodi.sourceforge.net/DTD/sodipodi-0.dtd"
   xmlns="http://www.w3.org/2000/svg"
   xmlns:svg="http://www.w3.org/2000/svg">
  <sodipodi:namedview
     id="namedview1"
     pagecolor="#ffffff"
     bordercolor="#000000"
     borderopacity="0.25"
     inkscape:showpageshadow="2"
     inkscape:pageopacity="0.0"
     inkscape:pagecheckerboard="0"
     inkscape:deskcolor="#d1d1d1"
     inkscape:document-units="px"
     showgrid="true"
     inkscape:zoom="34.338873"
     inkscape:cx="9.3188847"
     inkscape:cy="8.2559494"
     inkscape:window-width="1920"
     inkscape:window-height="991"
     inkscape:window-x="-9"
     inkscape:window-y="-9"
     inkscape:window-maximized="1"
     inkscape:current-layer="layer1">
    <inkscape:grid
       id="grid1"
       units="px"
       originx="0"
       originy="0"
       spacingx="2"
       spacingy="2"
       empcolor="#0099e5"
       empopacity="0.30196078"
       color="#0099e5"
       opacity="0.14901961"
       empspacing="4"
       dotted="false"
       gridanglex="30"
       gridanglez="30"
       visible="true" />
  </sodipodi:namedview>
  <defs
     id="defs1" />
  <g
     inkscape:label="Warstwa 1"
     inkscape:groupmode="layer"
     id="layer1">
    <rect
       style="fill:#cccccc;fill-opacity:1;paint-order:markers fill stroke"
       id="rect1"
       width="16.329472"
       height="16.267696"
       x="-0.1029601"
       y="-0.082368083" />
    <path
       style="fill:#000000;fill-opacity:1;paint-order:markers fill stroke"
       d="m 7.0424711,10.769627 -3.4388675,1.688546 c -0.1578263,0.303396 -0.1811404,0.628315 0.1441442,1.009009 l 3.6036036,-2.203346 -1.8738739,2.841699 c 0.1849735,0.421637 0.4380285,0.696362 0.988417,0.329472 l 1.5032175,-2.965251 0.6589446,3.047619 c 0.3250926,0.278681 0.6401647,0.346934 0.926641,-0.185328 l -0.926641,-3.047619 2.9446584,1.606177 c 0.354934,-0.08436 0.602067,-0.276525 0.494209,-0.82368 L 8.8545689,10.769627 7.969112,10.419563 Z"
       id="path1"
       sodipodi:nodetypes="ccccccccccccccc" />
    <path
       style="fill:#ffffff;fill-opacity:1;paint-order:markers fill stroke"
       d="M 6.8872383,11.677728 C 6.6434754,11.559621 6.378427,11.26347 6.2320042,11.007933 6.0855814,10.752396 6.0300249,10.502182 6.0135928,10.207091 5.9971607,9.9120004 6.1592004,9.2752025 6.1592004,9.2752025 c 0,0 -0.00829,0.3011348 0.058243,0.4950657 0.066528,0.1939309 0.1644851,0.3795808 0.3785797,0.6261128 C 6.5424217,10.056041 6.4512775,9.7683166 6.4887983,9.466865 6.5263191,9.1654134 6.5935312,9.2512151 6.5889571,9.0438714 6.584383,8.8365277 6.4426177,8.5096911 6.4426177,8.5096911 c 0,0 0.3374112,0.2807253 0.3956388,0.4982957 0.058228,0.2175704 0.063821,0.2287024 0.096197,0.494031 C 6.9668296,9.7673464 7.1064612,9.6192576 7.207575,10.046923 7.2778007,9.7023876 7.5194924,9.5361926 7.5740922,9.2041652 7.628692,8.8721378 7.0507768,8.5542927 7.0457656,8.1763827 7.0407544,7.7984727 7.5337731,7.6340119 7.6521955,7.3179042 7.7706179,7.0017965 7.5664199,6.7450382 7.5664199,6.7450382 c 0,0 0.3629496,0.3668627 0.2956574,0.689352 C 7.7947851,7.7568795 7.4322947,7.7682287 7.484658,8.1213696 7.5370213,8.4745105 8.0753088,8.8221771 8.0872516,9.1253302 8.0991944,9.4284833 7.8941891,9.5549916 7.8482483,9.9158758 7.9979317,9.5663355 8.1275181,9.6269475 8.2122672,9.3916885 8.2970163,9.1564295 8.3276051,8.7868497 8.285071,8.5326039 8.2425369,8.2783581 8.0084166,7.9064913 8.0084166,7.9064913 c 0,0 0.4506401,0.2460375 0.5678695,0.4659442 0.1172294,0.2199067 0.092767,0.5058018 0.072804,0.7571594 -0.019963,0.2513576 -0.049667,0.4910546 -0.18929,0.7280379 0.2001454,-0.2057451 0.3390735,-0.033657 0.4513835,-0.2038506 0.11231,-0.1701939 -0.050179,-0.4926018 0.014561,-0.7280379 0.06474,-0.2354361 0.364019,-0.6406733 0.364019,-0.6406733 0,0 -0.1376537,0.52927 -0.1310469,0.7862809 0.00661,0.2570109 0.1744862,0.4860271 0.1601684,0.7280379 -0.014318,0.2420112 -0.144775,0.4049792 -0.2329721,0.6697952 0.2309792,-0.15732 0.3376895,-0.08778 0.5096265,-0.247533 C 9.7674762,10.061898 9.9569437,9.740663 10.017801,9.4936138 10.078661,9.2465646 9.98868,8.8092582 9.98868,8.8092582 c 0,0 0.212995,0.5800462 0.20385,0.8590847 -0.0091,0.2790385 -0.09164,0.5358031 -0.2329715,0.7571591 -0.1413333,0.221356 -0.456073,0.347046 -0.5824303,0.524188 -0.1263573,0.177142 -0.069723,0.352697 -0.2038506,0.480505 -0.1341275,0.127808 -0.3719516,0.218623 -0.5533088,0.20385 -0.1813572,-0.01477 -0.2345387,-0.249693 -0.4368227,-0.247532 -0.202284,0.0022 -0.3836286,0.314135 -0.6115518,0.364018 -0.2279232,0.04988 -0.4405927,0.0453 -0.6843556,-0.0728 z"
       id="path2"
       sodipodi:nodetypes="zzzczczzczzczzzczzzczzczzczzczzczzczzzzzzzzz" />
    <path
       style="fill:#dbdbdb;fill-opacity:1;paint-order:markers fill stroke"
       d="m 7.6602317,10.491634 -1.0398971,0.473617 0.2368083,0.133848 -0.061776,0.185328 0.7104247,-0.36036 -0.3397683,0.628057 0.1750321,-0.02059 0.3397684,-0.442729 0.041184,0.247104 0.2265123,-0.288288 0.2985843,0.195624 -0.041184,-0.36036 0.4736165,0.236808 -0.082368,-0.288288 0.3500644,-0.0103 -0.8133849,-0.360361 -0.1544401,0.195625 z"
       id="path3" />
  </g>
</svg>
