<?xml version="1.0" encoding="UTF-8" standalone="no"?>
<!-- Created with Inkscape (http://www.inkscape.org/) -->

<svg
   width="16"
   height="16"
   viewBox="0 0 16 16"
   version="1.1"
   id="svg1"
   inkscape:version="1.3.2 (091e20e, 2023-11-25, custom)"
   sodipodi:docname="mat_signal.svg"
   xmlns:inkscape="http://www.inkscape.org/namespaces/inkscape"
   xmlns:sodipodi="http://sodipodi.sourceforge.net/DTD/sodipodi-0.dtd"
   xmlns="http://www.w3.org/2000/svg"
   xmlns:svg="http://www.w3.org/2000/svg">
  <sodipodi:namedview
     id="namedview1"
     pagecolor="#ffffff"
     bordercolor="#000000"
     borderopacity="0.25"
     inkscape:showpageshadow="2"
     inkscape:pageopacity="0.0"
     inkscape:pagecheckerboard="0"
     inkscape:deskcolor="#d1d1d1"
     inkscape:document-units="px"
     showgrid="true"
     inkscape:zoom="48.5625"
     inkscape:cx="8.2574003"
     inkscape:cy="6.5585586"
     inkscape:window-width="1920"
     inkscape:window-height="991"
     inkscape:window-x="-9"
     inkscape:window-y="-9"
     inkscape:window-maximized="1"
     inkscape:current-layer="layer1">
    <inkscape:grid
       id="grid1"
       units="px"
       originx="0"
       originy="0"
       spacingx="2"
       spacingy="2"
       empcolor="#0099e5"
       empopacity="0.30196078"
       color="#0099e5"
       opacity="0.14901961"
       empspacing="4"
       dotted="false"
       gridanglex="30"
       gridanglez="30"
       visible="true" />
  </sodipodi:namedview>
  <defs
     id="defs1" />
  <g
     inkscape:label="Warstwa 1"
     inkscape:groupmode="layer"
     id="layer1">
    <rect
       style="fill:#cccccc;fill-opacity:1;paint-order:markers fill stroke"
       id="rect1"
       width="16.329472"
       height="16.267696"
       x="-2.2601128e-09"
       y="-3.2982064e-09" />
    <path
       id="path1"
       style="fill:#000000;paint-order:markers fill stroke;fill-opacity:1"
       d="M 7.7636719 2.65625 L 7.5683594 2.9980469 L 7.3300781 2.7597656 L 7.3007812 2.9042969 L 7.1660156 2.7597656 L 7.2460938 3.1855469 L 7.1816406 3.5117188 L 6.8574219 3.7480469 L 2.4296875 13.734375 L 2.9238281 15.216797 L 4.4882812 14.332031 L 5.8300781 10.816406 L 5.1894531 14.599609 L 5.828125 15.773438 L 6.8769531 14.804688 L 7.546875 9.2792969 L 8.0917969 14.763672 L 9.328125 15.814453 L 10.152344 14.580078 L 9.3964844 9.6992188 L 11.222656 14.476562 L 13.076172 15.011719 L 13.632812 13.447266 L 8.8964844 4.6132812 L 8.5527344 4.2441406 L 8.5039062 3.9335938 L 8.1386719 3.5683594 L 8.1542969 2.8007812 L 7.8515625 3.0214844 L 7.7636719 2.65625 z " />
    <path
       id="path9"
       style="fill:#404040;paint-order:markers fill stroke;fill-opacity:1"
       d="M 3.6542969 13.417969 L 3.0644531 13.962891 L 2.8691406 13.505859 L 2.6503906 13.759766 L 2.6855469 13.455078 L 2.4335938 13.724609 L 2.4296875 13.734375 L 2.9238281 15.216797 L 4.484375 14.333984 L 4.3164062 13.890625 L 3.7714844 14.197266 L 3.6542969 13.417969 z " />
    <path
       id="path5"
       style="fill:#404040;fill-opacity:1;paint-order:markers fill stroke"
       d="M 12.785156 13.300781 L 12.587891 13.90625 L 11.728516 13.679688 L 11.480469 14.291016 L 11.226562 14.476562 L 13.076172 15.011719 L 13.632812 13.447266 L 13.625 13.433594 L 12.785156 13.300781 z " />
    <path
       id="path6"
       style="fill:#404040;fill-opacity:1;paint-order:markers fill stroke"
       d="M 8.7792969 14.189453 L 8.3945312 14.568359 L 8.2050781 14.248047 L 8.0976562 14.769531 L 9.328125 15.814453 L 10.152344 14.580078 L 10.152344 14.574219 L 9.8066406 14.240234 L 9.203125 14.699219 L 8.7792969 14.189453 z " />
    <path
       id="path7"
       style="fill:#404040;fill-opacity:1;paint-order:markers fill stroke"
       d="M 5.4902344 14.197266 L 5.1914062 14.59375 L 5.1894531 14.599609 L 5.828125 15.773438 L 6.8769531 14.804688 L 6.8769531 14.800781 L 6.6035156 14.496094 L 6.2324219 14.830078 L 6.0351562 14.328125 L 5.5839844 14.603516 L 5.4902344 14.197266 z " />
    <path
       style="fill:#ffffff;fill-opacity:1;paint-order:markers fill stroke"
       d="M 3.5624196,11.634492 C 3.1931671,11.591598 2.8218231,11.208112 2.5328185,10.810811 2.2438139,10.41351 1.992633,9.7178734 1.956242,9.2870013 1.919851,8.8561292 2.1415701,8.3397683 2.1415701,8.3397683 c 0,0 0.3059241,0.8505615 0.5765766,1.0501931 C 2.9887992,9.589593 3.2455954,9.9437935 3.5212355,9.5546976 3.7968756,9.1656017 2.6304459,8.4338943 2.4710425,7.8043758 2.3116391,7.1748573 2.3966378,6.5549007 2.5534106,5.951094 2.7101834,5.3472873 3.3976834,4.2625483 3.3976834,4.2625483 c 0,0 -0.1333692,1.4301313 0.082368,1.9768339 0.2157373,0.5467026 0.4570639,1.3848722 1.009009,1.1737452 C 5.0410055,7.2020004 4.2917573,6.0527045 4.2831402,5.3333333 4.2745231,4.6139622 4.5549944,3.9600498 4.7979408,3.4594595 5.0408872,2.9588692 5.7657658,2.3886744 5.7657658,2.3886744 c 0,0 -0.4993741,1.3818385 -0.3088803,1.6885457 0.1904938,0.3067072 0.079315,0.3150872 0.4324324,0.1235521 C 6.2424351,4.0092371 6.1427165,2.8536827 6.4658945,2.3268983 6.7890725,1.8001139 7.5365862,1.5100986 7.7220077,1.1119691 7.9074292,0.71383955 7.7837838,0.22651223 7.7837838,0.22651223 c 0,0 0.8337236,0.83037577 0.988417,1.31788927 C 8.9268942,2.031915 8.6206836,2.377183 8.7310167,2.965251 8.8413498,3.553319 9.0442672,4.4637577 9.5546976,4.5714286 10.356291,4.3084002 10.346771,3.9471702 10.29601,3.4182755 10.245249,2.8893807 9.7812098,2.03861 9.7812098,2.03861 c 0,0 1.0879892,0.926989 1.2972972,1.3796655 0.209308,0.4526765 0.156456,1.099257 0.08237,1.6061775 -0.07409,0.5069205 -0.756204,0.6333463 -0.782497,1.0707851 -0.02629,0.4374388 -0.04053,0.8408006 0.267697,0.967825 0.308231,0.1270244 0.699009,-0.2471604 0.864865,-0.4942085 0.165856,-0.2470481 0.288288,-0.6383527 0.288288,-0.6383527 0,0 0.09588,0.7468778 0.10296,1.1325612 0.0071,0.3856834 -0.07999,0.6802201 -0.185328,0.988417 C 11.611518,8.359677 11.503787,8.7328907 11.284427,8.8957529 11.065067,9.0586151 10.983872,9.1287124 10.604891,9.019305 10.22591,8.9098976 9.3693694,7.8867439 9.3693694,7.8867439 c 0,0 -0.2582356,1.0091949 -0.3912484,1.2767053 -0.1330128,0.2675104 -0.2676963,0.3706563 -0.2676963,0.3706563 0,0 -0.4945305,-0.1096289 -0.7413127,-0.4530244 C 7.7223298,8.7376856 7.5984556,7.4543115 7.5984556,7.4543115 c 0,0 -0.4849642,1.1320217 -0.6795367,1.6267696 -0.1945725,0.4947479 -0.4942085,1.3384809 -0.4942085,1.3384809 0,0 -0.1535702,-0.8027537 -0.2059202,-1.2355208 -0.05235,-0.4327671 -0.1029601,-1.3590734 -0.1029601,-1.3590734 0,0 -0.8272242,1.1958006 -1.1119691,1.7709138 C 4.7191161,10.170995 4.6873048,10.915389 4.3861004,11.243243 4.084896,11.571097 3.9316721,11.677386 3.5624196,11.634492 Z"
       id="path10"
       sodipodi:nodetypes="zzzczzzzczzzzczzzzczzzzczzzzzczzzzczczczczczzz" />
    <path
       style="fill:#e4e4e4;fill-opacity:1;paint-order:markers fill stroke"
       d="M 4.4890605,9.2252252 6.2599743,5.1480051 6.4658945,6.033462 7.1454311,4.7155727 7.5160875,5.4157014 7.6602317,3.953668 8.3191763,4.8597169 8.3809524,4.3037323 10.048906,7.2072072 9.2870013,6.7747748 8.4839125,5.4774775 8.5456885,7.7837838 8.030888,7.2689833 7.7220077,5.6216216 7.4337194,6.3629344 7.1866152,5.9099099 6.7747748,8.3603604 6.6718147,6.5276705 6.3011583,7.001287 6.1364221,6.3011583 4.9214929,9.1016731 Z"
       id="path11" />
  </g>
</svg>
