<?xml version="1.0" encoding="UTF-8" standalone="no"?>
<!-- Created with Inkscape (http://www.inkscape.org/) -->

<svg
   width="16"
   height="16"
   viewBox="0 0 16 16"
   version="1.1"
   id="svg1"
   inkscape:version="1.3.2 (091e20e, 2023-11-25, custom)"
   sodipodi:docname="somethinginthewater.svg"
   xmlns:inkscape="http://www.inkscape.org/namespaces/inkscape"
   xmlns:sodipodi="http://sodipodi.sourceforge.net/DTD/sodipodi-0.dtd"
   xmlns="http://www.w3.org/2000/svg"
   xmlns:svg="http://www.w3.org/2000/svg">
  <sodipodi:namedview
     id="namedview1"
     pagecolor="#ffffff"
     bordercolor="#000000"
     borderopacity="0.25"
     inkscape:showpageshadow="2"
     inkscape:pageopacity="0.0"
     inkscape:pagecheckerboard="0"
     inkscape:deskcolor="#d1d1d1"
     inkscape:document-units="px"
     showgrid="true"
     inkscape:zoom="34.338873"
     inkscape:cx="0.9901315"
     inkscape:cy="8.1103419"
     inkscape:window-width="1920"
     inkscape:window-height="991"
     inkscape:window-x="-9"
     inkscape:window-y="-9"
     inkscape:window-maximized="1"
     inkscape:current-layer="layer1">
    <inkscape:grid
       id="grid1"
       units="px"
       originx="0"
       originy="0"
       spacingx="2"
       spacingy="2"
       empcolor="#0099e5"
       empopacity="0.30196078"
       color="#0099e5"
       opacity="0.14901961"
       empspacing="4"
       dotted="false"
       gridanglex="30"
       gridanglez="30"
       visible="true" />
  </sodipodi:namedview>
  <defs
     id="defs1">
    <filter
       inkscape:label="Pointillism"
       style="color-interpolation-filters:sRGB"
       inkscape:menu-tooltip="Gives a turbulent pointillist HSL sensitive transparency"
       inkscape:menu="Scatter"
       height="1"
       width="1"
       y="0"
       x="0"
       id="filter53">
      <feTurbulence
         seed="50"
         type="fractalNoise"
         baseFrequency="1"
         numOctaves="3"
         result="result1"
         id="feTurbulence49" />
      <feColorMatrix
         type="luminanceToAlpha"
         in="SourceGraphic"
         result="result0"
         id="feColorMatrix49" />
      <feColorMatrix
         result="result2"
         values="1 0 0 0 0 0 1 0 0 0 0 0 1 0 0 0 0 0 0.5 0 "
         id="feColorMatrix50" />
      <feComposite
         result="result3"
         operator="over"
         in="result1"
         in2="result2"
         id="feComposite50" />
      <feColorMatrix
         result="result91"
         values="1 0 0 0 0 0 1 0 0 0 0 0 1 0 0 0 0 0 5 -3.2"
         id="feColorMatrix51" />
      <feComposite
         in2="result91"
         operator="arithmetic"
         k1="1.5"
         result="result93"
         id="feComposite51"
         k2="0"
         k3="0"
         k4="0" />
      <feComposite
         in2="result93"
         in="SourceGraphic"
         operator="out"
         result="result4"
         id="feComposite52" />
      <feComposite
         in2="result4"
         operator="arithmetic"
         k2="0.5"
         k1="1"
         id="feComposite53"
         k3="0"
         k4="0" />
      <feDisplacementMap
         scale="15"
         xChannelSelector="R"
         yChannelSelector="A"
         in2="result1"
         result="result92"
         id="feDisplacementMap53" />
    </filter>
    <filter
       inkscape:label="Pointillism"
       style="color-interpolation-filters:sRGB;"
       inkscape:menu-tooltip="Gives a turbulent pointillist HSL sensitive transparency"
       inkscape:menu="Scatter"
       height="1"
       width="1"
       y="0"
       x="0"
       id="filter57">
      <feTurbulence
         seed="50"
         type="fractalNoise"
         baseFrequency="1"
         numOctaves="3"
         result="result1"
         id="feTurbulence53" />
      <feColorMatrix
         type="luminanceToAlpha"
         in="SourceGraphic"
         result="result0"
         id="feColorMatrix53" />
      <feColorMatrix
         result="result2"
         values="1 0 0 0 0 0 1 0 0 0 0 0 1 0 0 0 0 0 0.5 0 "
         id="feColorMatrix54" />
      <feComposite
         result="result3"
         operator="over"
         in="result1"
         in2="result2"
         id="feComposite54" />
      <feColorMatrix
         result="result91"
         values="1 0 0 0 0 0 1 0 0 0 0 0 1 0 0 0 0 0 5 -3.2"
         id="feColorMatrix55" />
      <feComposite
         in2="result91"
         operator="arithmetic"
         k1="1.5"
         result="result93"
         id="feComposite55" />
      <feComposite
         in2="result93"
         in="SourceGraphic"
         operator="out"
         result="result4"
         id="feComposite56" />
      <feComposite
         in2="result4"
         operator="arithmetic"
         k2="0.5"
         k1="1"
         id="feComposite57" />
      <feDisplacementMap
         scale="15"
         xChannelSelector="R"
         yChannelSelector="A"
         in2="result1"
         result="result92"
         id="feDisplacementMap57" />
    </filter>
  </defs>
  <g
     inkscape:label="Warstwa 1"
     inkscape:groupmode="layer"
     id="layer1">
    <rect
       style="fill:#660080;stroke:none;stroke-width:0.05;paint-order:markers fill stroke"
       id="rect1"
       width="16.391249"
       height="16.350065"
       x="-0.16473617"
       y="-0.12355212" />
    <path
       style="fill:#440055;stroke:none;stroke-width:0.05;paint-order:markers fill stroke;fill-opacity:1"
       d="M -1.5444015,7.5984556 H 16.658945 V 16.514801 H -1.7091377 Z"
       id="path1" />
    <path
       style="fill:#290033;fill-opacity:1;stroke:none;stroke-width:0.05;paint-order:markers fill stroke"
       d="M 1.3590734,12.787645 C 1.071845,12.479328 0.98094268,12.153364 1.029601,11.696268 1.0782593,11.239172 2.015499,9.7865339 2.8610418,9.5072679 3.7065846,9.2280019 4.1486085,8.9298071 5.2451115,9.7289977 c 1.096503,0.7991903 1.2822347,1.3836343 2.0238718,1.7201653 0.7416371,0.336531 1.7404839,0.168612 2.6975547,0 0.957071,-0.168612 2.065558,-0.984302 2.944659,-1.070785 0.879101,-0.08648 2.13429,0.111062 2.13429,0.111062 0,0 -1.401562,0.568499 -1.969554,0.836171 -0.567992,0.267672 -0.758299,0.617544 -1.420849,0.926641 -0.66255,0.309097 -1.7055388,0.714326 -2.5740029,0.782497 C 8.212617,13.10292 7.3159327,12.872044 6.5688546,12.684685 5.8217765,12.497326 4.7549366,11.82862 4.1248272,12.08773 3.4947178,12.346841 3.0970551,13.104396 2.6563707,13.281853 2.2156863,13.45931 1.6463018,13.095962 1.3590734,12.787645 Z"
       id="path2"
       sodipodi:nodetypes="zzzzzzzczzzzzzz" />
    <path
       style="opacity:1;fill:#290033;fill-opacity:1;stroke:none;stroke-width:0.05;paint-order:markers fill stroke"
       d="M 6.2756865,10.163409 C 6.0947399,9.0562175 7.2733832,8.7601837 8.4015571,8.8092582 c 1.1281739,0.049074 2.8539079,0.8445239 2.8539079,0.8445239 0,0 -2.4861943,1.5956669 -3.4363383,1.6016829 -0.7026111,-0.02311 -0.7655021,-0.46537 -1.5434402,-1.092056 z"
       id="path64"
       sodipodi:nodetypes="czccc" />
    <path
       style="opacity:1;fill:#290033;fill-opacity:1;stroke:none;stroke-width:0.05;paint-order:markers fill stroke"
       d="M 3.9241241,12.660579 C 3.8627863,11.824973 5.3124729,12.466206 5.6058915,12.558654 5.3168799,12.760308 3.9854619,13.496186 3.9241241,12.660579 Z"
       id="path65"
       sodipodi:nodetypes="zcz" />
    <g
       id="g69">
      <path
         style="opacity:1;fill:#440055;fill-opacity:1;stroke:none;stroke-width:0.05;paint-order:markers fill stroke"
         d="m 5.4948307,7.9548669 c 0,0 -2.9671081,1.3909088 -3.2524741,3.0239441 -0.285366,1.633035 4.2506328,4.551486 4.2506328,4.551486 0,0 -3.9072827,-3.33436 -3.7021214,-4.594133 C 2.9960293,9.676391 5.4948307,7.9548669 5.4948307,7.9548669 Z"
         id="path66"
         sodipodi:nodetypes="czczc" />
      <path
         style="opacity:1;fill:#440055;fill-opacity:1;stroke:none;stroke-width:0.05;paint-order:markers fill stroke"
         d="m 8.2031316,8.3916896 c 0,0 -2.9671081,1.3909088 -3.2524741,3.0239444 -0.285366,1.633035 4.2506328,4.551486 4.2506328,4.551486 0,0 -3.9072827,-3.33436 -3.7021214,-4.594133 0.2051613,-1.259773 2.7039627,-2.9812974 2.7039627,-2.9812974 z"
         id="path67"
         sodipodi:nodetypes="czczc" />
      <path
         style="opacity:1;fill:#440055;fill-opacity:1;stroke:none;stroke-width:0.05;paint-order:markers fill stroke"
         d="m 12.047172,7.649091 c 0,0 -2.9671085,1.3909088 -3.2524745,3.023944 -0.285366,1.633035 4.2506325,4.551486 4.2506325,4.551486 0,0 -3.9072824,-3.33436 -3.7021211,-4.594133 C 9.5483702,9.3706154 12.047172,7.649091 12.047172,7.649091 Z"
         id="path68"
         sodipodi:nodetypes="czczc" />
      <path
         style="opacity:1;fill:#440055;fill-opacity:1;stroke:none;stroke-width:0.05;paint-order:markers fill stroke"
         d="m 15.294221,8.2752036 c 0,0 -2.967109,1.3909088 -3.252475,3.0239444 -0.285366,1.633035 4.250633,4.551486 4.250633,4.551486 0,0 -3.907282,-3.33436 -3.702121,-4.594133 0.205161,-1.259773 2.703963,-2.9812974 2.703963,-2.9812974 z"
         id="path69"
         sodipodi:nodetypes="czczc" />
    </g>
    <circle
       style="opacity:1;fill:#ffffff;fill-opacity:1;stroke:none;stroke-width:0.05;paint-order:markers fill stroke"
       id="path70"
       cx="1.7764124"
       cy="1.2085428"
       r="0.11648606" />
    <circle
       style="fill:#ffffff;fill-opacity:1;stroke:none;stroke-width:0.05;paint-order:markers fill stroke"
       id="path70-5"
       cx="4.2620935"
       cy="2.8445239"
       r="0.11648606" />
    <circle
       style="fill:#ffffff;fill-opacity:1;stroke:none;stroke-width:0.05;paint-order:markers fill stroke"
       id="path70-5-6"
       cx="10.355772"
       cy="1.289111"
       r="0.065523408" />
    <circle
       style="opacity:1;fill:#ffffff;fill-opacity:1;stroke:none;stroke-width:0.05;paint-order:markers fill stroke"
       id="path71"
       cx="2.4170856"
       cy="2.2277958"
       r="0.058243029" />
  </g>
</svg>
