<?xml version="1.0" encoding="UTF-8" standalone="no"?>
<!-- Created with Inkscape (http://www.inkscape.org/) -->

<svg
   width="16"
   height="16"
   viewBox="0 0 16 16"
   version="1.1"
   id="svg1"
   inkscape:version="1.3.2 (091e20e, 2023-11-25, custom)"
   sodipodi:docname="startship.svg"
   xmlns:inkscape="http://www.inkscape.org/namespaces/inkscape"
   xmlns:sodipodi="http://sodipodi.sourceforge.net/DTD/sodipodi-0.dtd"
   xmlns="http://www.w3.org/2000/svg"
   xmlns:svg="http://www.w3.org/2000/svg">
  <sodipodi:namedview
     id="namedview1"
     pagecolor="#ffffff"
     bordercolor="#000000"
     borderopacity="0.25"
     inkscape:showpageshadow="2"
     inkscape:pageopacity="0.0"
     inkscape:pagecheckerboard="0"
     inkscape:deskcolor="#d1d1d1"
     inkscape:document-units="px"
     showgrid="true"
     inkscape:zoom="48.5625"
     inkscape:cx="7.989704"
     inkscape:cy="5.2818533"
     inkscape:window-width="1662"
     inkscape:window-height="965"
     inkscape:window-x="71"
     inkscape:window-y="8"
     inkscape:window-maximized="0"
     inkscape:current-layer="layer1">
    <inkscape:grid
       id="grid1"
       units="px"
       originx="0"
       originy="0"
       spacingx="2"
       spacingy="2"
       empcolor="#0099e5"
       empopacity="0.30196078"
       color="#0099e5"
       opacity="0.14901961"
       empspacing="4"
       dotted="false"
       gridanglex="30"
       gridanglez="30"
       visible="true" />
  </sodipodi:namedview>
  <defs
     id="defs1" />
  <g
     inkscape:label="Warstwa 1"
     inkscape:groupmode="layer"
     id="layer1">
    <rect
       style="fill:#80b3ff"
       id="rect1"
       width="16.453024"
       height="16.432432"
       x="-0.24710424"
       y="-0.16473617" />
    <path
       style="fill:#b3b3b3;fill-opacity:1;stroke-width:1"
       d="M 5.3521679,4.812792 C 5.0174298,4.4155442 4.3984488,4.8706624 4.1865526,4.5817691 3.9746564,4.2928759 3.9898803,3.8631751 4.291563,3.6261745 3.9421813,3.8617207 3.1846022,3.9475058 2.8949248,3.6576777 2.6052473,3.3678495 2.6685909,3.0275191 3.0104362,2.7020831 2.7642233,2.9437032 2.207608,3.2476991 1.886825,2.8806008 1.5660419,2.5135023 1.330862,0.77047075 2.7514403,0.09814623 4.1720185,-0.57417829 5.8074706,0.4660999 6.2447563,1.2844428 6.682042,2.1027856 5.79084,2.5397265 5.3311659,2.5865717 c 0.4224131,-0.026662 0.75082,0.08408 0.80858,0.4305425 0.05776,0.3464628 -0.08678,0.5364147 -0.4620457,0.6300624 0.3283036,-8.616e-4 0.357948,0.077986 0.4620457,0.3885385 C 6.2438436,4.346267 5.5726938,4.7644365 5.4886815,5.1068211 5.2261515,5.0921703 5.5503925,4.9685159 5.3521679,4.812792 Z"
       id="path4"
       sodipodi:nodetypes="czczczzzczczcc" />
    <rect
       style="fill:#241c1c;fill-opacity:1"
       id="rect3"
       width="1.1737452"
       height="4.0566282"
       x="4.7571974"
       y="4.9429631"
       transform="rotate(-3.820125)" />
    <path
       style="fill:#b3b3b3;fill-opacity:1;stroke-width:1"
       d="m 8.0689903,4.6467446 c 0.1568667,0.2361338 0.2113698,0.7277728 0.2113698,0.7277728 0,0 -0.135896,-0.5633513 0.011743,-0.9097161 C 8.5219409,4.215473 9.2938675,3.9356161 9.2667523,3.5672149 9.2396371,3.1988138 8.8423732,3.07616 8.5621864,3.0941626 8.8339097,3.1000357 9.682715,2.6896418 9.6190354,2.2936126 9.5553559,1.8975833 8.9255749,1.8973938 8.6443858,1.9782444 8.8681356,1.8771517 9.3895408,1.887594 9.2902378,1.3596375 9.1909348,0.83168101 8.7371653,0.46641635 7.9425447,0.51480054 7.1479241,0.56318473 6.6824965,1.164984 6.7538006,1.6992648 6.8251047,2.2335456 7.4375965,2.0643049 7.7049646,2.0631512 7.4673938,2.1347752 6.8050708,2.557953 6.9064566,2.9122194 7.0078424,3.2664859 7.6653875,3.1871527 7.8811061,3.1426808 7.7915131,3.2437635 7.3075399,3.7252412 7.3644244,4.0523968 c 0.056884,0.3271556 0.6533842,0.079235 0.7045659,0.5943478 z"
       id="path5"
       sodipodi:nodetypes="ccczczczzzczczc" />
    <rect
       style="fill:#241c1c;fill-opacity:1"
       id="rect3-4"
       width="1.1737452"
       height="4.0566282"
       x="7.3907337"
       y="4.8903494"
       transform="rotate(-3.820125)" />
    <path
       style="fill:#ffffff;fill-opacity:1"
       d="M 3.2329472,6.4864865 3.3564994,8.5456885 11.943372,7.8249678 11.840412,5.9099099 Z"
       id="path3" />
    <path
       style="fill:#1c1f24"
       d="M 1.8326899,7.9485199 14.908623,7.0836551 14.002574,10.028314 12.561132,11.490348 4.7773488,11.675676 1.7709138,10.275418 Z"
       id="path2" />
    <path
       style="fill:#6600ff"
       d="M 15.958816,9.966538 C 15.312239,9.6788741 14.866075,7.8572968 13.899614,7.8867439 13.900978,8.904608 12.969468,10.026772 12.005148,10.048906 11.040828,10.07104 10.950937,7.9410403 9.98713,7.9485199 10.01174,8.7796804 9.0070502,10.04823 8.030888,10.048906 7.0547258,10.049582 6.9926937,7.8663167 5.992278,7.8661519 5.9596872,8.9161801 4.9187841,10.065218 3.9330759,10.069498 2.9473677,10.073778 2.8850502,7.9612687 1.9356499,7.969112 1.9334825,8.8418202 0.66890505,9.7770261 0.04118404,10.028314 -0.58653697,10.279602 -1.2149292,9.9459459 -1.2149292,9.9459459 l -0.061776,7.2277991 18.4710422,-0.20592 0.08237,-6.939511 c 0,0 -0.671314,0.225888 -1.317891,-0.061776 z"
       id="path1"
       sodipodi:nodetypes="cccccccccccccc" />
    <g
       id="g6"
       transform="rotate(-3.3283653,105.91042,7.498749)">
      <circle
         style="fill:#28170b;fill-opacity:1"
         id="circle6"
         cx="10.685328"
         cy="1.1853282"
         r="0.18532819" />
      <circle
         style="fill:#28170b;fill-opacity:1"
         id="circle6-2"
         cx="11.185328"
         cy="1.1853282"
         r="0.18532819" />
      <circle
         style="fill:#28170b;fill-opacity:1"
         id="path6"
         cx="10.185328"
         cy="1.1853282"
         r="0.18532819" />
    </g>
  </g>
</svg>
