<?xml version="1.0" encoding="UTF-8" standalone="no"?>
<!-- Created with Inkscape (http://www.inkscape.org/) -->

<svg
   width="16"
   height="16"
   viewBox="0 0 16 16"
   version="1.1"
   id="svg1"
   inkscape:version="1.3.2 (091e20e, 2023-11-25, custom)"
   sodipodi:docname="title3.svg"
   xmlns:inkscape="http://www.inkscape.org/namespaces/inkscape"
   xmlns:sodipodi="http://sodipodi.sourceforge.net/DTD/sodipodi-0.dtd"
   xmlns="http://www.w3.org/2000/svg"
   xmlns:svg="http://www.w3.org/2000/svg">
  <sodipodi:namedview
     id="namedview1"
     pagecolor="#ffffff"
     bordercolor="#000000"
     borderopacity="0.25"
     inkscape:showpageshadow="2"
     inkscape:pageopacity="0.0"
     inkscape:pagecheckerboard="0"
     inkscape:deskcolor="#d1d1d1"
     inkscape:document-units="px"
     showgrid="true"
     inkscape:zoom="45.254834"
     inkscape:cx="7.1042134"
     inkscape:cy="9.291825"
     inkscape:window-width="1920"
     inkscape:window-height="991"
     inkscape:window-x="-9"
     inkscape:window-y="-9"
     inkscape:window-maximized="1"
     inkscape:current-layer="layer1">
    <inkscape:grid
       id="grid1"
       units="px"
       originx="0"
       originy="0"
       spacingx="2"
       spacingy="2"
       empcolor="#0099e5"
       empopacity="0.30196078"
       color="#0099e5"
       opacity="0.14901961"
       empspacing="4"
       dotted="false"
       gridanglex="30"
       gridanglez="30"
       visible="true" />
  </sodipodi:namedview>
  <defs
     id="defs1">
    <inkscape:path-effect
       effect="copy_rotate"
       starting_point="21.168521,8.0644173"
       origin="20.047427,8.0644173"
       id="path-effect8"
       is_visible="true"
       lpeversion="1.2"
       lpesatellites=""
       method="normal"
       num_copies="23"
       starting_angle="0"
       rotation_angle="18.947368"
       gap="-0.01"
       copies_to_360="true"
       mirror_copies="false"
       split_items="false"
       link_styles="false" />
  </defs>
  <g
     inkscape:label="Warstwa 1"
     inkscape:groupmode="layer"
     id="layer1">
    <rect
       style="fill:#000080;stroke-width:0.3;stroke-linecap:round;stroke-linejoin:round;paint-order:markers fill stroke"
       id="rect1"
       width="16.350065"
       height="16.370657"
       x="-0.18532819"
       y="-0.12355212" />
    <circle
       style="fill:#000000;stroke-width:0.3;stroke-linecap:round;stroke-linejoin:round;paint-order:markers fill stroke"
       id="path1"
       cx="8"
       cy="8"
       r="4" />
    <circle
       style="fill:#ffb90e;fill-opacity:1;stroke-width:0.3;stroke-linecap:round;stroke-linejoin:round;paint-order:markers fill stroke"
       id="path2"
       cx="8"
       cy="8"
       r="0.75" />
    <ellipse
       style="fill:#eeff0e;fill-opacity:1;stroke-width:0.3;stroke-linecap:round;stroke-linejoin:round;paint-order:markers fill stroke"
       id="circle2"
       cx="8"
       cy="8"
       rx="0.75"
       ry="0.59532034" />
    <path
       style="fill:none;fill-opacity:1;stroke:#ffffff;stroke-width:0.03;stroke-linecap:round;stroke-linejoin:round;stroke-dasharray:none;stroke-opacity:1;paint-order:markers fill stroke"
       d="M 5.736572,10.603163 C 5.082434,9.9757594 5.8793394,7.947415 6.8068267,6.8743392 7.7343139,5.8012634 9.5163491,4.847851 10.156017,5.4563666 10.795684,6.0648825 10.098644,7.9975568 9.1822499,9.0848933 8.2658553,10.17223 6.39071,11.230566 5.736572,10.603163 Z"
       id="path3"
       sodipodi:nodetypes="zzzzz" />
    <circle
       style="fill:#0040d4;fill-opacity:1;stroke:none;stroke-width:0.03;stroke-linecap:round;stroke-linejoin:round;stroke-dasharray:none;stroke-opacity:1;paint-order:markers fill stroke"
       id="path4"
       cx="10.352486"
       cy="6.6291261"
       r="0.35355338" />
    <path
       id="path5"
       style="fill:#1a5e00;fill-opacity:1;stroke:none;stroke-width:0.03;stroke-linecap:round;stroke-linejoin:round;stroke-dasharray:none;stroke-opacity:1;paint-order:markers fill stroke"
       d="M 10.351562 6.2753906 A 0.35355338 0.35355338 0 0 0 10.205078 6.3066406 L 10.203125 6.3066406 L 10.191406 6.3242188 L 10.242188 6.4414062 L 10.167969 6.6289062 L 10.253906 6.6992188 L 10.308594 6.6328125 L 10.429688 6.640625 L 10.441406 6.4726562 L 10.527344 6.5117188 L 10.578125 6.6601562 L 10.613281 6.5273438 L 10.6875 6.5390625 L 10.693359 6.5332031 A 0.35355338 0.35355338 0 0 0 10.351562 6.2753906 z " />
    <path
       id="path6"
       style="fill:#1a5e00;fill-opacity:1;stroke:none;stroke-width:0.03;stroke-linecap:round;stroke-linejoin:round;stroke-dasharray:none;stroke-opacity:1;paint-order:markers fill stroke"
       d="M 10.320312 6.7539062 L 10.164062 6.8554688 L 10.105469 6.78125 L 10.048828 6.8085938 A 0.35355338 0.35355338 0 0 0 10.351562 6.9824219 A 0.35355338 0.35355338 0 0 0 10.369141 6.9804688 L 10.363281 6.9492188 L 10.355469 6.890625 L 10.269531 6.890625 L 10.320312 6.7539062 z " />
    <path
       id="path7"
       style="fill:#feff11;fill-opacity:1;stroke:none;stroke-width:0.03;stroke-linecap:round;stroke-linejoin:round;stroke-dasharray:none;stroke-opacity:1;paint-order:markers fill stroke"
       d="m 12.90625,6.921875 c -0.119068,0.6671683 -0.167472,1.3779135 -0.02344,2.156012 l 1.908202,-0.9860901 c 0.03572,0.059967 0.09766,0.0961 0.164062,0.095703 0.106741,6.2e-6 0.193294,-0.092666 0.19336,-0.2070312 -6.6e-5,-0.1143655 -0.08662,-0.2070375 -0.19336,-0.2070313 -0.06604,-8.24e-4 -0.127909,0.034528 -0.164062,0.09375 z m -0.04344,1.9690351 c 0.06535,0.6745521 0.210495,1.3719999 0.559118,2.0823839 l 1.571397,-1.4643497 c 0.05057,0.048106 0.119966,0.066188 0.183798,0.047891 0.102785,-0.028792 0.161126,-0.1413798 0.130334,-0.2515218 C 15.276538,9.1952064 15.168191,9.129323 15.065411,9.158127 15.001597,9.175151 14.95156,9.2258841 14.932726,9.2926639 Z m 0.48941,1.9077379 c 0.244916,0.631907 0.572851,1.264332 1.100205,1.854316 l 1.118048,-1.834006 c 0.06168,0.03268 0.133375,0.03137 0.189904,-0.0035 0.09121,-0.05546 0.117006,-0.179608 0.05764,-0.277358 -0.05948,-0.09768 -0.181583,-0.13189 -0.27278,-0.07643 -0.05685,0.03361 -0.09135,0.09596 -0.09147,0.165346 z m 0.985963,1.704952 c 0.40632,0.542398 0.892721,1.062894 1.559695,1.488721 l 0.581779,-2.067641 c 0.06821,0.01483 0.136892,-0.0058 0.181924,-0.05458 0.07286,-0.07801 0.06421,-0.204516 -0.01933,-0.282625 -0.08363,-0.07801 -0.210433,-0.07801 -0.283284,5e-6 -0.04568,0.0477 -0.06207,0.117048 -0.04347,0.183892 z m 1.409392,1.375719 c 0.537589,0.41266 1.146381,0.782626 1.903509,1.012715 l 0.0024,-2.147931 c 0.06968,-0.0041 0.130256,-0.0425 0.160452,-0.101638 0.04911,-0.09477 0.0067,-0.214256 -0.09486,-0.26693 -0.101574,-0.05256 -0.223677,-0.01834 -0.272778,0.07643 -0.03111,0.05826 -0.02819,0.129454 0.0078,0.188799 z m 1.728292,0.944454 c 0.628988,0.252317 1.31502,0.444314 2.106148,0.4616 l -0.577229,-2.068917 c 0.06598,-0.02277 0.113959,-0.07607 0.12708,-0.141159 0.02172,-0.104507 -0.0514,-0.208104 -0.163361,-0.231437 -0.111986,-0.0232 -0.22033,0.04269 -0.242041,0.147194 -0.01424,0.06449 0.0078,0.132258 0.05841,0.179704 z m 1.919012,0.443143 c 0.673739,0.07326 1.38613,0.07305 2.152586,-0.123749 l -1.114012,-1.836461 c 0.05739,-0.03973 0.08921,-0.10399 0.08428,-0.170211 -0.0073,-0.106492 -0.105641,-0.186519 -0.219744,-0.178781 -0.114094,0.0079 -0.200644,0.100547 -0.193353,0.207038 0.0037,0.06594 0.04318,0.125255 0.104727,0.157282 z m 1.96741,-0.09103 c 0.66852,-0.111227 1.354437,-0.303633 2.039374,-0.699921 l -1.568172,-1.467803 c 0.04454,-0.05374 0.05785,-0.124203 0.03524,-0.186638 -0.03574,-0.10058 -0.152046,-0.151102 -0.25983,-0.112865 -0.10774,0.03836 -0.166076,0.150951 -0.130325,0.251526 0.02134,0.0625 0.07537,0.108961 0.143278,0.123194 z m 1.869892,-0.618457 c 0.61372,-0.287468 1.222291,-0.657797 1.774912,-1.224183 l -1.906029,-0.990285 c 0.02839,-0.06376 0.02219,-0.135205 -0.01643,-0.189224 -0.06155,-0.08721 -0.187174,-0.104477 -0.280645,-0.03858 -0.0934,0.06601 -0.119191,0.190161 -0.05763,0.277361 0.03741,0.05443 0.101971,0.08459 0.171202,0.07997 z m 1.633693,-1.100015 c 0.513404,-0.442387 0.999494,-0.963174 1.378813,-1.657653 l -2.102524,-0.439322 c 0.01014,-0.06906 -0.01511,-0.136178 -0.06687,-0.177775 -0.0828,-0.06737 -0.208421,-0.0501 -0.280647,0.03857 -0.07212,0.08876 -0.06347,0.215266 0.01934,0.282624 0.05071,0.04232 0.12101,0.05394 0.186429,0.03081 z m 1.276331,-1.499988 c 0.375011,-0.564498 0.702569,-1.197117 0.880454,-1.9681818 l -2.143084,0.1442228 c -0.0089,-0.06923 -0.05129,-0.127052 -0.112352,-0.1531421 -0.0979,-0.042531 -0.214209,0.00799 -0.259833,0.1128561 -0.0455,0.104924 -0.003,0.224407 0.09487,0.266927 0.06024,0.02707 0.131076,0.01929 0.18783,-0.02063 z m 0.82431,-1.788715 C 27.17532,9.523967 27.320052,8.8264326 27.283309,8.0359685 l -2.024701,0.7170721 c -0.02722,-0.064272 -0.08366,-0.108503 -0.149503,-0.1171514 -0.105746,-0.014541 -0.204111,0.065483 -0.219749,0.1787737 -0.01551,0.1133093 0.05762,0.2169039 0.163368,0.2314322 0.06531,0.00981 0.131419,-0.016789 0.175299,-0.070537 z M 27.277667,8.2239278 C 27.30478,7.5467604 27.255953,6.8360441 27.007308,6.0848057 l -1.756157,1.2367391 c -0.04355,-0.054544 -0.109836,-0.081907 -0.175565,-0.072472 -0.105748,0.014528 -0.178876,0.1181231 -0.163368,0.2314321 0.01564,0.1132913 0.114004,0.1933144 0.219749,0.1787738 0.06554,-0.00818 0.122016,-0.051623 0.149769,-0.1152166 z M 27.052585,6.2673173 C 26.895996,5.6079461 26.65723,4.9367585 26.215124,4.2804617 l -1.357365,1.6646829 c -0.05665,-0.040772 -0.127862,-0.049236 -0.188608,-0.022417 -0.09791,0.04252 -0.140373,0.1620028 -0.09487,0.2669261 0.04562,0.1048711 0.161933,0.1553877 0.259834,0.1128567 0.0609,-0.025555 0.103563,-0.082629 0.113129,-0.1513511 z M 26.307963,4.4439895 C 25.979284,3.851317 25.568288,3.269437 24.96551,2.7567563 L 24.107605,4.725921 c -0.06555,-0.023975 -0.136403,-0.012914 -0.187661,0.0293 -0.0828,0.067358 -0.09146,0.1938676 -0.01934,0.2826236 0.07223,0.088673 0.197851,0.1059365 0.280647,0.038569 0.05175,-0.041038 0.07743,-0.1075056 0.0681,-0.1762605 z M 25.099026,2.8891724 C 24.622634,2.4071543 24.06989,1.9577373 23.351144,1.6266959 l -0.294817,2.1276026 c -0.06959,-0.0054 -0.134829,0.024366 -0.172797,0.078844 -0.06156,0.087201 -0.03576,0.211354 0.05763,0.2773601 0.09347,0.065898 0.219095,0.048628 0.280645,-0.038578 0.03876,-0.053477 0.04556,-0.1244095 0.01802,-0.1880975 z M 23.515435,1.7181794 C 22.926662,1.382565 22.273163,1.0989421 21.491757,0.97409184 l 0.290136,2.12824596 c -0.06847,0.013576 -0.123255,0.059839 -0.145118,0.1225402 -0.03575,0.1005758 0.02258,0.2131653 0.130325,0.2515261 0.107784,0.038237 0.224091,-0.012286 0.25983,-0.112865 0.02289,-0.061951 0.0103,-0.1320864 -0.0334,-0.1859842 z M 21.674637,1.0178579 C 21.017149,0.853538 20.311364,0.75674429 19.52525,0.84734476 l 0.853571,1.97104704 c -0.06226,0.031544 -0.10254,0.090874 -0.106675,0.1571485 -0.0073,0.1064917 0.07926,0.1991671 0.193353,0.2070375 0.114103,0.00774 0.212466,-0.072289 0.219744,-0.1787809 0.0053,-0.06583 -0.02572,-0.1299671 -0.08234,-0.1700772 z M 19.713157,0.84014743 C 19.035718,0.85930897 18.32999,0.9565232 17.597471,1.2558549 l 1.353701,1.6676646 c -0.05145,0.047173 -0.07422,0.1151695 -0.06032,0.1801018 0.02171,0.1045097 0.130054,0.1703976 0.242041,0.147194 0.11196,-0.023333 0.185084,-0.1269313 0.163361,-0.2314375 -0.01263,-0.064826 -0.05983,-0.1182087 -0.125169,-0.1415565 z M 17.776468,1.198228 C 17.12932,1.3994499 16.475991,1.6834621 15.851394,2.169325 l 1.753432,1.2405991 c -0.03681,0.059304 -0.0404,0.1309231 -0.0095,0.1896978 0.0491,0.094777 0.171205,0.1289905 0.272778,0.076434 0.101513,-0.052674 0.143975,-0.1721594 0.09486,-0.2669294 -0.02965,-0.059015 -0.0895,-0.097683 -0.158718,-0.1025371 z m -1.768263,0.8673145 c -0.568861,0.3683584 -1.121337,0.8181047 -1.591687,1.4544647 l 2.023119,0.7215239 c -0.01945,0.067036 -0.0036,0.1369668 0.04204,0.1852248 0.07285,0.078014 0.199657,0.078017 0.283284,4.7e-6 0.08354,-0.078109 0.09219,-0.2046191 0.01933,-0.2826243 -0.04447,-0.048827 -0.112539,-0.069913 -0.180497,-0.055913 z M 14.539513,3.377766 C 14.091129,3.8859416 13.68048,4.4680664 13.39926,5.2077274 l 2.142761,0.1489368 c -6.38e-4,0.069796 0.03351,0.1328522 0.09045,0.1670145 0.0912,0.055466 0.213302,0.021257 0.272781,-0.076425 0.05937,-0.09775 0.03356,-0.2219032 -0.05764,-0.2773583 -0.056,-0.035017 -0.127228,-0.036958 -0.188889,-0.00514 z M 13.479318,5.0375771 C 13.184666,5.6478807 12.9463,6.3192105 12.875066,7.1073152 l 2.103485,-0.4346963 c 0.01822,0.06738 0.06811,0.1188847 0.132158,0.1364174 0.102781,0.028804 0.211127,-0.03708 0.242046,-0.147186 0.03079,-0.1101423 -0.02755,-0.2227298 -0.130333,-0.2515219 -0.06337,-0.018611 -0.132482,-0.00126 -0.183272,0.04601 z"
       inkscape:path-effect="#path-effect8"
       inkscape:original-d="m 12.90625,6.921875 c -0.119068,0.6671683 -0.167472,1.3779135 -0.02344,2.156012 l 1.908202,-0.9860901 c 0.03572,0.059967 0.09766,0.0961 0.164062,0.095703 0.106741,6.2e-6 0.193294,-0.092666 0.19336,-0.2070312 -6.6e-5,-0.1143655 -0.08662,-0.2070375 -0.19336,-0.2070313 -0.06604,-8.24e-4 -0.127909,0.034528 -0.164062,0.09375 z"
       transform="rotate(179.41814,14.027344,8)"
       sodipodi:nodetypes="cccccccc" />
    <path
       style="fill:#feff11;fill-opacity:1;stroke:none;stroke-width:0.03;stroke-linecap:round;stroke-linejoin:round;stroke-dasharray:none;stroke-opacity:1;paint-order:markers fill stroke"
       d="m 15.359375,11.1875 c 0,0 -0.936519,2.346758 -1.609375,2.945312 -0.672856,0.598554 -1.806047,0.360435 -2.203125,0.359375 -0.397078,-0.0011 -0.890133,0.04151 -0.867187,0.546876 0.02295,0.505366 0.643773,0.75745 1.28125,0.820312 0.637477,0.06286 2.356259,-0.15876 2.882812,-0.992188 0.526553,-0.833425 0.515625,-3.679687 0.515625,-3.679687 z"
       id="path8"
       sodipodi:nodetypes="czzzzzc" />
    <path
       style="fill:#feff11;fill-opacity:1;stroke:none;stroke-width:0.03;stroke-linecap:round;stroke-linejoin:round;stroke-dasharray:none;stroke-opacity:1;paint-order:markers fill stroke"
       d="m 14.765625,10.5625 0.273437,2.039062 1.03125,-1.6875 z"
       id="path9" />
    <path
       style="fill:#feff11;fill-opacity:1;stroke:none;stroke-width:0.03;stroke-linecap:round;stroke-linejoin:round;stroke-dasharray:none;stroke-opacity:1;paint-order:markers fill stroke"
       d="m 0.78125,4.421875 c 0,0 -0.32205238,-2.139227 0.296875,-2.765625 C 1.6970524,1.029852 3.0392239,1.5948075 3.5625,1.359375 4.0857761,1.1239425 4.2790106,1.043482 4.265625,0.734375 4.2522394,0.42526804 4.2197235,0.32201578 3.53125,0.1875 2.8427765,0.05298422 0.97170081,0.08670196 0.34375,1.015625 c -0.62795081,0.928923 0.4375,3.40625 0.4375,3.40625 z"
       id="path10"
       sodipodi:nodetypes="czzzzzc" />
    <path
       style="fill:#feff11;fill-opacity:1;stroke:none;stroke-width:0.03;stroke-linecap:round;stroke-linejoin:round;stroke-dasharray:none;stroke-opacity:1;paint-order:markers fill stroke"
       d="M 0.546875,3.421875 0.265625,4.9375 1.46875,4.34375 Z"
       id="path11" />
  </g>
</svg>
