<?xml version="1.0" encoding="UTF-8" standalone="no"?>
<!-- Created with Inkscape (http://www.inkscape.org/) -->

<svg
   width="16"
   height="16"
   viewBox="0 0 16 16"
   version="1.1"
   id="svg1"
   inkscape:version="1.3.2 (091e20e, 2023-11-25, custom)"
   sodipodi:docname="unity.svg"
   xmlns:inkscape="http://www.inkscape.org/namespaces/inkscape"
   xmlns:sodipodi="http://sodipodi.sourceforge.net/DTD/sodipodi-0.dtd"
   xmlns="http://www.w3.org/2000/svg"
   xmlns:svg="http://www.w3.org/2000/svg">
  <sodipodi:namedview
     id="namedview1"
     pagecolor="#ffffff"
     bordercolor="#000000"
     borderopacity="0.25"
     inkscape:showpageshadow="2"
     inkscape:pageopacity="0.0"
     inkscape:pagecheckerboard="0"
     inkscape:deskcolor="#d1d1d1"
     inkscape:document-units="px"
     showgrid="true"
     inkscape:zoom="34.338873"
     inkscape:cx="4.4119095"
     inkscape:cy="9.4499315"
     inkscape:window-width="1920"
     inkscape:window-height="991"
     inkscape:window-x="-9"
     inkscape:window-y="-9"
     inkscape:window-maximized="1"
     inkscape:current-layer="layer1">
    <inkscape:grid
       id="grid1"
       units="px"
       originx="0"
       originy="0"
       spacingx="2"
       spacingy="2"
       empcolor="#0099e5"
       empopacity="0.30196078"
       color="#0099e5"
       opacity="0.14901961"
       empspacing="4"
       dotted="false"
       gridanglex="30"
       gridanglez="30"
       visible="true" />
  </sodipodi:namedview>
  <defs
     id="defs1">
    <inkscape:path-effect
       effect="copy_rotate"
       starting_point="13.378299,6.0314855"
       origin="8.3518023,6.0314855"
       id="path-effect6"
       is_visible="true"
       lpeversion="1.2"
       lpesatellites=""
       method="normal"
       num_copies="7"
       starting_angle="0"
       rotation_angle="51.428571"
       gap="-0.01"
       copies_to_360="true"
       mirror_copies="false"
       split_items="false"
       link_styles="false" />
    <inkscape:path-effect
       effect="copy_rotate"
       starting_point="12.303839,1.3395897"
       origin="8.9111832,1.3395897"
       id="path-effect4"
       is_visible="true"
       lpeversion="1.2"
       lpesatellites=""
       method="normal"
       num_copies="14"
       starting_angle="0"
       rotation_angle="25.714286"
       gap="-0.01"
       copies_to_360="true"
       mirror_copies="false"
       split_items="false"
       link_styles="false" />
    <inkscape:path-effect
       effect="copy_rotate"
       starting_point="8.901391,11.616934"
       origin="4.1632201,8.500932"
       id="path-effect3"
       is_visible="true"
       lpeversion="1.2"
       lpesatellites=""
       method="normal"
       num_copies="7"
       starting_angle="-33.330448"
       rotation_angle="51.428571"
       gap="-0.01"
       copies_to_360="true"
       mirror_copies="false"
       split_items="false"
       link_styles="false" />
    <inkscape:path-effect
       effect="copy_rotate"
       starting_point="6.6527789,14.465952"
       origin="2.5684,14.465952"
       id="path-effect1"
       is_visible="true"
       lpeversion="1.2"
       lpesatellites=""
       method="normal"
       num_copies="7"
       starting_angle="0"
       rotation_angle="51.428571"
       gap="-0.01"
       copies_to_360="true"
       mirror_copies="false"
       split_items="false"
       link_styles="false" />
  </defs>
  <g
     inkscape:label="Warstwa 1"
     inkscape:groupmode="layer"
     id="layer1">
    <rect
       style="fill:#060668;stroke-width:0.3;stroke-linecap:round;stroke-linejoin:round;paint-order:markers fill stroke"
       id="rect1"
       width="16.370657"
       height="16.370657"
       x="-0.16473617"
       y="-0.18532819" />
    <circle
       style="fill:#000000;fill-opacity:1;stroke-width:0.3;stroke-linecap:round;stroke-linejoin:round;paint-order:markers fill stroke"
       id="path5"
       cx="7.5861545"
       cy="7.6443977"
       r="10" />
    <path
       style="fill:#ffffff;fill-opacity:1;stroke-width:0.3;stroke-linecap:round;stroke-linejoin:round;paint-order:markers fill stroke"
       d="m 16.715749,12.085429 c 0,0 -1.369504,0.793837 -2.417085,0.96101 -1.047581,0.167173 -2.135094,-0.0091 -2.912152,-0.786281 -0.777058,-0.777182 -0.73715,-1.297688 -0.349458,-1.92202 0.387692,-0.6243331 0.31103,-0.4988814 0.786281,-0.9610102 C 12.298586,8.914999 12.714373,8.0419237 12.813467,7.1930142 12.912561,6.3441047 12.795925,5.3336047 12.289279,4.5138348 11.782633,3.6940649 10.791468,2.6681501 9.8721932,2.6500579 8.9529179,2.6319657 7.9367019,2.9293556 7.3891925,3.5416196 6.8416831,4.1538836 6.6222645,5.55605 6.6688269,6.2320042 c 0.046562,0.6759542 0.96101,1.2813466 0.96101,1.2813466 0,0 -0.7338894,-0.7627118 -0.6989164,-1.3978327 0.034973,-0.6351209 0.2037417,-1.8918525 0.7083031,-2.407699 0.5045614,-0.5158465 1.4182351,-0.6644394 2.2329699,-0.65006 0.8147345,0.014379 1.8049335,0.8999033 2.2714785,1.6599263 0.466545,0.760023 0.48892,1.7216008 0.407701,2.5044503 -0.08122,0.7828495 -0.29604,1.5844834 -0.786281,2.038506 -0.490241,0.4540226 -1.279214,-0.1933188 -1.747291,0.5241873 -0.4680768,0.717506 -0.4460756,2.475271 0.407701,3.290731 0.853777,0.81546 2.676455,0.505058 3.756676,0.291215 1.080221,-0.213843 2.533571,-1.281346 2.533571,-1.281346 z m 1.584052,-8.8185683 c 0,0 -0.233225,1.5656706 -0.75568,2.4889331 C 17.021666,6.6790562 16.205797,7.4194037 15.113685,7.5423677 14.021572,7.6653311 13.639506,7.3095995 13.393106,6.6172251 13.146705,5.92485 13.196989,6.0630046 13.131996,5.4033058 13.067003,4.743607 12.643645,3.8741781 12.041724,3.2674169 11.439804,2.6606556 10.577042,2.1218089 9.6202318,2.0068025 8.6634212,1.8917961 7.2433475,2.0270727 6.656044,2.7345104 6.0687401,3.4419485 5.6676486,4.4218777 5.8049694,5.2316782 5.9422901,6.0414786 6.9017427,7.0872634 7.4592561,7.47231 c 0.5575132,0.3850469 1.6009771,0.047559 1.6009771,0.047559 0,0 -1.0538847,0.098235 -1.5286369,-0.3250996 C 7.0568441,6.7714347 6.1795173,5.8559267 6.0908012,5.1398197 6.0020851,4.4237126 6.4555767,3.6167276 6.9747978,2.9887077 7.4940184,2.3606878 8.8037281,2.1386344 9.6888241,2.2477414 10.57392,2.3568484 11.339662,2.9388889 11.90108,3.4904872 c 0.561416,0.551599 1.054221,1.2193626 1.10353,1.8857269 0.04931,0.6663643 -0.94872,0.8795975 -0.679592,1.6929126 0.269127,0.8133148 1.657121,1.8920621 2.826994,1.7329837 1.169874,-0.1590787 2.063613,-1.7776383 2.56993,-2.755518 0.506318,-0.9778797 0.577859,-2.7797317 0.577859,-2.7797317 z m -5.906993,-6.7367495 c 0,0 1.078677,1.1585224 1.474767,2.1426388 0.39609,0.9841165 0.466231,2.08358771 -0.118552,3.0141023 -0.584785,0.9305148 -1.101121,1.0074308 -1.79607,0.768386 C 11.258004,2.2161938 11.397369,2.2630181 10.841074,1.9025159 10.284778,1.5420138 9.3410713,1.330929 8.4913953,1.4232196 7.6417192,1.5155102 6.6825085,1.8540793 5.9960313,2.5304386 5.3095541,3.2067979 4.5299161,4.4013998 4.7168353,5.3016524 4.9037548,6.2019054 5.4198178,7.1264673 6.1385634,7.5240079 6.8573089,7.9215486 8.2731453,7.8234545 8.9217908,7.6276456 9.5704364,7.431837 9.9571666,6.4056037 9.9571666,6.4056037 c 0,0 -0.5802833,0.8852086 -1.2072626,0.9924401 C 8.1229247,7.5052754 6.8601474,7.6203871 6.2449587,7.2432628 5.6297701,6.8661384 5.2815912,6.0084375 5.1143146,5.2109301 4.9470376,4.413423 5.5900199,3.2510027 6.2271715,2.6270339 6.8643231,2.0030651 7.7968133,1.7672799 8.578108,1.6722622 c 0.781295,-0.095017 1.610632,-0.063963 2.16236,0.312957 0.551729,0.3769201 0.09618,1.290159 0.899854,1.5868402 0.803674,0.296681 2.512472,-0.1159081 3.117504,-1.1297357 C 15.362857,1.4284958 14.654653,-0.27941292 14.2058,-1.284966 13.756947,-2.290519 12.392808,-3.4698888 12.392808,-3.4698888 Z m -8.9499536,0.4179792 c 0,0 1.5783134,-0.1210169 2.5946849,0.1828938 1.0163715,0.3039107 1.9197049,0.9345814 2.2826038,1.9719501 C 8.6830415,0.14030391 8.4212465,0.59194818 7.8010606,0.98623862 7.1808742,1.3805301 7.3043757,1.3007644 6.6756792,1.5109244 6.0469827,1.7210843 5.2935584,2.3272948 4.8359497,3.0491405 4.3783411,3.7709863 4.044987,4.7320218 4.1457744,5.6904344 4.2465619,6.648847 4.6944429,8.0032147 5.514831,8.4183736 6.3352195,8.8335327 7.3798311,9.0065133 8.1387714,8.6924379 8.8977118,8.3783625 9.7037783,7.2102564 9.9551125,6.5810401 10.206447,5.9518239 9.6452279,5.00962 9.6452279,5.00962 c 0,0 0.3302833,1.0056023 0.023205,1.5626523 C 9.3613547,7.1293222 8.664024,8.1883722 7.9856125,8.4342129 7.3072009,8.6800535 6.4195373,8.417503 5.6917256,8.0510474 4.963914,7.6845923 4.4559901,6.4571312 4.3654092,5.5699479 4.2748283,4.6827645 4.6718821,3.8067047 5.0847236,3.1366213 5.497566,2.4665383 6.038928,1.837498 6.6776129,1.6411454 7.3162978,1.4447928 7.746267,2.3703498 8.479304,1.9269901 9.2123409,1.4836305 9.9551841,-0.10960705 9.5397728,-1.2147509 9.1243611,-2.3198949 7.3475066,-2.8310627 6.2814781,-3.1070872 5.2154497,-3.3831116 3.4428544,-3.0519096 3.4428544,-3.0519096 Z m -5.2534153,7.2579609 c 0,0 0.88944747,-1.3094279 1.76075169,-1.9145739 C 0.82149501,1.6863313 1.8777924,1.3732936 2.9151036,1.7363567 3.9524153,2.0994206 4.1422985,2.5856958 4.0638876,3.3164127 3.9854772,4.0471307 4.0001158,3.9008402 3.7724396,4.5234075 3.5447634,5.1459749 3.5489655,6.1129918 3.8280129,6.9208281 4.1070603,7.7286644 4.6505852,8.5884869 5.4627423,9.1072486 6.2748994,9.6260103 7.613036,10.120277 8.4491239,9.7377194 9.2852122,9.3551613 10.071759,8.6463027 10.299396,7.8571164 10.527034,7.0679302 10.116346,5.7094198 9.7811089,5.1206087 9.4458725,4.5317975 8.3593134,4.383122 8.3593134,4.383122 c 0,0 0.9921397,0.3687569 1.2361988,0.9561552 0.244059,0.5873984 0.6372788,1.7929005 0.4065028,2.4765831 C 9.7712379,8.4995429 9.0125184,9.0298486 8.2722287,9.3703934 7.5319395,9.7109384 6.2555864,9.3427399 5.5054822,8.8604091 4.7553781,8.3780783 4.318006,7.5214348 4.0515161,6.7808722 3.7850271,6.0403091 3.6307573,5.224855 3.8754562,4.6030872 4.120155,3.9813194 5.1118661,4.2222313 5.2222746,3.3726896 5.3326831,2.5231481 4.550195,0.94900254 3.427154,0.58473825 2.3041127,0.22047414 0.79661496,1.290967 -0.08384753,1.9523232 -0.96431002,2.6136794 -1.8105609,4.2060513 -1.8105609,4.2060513 Z m 2.39905147,8.6325497 c 0,0 -0.46919054,-1.511813 -0.39906346,-2.570328 C 0.25955419,9.2097575 0.67340207,8.1887352 1.6040092,7.6040987 2.5346173,7.0194624 3.0331927,7.1741933 3.5556019,7.691092 4.078012,8.2079909 3.9727646,8.1053354 4.3175535,8.6715042 c 0.344789,0.5661688 1.1034532,1.1658087 1.9090283,1.4513178 0.805575,0.28551 1.8166936,0.396656 2.7286495,0.08513 C 9.8671872,9.8964231 11.087935,9.1583962 11.310132,8.2661955 11.532328,7.3739942 11.468524,6.3170814 10.993443,5.6470576 10.518362,4.9770339 9.200176,4.4511052 8.5308083,4.3460862 7.8614406,4.2410668 7.0677429,4.9978752 7.0677429,4.9978752 c 0,0 0.9068947,-0.5457699 1.5183096,-0.370346 0.6114149,0.1754238 1.7990835,0.6196102 2.1897205,1.2263079 0.390638,0.6066976 0.332194,1.5305286 0.136879,2.3216366 C 10.717338,8.9665815 9.633676,9.7349064 8.7888923,10.020633 7.9441086,10.30636 7.0016607,10.114203 6.2565118,9.8608196 5.5113631,9.6074356 4.7776298,9.2196212 4.4440794,8.640642 4.110529,8.0616629 4.9172032,7.4365181 4.3218434,6.8205166 3.7264836,6.2045154 2.0078937,5.8348255 1.0228959,6.4857392 0.03789789,7.1366533 -0.06506655,8.9827039 -0.09695682,10.083426 c -0.03189028,1.100722 0.68544739,2.755175 0.68544739,2.755175 z m 8.24498353,3.506653 c 0,0 -1.4745185,-0.575772 -2.2583757,-1.290573 -0.7838572,-0.714801 -1.3240946,-1.674957 -1.2009578,-2.76705 0.1231376,-1.092094 0.5549678,-1.385422 1.2848122,-1.471577 0.7298453,-0.08616 0.5839653,-0.06787 1.2415863,0.01556 0.657621,0.08343 1.5994577,-0.135845 2.3249459,-0.587656 C 10.950973,9.7921451 11.668293,9.070919 11.993326,8.163689 12.318359,7.256459 12.50247,5.8418876 11.943457,5.1118893 11.384443,4.3818907 10.518334,3.7728006 9.6982805,3.7264809 8.8782267,3.6801611 7.6451636,4.3828492 7.1457125,4.8407037 6.6462611,5.2985579 6.7430953,6.3909581 6.7430953,6.3909581 c 0,0 0.1387395,-1.0493208 0.6571024,-1.4179693 0.5183628,-0.3686484 1.6061407,-1.020259 2.3240346,-0.9474021 0.7178937,0.072857 1.4037347,0.6945497 1.9004717,1.3405004 0.496736,0.6459503 0.421785,1.9722344 0.118461,2.8108605 C 11.439841,9.0155738 10.702,9.6326012 10.039304,10.0572 9.3766078,10.481799 8.6159271,10.813656 7.9552976,10.713449 7.2946682,10.613241 7.3088635,9.5927867 6.4560534,9.6741871 5.6032435,9.7555876 4.242685,10.868737 4.1374537,12.044678 c -0.105231,1.175941 1.2738722,2.407435 2.1145681,3.118657 0.840696,0.711222 2.5814523,1.181919 2.5814523,1.181919 z"
       id="path6"
       sodipodi:nodetypes="czzzzzzzzzczzzzzzzzzc"
       inkscape:path-effect="#path-effect6"
       inkscape:original-d="m 16.715749,12.085429 c 0,0 -1.369504,0.793837 -2.417085,0.96101 -1.047581,0.167173 -2.135094,-0.0091 -2.912152,-0.786281 -0.777058,-0.777182 -0.73715,-1.297688 -0.349458,-1.92202 0.387692,-0.6243331 0.31103,-0.4988814 0.786281,-0.9610102 C 12.298586,8.914999 12.714373,8.0419237 12.813467,7.1930142 12.912561,6.3441047 12.795925,5.3336047 12.289279,4.5138348 11.782633,3.6940649 10.791468,2.6681501 9.8721932,2.6500579 8.9529179,2.6319657 7.9367019,2.9293556 7.3891925,3.5416196 6.8416831,4.1538836 6.6222645,5.55605 6.6688269,6.2320042 c 0.046562,0.6759542 0.96101,1.2813466 0.96101,1.2813466 0,0 -0.7338894,-0.7627118 -0.6989164,-1.3978327 0.034973,-0.6351209 0.2037417,-1.8918525 0.7083031,-2.407699 0.5045614,-0.5158465 1.4182351,-0.6644394 2.2329699,-0.65006 0.8147345,0.014379 1.8049335,0.8999033 2.2714785,1.6599263 0.466545,0.760023 0.48892,1.7216008 0.407701,2.5044503 -0.08122,0.7828495 -0.29604,1.5844834 -0.786281,2.038506 -0.490241,0.4540226 -1.279214,-0.1933188 -1.747291,0.5241873 -0.4680768,0.717506 -0.4460756,2.475271 0.407701,3.290731 0.853777,0.81546 2.676455,0.505058 3.756676,0.291215 1.080221,-0.213843 2.533571,-1.281346 2.533571,-1.281346 z"
       transform="translate(-0.29121514,1.92202)" />
    <path
       style="fill:#7bff6e;fill-opacity:0.642105;stroke-width:0.3;stroke-linecap:round;stroke-linejoin:round;paint-order:markers fill stroke"
       d="M 4.80505,-2.3879642 0,3.8731615 4.0478905,7.746323 2.4170857,4.018769 9.3480062,5.7660599 2.2423566,2.7374224 Z M 3.59436,-0.23723589 1.9817602,7.4886765 7.3092853,9.2219606 4.2226559,6.5711301 11.225321,5.1381711 3.5092749,5.4924889 Z M 3.436732,2.2258021 5.3359775,9.8862895 10.887956,9.1363979 6.9568464,8.0873205 12.644292,3.7579268 5.8461074,7.4250227 Z M 4.3633863,4.5133148 9.3983083,10.591124 14.075102,7.5065818 10.078117,8.2670401 13.323875,1.898701 8.7900158,8.1522619 Z m 1.8274012,1.6589175 7.1733705,3.2913459 2.875313,-4.808261 -3.271208,2.4193759 0.161207,-7.14595662 -1.371547,7.60143142 z m 2.3662089,0.7017534 7.8910446,-0.1470086 0.504341,-5.5796449 -1.897529,3.5991064 -2.955271,-6.5082299 2.062416,7.4437452 z m 2.4363596,-0.3944016 7.045801,-3.5562462 -1.966521,-5.2459118 -0.148021,4.0659898 -5.486422,-4.5814684 5.087892,5.8117339 z m 2.02396,-1.4124405 4.80505,-6.2611257 -4.04789,-3.8731615 1.630805,3.727554 -6.9309208,-1.7472909 7.1056498,3.0286375 z m 1.21069,-2.1507283 1.6126,-7.7259124 -5.327525,-1.7332841 3.08663,2.6508305 -7.0026652,1.432959 7.7160452,-0.3543178 z M 14.385634,0.45337734 12.486389,-7.2071101 6.9344108,-6.4572185 10.86552,-5.4081411 5.1780748,-1.0787474 11.976259,-4.7458433 Z M 13.45898,-1.8341354 8.4240581,-7.9119443 3.7472645,-4.8274024 7.7442492,-5.5878607 4.4984916,0.78047835 9.0323506,-5.4730825 Z M 11.631579,-3.4930529 4.4582085,-6.7843988 1.5828956,-1.9761378 4.8541039,-4.3955137 4.6928961,2.7504429 6.0644436,-4.8509885 Z M 9.26537,-4.1948063 1.3743252,-4.0477977 0.869984,1.5318472 2.7675129,-2.0672592 5.7227841,4.4409707 3.6603682,-3.0027745 Z M 6.82901,-3.8004047 -0.21679105,-0.24415847 1.7497305,5.0017533 1.8977512,0.93576354 7.3841737,5.5172319 2.2962812,-0.29450198 Z"
       id="path3"
       inkscape:path-effect="#path-effect4"
       inkscape:original-d="M 4.80505,-2.3879642 0,3.8731615 4.0478905,7.746323 2.4170857,4.018769 9.3480062,5.7660599 2.2423566,2.7374224 Z"
       transform="translate(-0.72803794,6.668827)"
       sodipodi:nodetypes="ccccccc" />
    <path
       style="fill:#fc00d0;fill-opacity:0.49323308;stroke-width:0.3;stroke-linecap:round;stroke-linejoin:round;paint-order:markers fill stroke"
       d="m 7.7014157,9.039897 c 0,0 1.3410096,0.4482534 1.8944659,0 C 10.149338,8.5916436 10.224556,7.4029924 10.09009,6.7129987 9.9556245,6.023005 9.8248762,5.5679225 9.0604891,5.1891892 8.296102,4.8104559 6.5377762,4.9119646 5.6731017,5.3539254 4.8084272,5.7958862 4.3051433,6.5357465 4.015444,7.3204634 3.7257447,8.1051803 3.9366905,9.1118925 4.1184041,9.8223938 c 0.1817136,0.7105012 0.2022027,1.0455582 0.967825,1.6679532 0.7656223,0.622395 2.9680561,0.564027 3.7889318,1.256114 0.8208757,0.692087 1.2798261,1.546903 1.1531531,2.162162 -0.1266734,0.615259 -1.029601,0.823681 -1.029601,0.823681 0,0 0.5012185,-0.354761 0.5353925,-0.844273 0.034174,-0.489512 -0.063761,-1.110164 -0.8030888,-1.770914 -0.7393275,-0.66075 -3.2869238,-1.027497 -3.8095238,-1.235521 0.1054566,0.770097 0.4383315,2.031869 0,2.697555 -0.4383315,0.665686 -1.4198664,0.898523 -1.9150579,0.82368 -0.4951915,-0.07484 -0.7001287,-0.597168 -0.7001287,-0.597168 0,0 0.4570443,0.296223 0.8648649,0.267696 0.4078206,-0.02853 1.0034935,-0.02396 1.4002574,-0.658945 C 4.9681925,13.779429 4.8371282,12.177936 4.5302445,11.469755 4.2233608,10.761574 3.9324934,10.577765 3.7580437,9.8532819 3.583594,9.1287986 3.4050681,8.0733951 3.7271557,7.2277992 4.0492433,6.3822033 4.5441187,5.5680579 5.5186615,5.0862291 6.4932043,4.6044003 8.3612518,4.4532011 9.2458172,4.9214929 10.130383,5.3897847 10.324866,6.0482733 10.440154,6.8571429 10.555442,7.6660125 10.400872,8.9705401 9.7400257,9.3899614 9.079179,9.8093827 7.7014157,9.039897 7.7014157,9.039897 Z M 1.5265223,7.0697088 c 0,0 1.1865644,-0.7689621 1.1811802,-1.4811531 C 2.7023183,4.8763646 1.819891,4.0764449 1.196594,3.7513706 0.57329737,3.426296 0.13597931,3.2447798 -0.63671387,3.6062654 -1.409407,3.9677509 -2.4263426,5.405755 -2.6199194,6.3573428 c -0.1935769,0.9515878 0.071077,1.8063664 0.5039686,2.5221254 0.4328918,0.715759 1.3514937,1.1785098 2.02028256,1.4794308 0.66878878,0.300921 0.94352164,0.493806 1.90748734,0.283276 0.9639657,-0.210531 2.2915268,-1.968855 3.3444298,-2.1791323 1.052903,-0.2102773 2.007376,-0.03613 2.4094255,0.4465145 0.4020493,0.482645 0.00203,1.3185308 0.00203,1.3185308 0,0 0.035141,-0.6130579 -0.3262674,-0.9449819 C 6.8800322,8.951182 6.3337255,8.6407805 5.356167,8.8068394 4.3786087,8.972898 2.503474,10.736026 2.0149985,11.01491 c 0.6678372,0.397699 1.8618744,0.924149 2.1090335,1.681898 0.247159,0.75775 -0.1827787,1.670316 -0.5500401,2.010809 -0.3672592,0.340494 -0.9034079,0.175054 -0.9034079,0.175054 0,0 0.5165589,-0.172639 0.7485276,-0.509272 C 3.6510779,14.036763 4.0260469,13.573897 3.7769739,12.867788 3.5279009,12.161679 2.194086,11.265634 1.4490689,11.064022 0.70405184,10.86241 0.37899132,10.975216 -0.29619999,10.659898 -0.97139145,10.344581 -1.9078482,9.8261245 -2.3681434,9.0470859 -2.8284385,8.2680472 -3.1564133,7.3735267 -2.9255047,6.3111831 -2.6945961,5.2488395 -1.6480999,3.69407 -0.73045708,3.2944641 0.18718595,2.8948579 0.82327123,3.1533659 1.5275518,3.567552 2.2318325,3.9817382 3.1553804,4.9159455 3.0712662,5.6941209 2.9871518,6.4722965 1.5265223,7.0697088 1.5265223,7.0697088 Z m -5.3903382,3.5993342 c 0,0 0.138612,-1.4071339 -0.4215583,-1.8469681 -0.5601704,-0.4398344 -1.7357572,-0.2486667 -2.3785299,0.035966 -0.6427727,0.2846322 -1.0573511,0.5133677 -1.2564966,1.3428661 -0.1991456,0.829498 0.2910824,2.521152 0.9143705,3.265801 0.6232881,0.74465 1.4565898,1.070681 2.2860963,1.178501 0.8295066,0.10782 1.7640386,-0.321851 2.416291,-0.65711 0.6522524,-0.335259 0.9743496,-0.429792 1.41077285,-1.314714 C -0.45644678,11.788462 -1.003439,9.654236 -0.5113661,8.6999375 -0.01929319,7.745639 0.71196472,7.107981 1.3399853,7.0945701 c 0.6280206,-0.013411 1.0321374,0.8205004 1.0321374,0.8205004 0,0 -0.4573981,-0.4097101 -0.9422414,-0.3341006 -0.48484334,0.075609 -1.06814171,0.3091971 -1.54780941,1.1770191 -0.47966778,0.8678217 -0.27032616,3.433153 -0.35684512,3.98894 0.72732276,-0.274175 1.88338783,-0.879475 2.62992163,-0.600262 0.7465338,0.279212 1.1919452,1.184327 1.2291691,1.683757 0.037227,0.49943 -0.4264024,0.815458 -0.4264024,0.815458 0,0 0.1870941,-0.511501 0.068534,-0.902749 -0.1185633,-0.391247 -0.2466576,-0.973002 -0.9540104,-1.218521 -0.7073529,-0.245519 -2.23952858,0.238625 -2.86166596,0.6954 -0.62213734,0.456774 -0.73661384,0.78125 -1.40411394,1.112539 -0.6675002,0.331288 -1.6567168,0.740188 -2.5527831,0.614338 -0.8960663,-0.125849 -1.7999195,-0.427153 -2.486524,-1.270045 -0.6866045,-0.842892 -1.2496925,-2.630458 -0.9899761,-3.59705 0.2597163,-0.9665931 0.8584187,-1.3027275 1.6213543,-1.5951154 0.7629355,-0.2923879 2.069151,-0.431978 2.6251086,0.1189695 0.5559578,0.5509479 0.1123459,2.0653949 0.1123459,2.0653949 z m -0.5467485,6.458484 c 0,0 -1.013718,-0.985705 -1.7068548,-0.821978 -0.6931368,0.163726 -1.2766423,1.202028 -1.4548697,1.882034 -0.1782278,0.680005 -0.2578806,1.14675 0.2664822,1.819632 0.5243628,0.672882 2.1526025,1.344334 3.123407,1.32131 0.9708044,-0.02303 1.7452608,-0.471249 2.3467468,-1.052559 0.6014859,-0.58131 0.8482264,-1.579852 0.99278307,-2.298834 0.14455662,-0.718982 0.27147236,-1.029748 -0.14828243,-1.922698 C -1.410907,15.161485 -3.4205563,14.258472 -3.8598544,13.278759 -4.2991526,12.299045 -4.3417618,11.329752 -3.9606825,10.830384 -3.5796029,10.331016 -2.6756623,10.535 -2.6756623,10.535 c 0,0 -0.6055073,0.102158 -0.8486883,0.528366 -0.243181,0.426207 -0.4242354,1.027888 -0.044813,1.943985 0.3794224,0.916098 2.5156018,2.351886 2.89618991,2.766057 0.23911945,-0.73959 0.48667188,-2.020836 1.17042525,-2.430414 0.68375334,-0.409577 1.66910994,-0.193484 2.08278894,0.0888 0.4136802,0.282284 0.3716926,0.841804 0.3716926,0.841804 0,0 -0.2832563,-0.465192 -0.6630674,-0.616436 -0.3798123,-0.151243 -0.9145122,-0.413813 -1.54749381,-0.01386 -0.63298159,0.399952 -1.20975851,1.899714 -1.24053407,2.670915 -0.0307756,0.771201 0.15153518,1.063009 -0.005633,1.791437 -0.15716777,0.728428 -0.45424391,1.756773 -1.11132511,2.37888 -0.6570812,0.622107 -1.456193,1.140908 -2.5432834,1.152183 -1.0870904,0.01127 -2.8357459,-0.663015 -3.4295276,-1.46873 -0.5937821,-0.805715 -0.4832977,-1.483376 -0.2362132,-2.262164 0.2470844,-0.778788 0.9523605,-1.887061 1.7297425,-1.978216 0.7773824,-0.09115 1.6848369,1.199917 1.6848369,1.199917 z m 4.70855409,4.454264 c 0,0 -1.40269779,0.17798 -1.70685479,0.821978 -0.3041571,0.643998 0.1438102,1.747571 0.56433694,2.310892 0.42052628,0.56332 0.73577932,0.916606 1.58879452,0.926177 0.85301524,0.0096 2.39316904,-0.844793 2.98045424,-1.618154 0.5872852,-0.773361 0.719715,-1.658319 0.6402491,-2.49102 C 4.2855039,20.698962 3.6586522,19.883472 3.186659,19.322175 2.7146657,18.760878 2.5508299,18.467892 1.590981,18.239325 c -0.95984894,-0.228568 -2.9188483,0.77962 -3.958717,0.512236 -1.0398688,-0.267384 -1.8242596,-0.838416 -1.977082,-1.447706 -0.1528221,-0.609291 0.5702566,-1.188838 0.5702566,-1.188838 0,0 -0.2976572,0.537099 -0.1160556,0.992961 0.1816016,0.455863 0.5391288,0.972559 1.4919288,1.247092 0.9527997,0.274533 3.4072302,-0.5004 3.9683348,-0.539725 -0.4291457,-0.648077 -1.27651796,-1.640466 -1.17042525,-2.430413 0.1060927,-0.789947 0.88940095,-1.425598 1.36802615,-1.573023 0.478624,-0.147427 0.8898957,0.234256 0.8898957,0.234256 0,0 -0.540309,-0.06858 -0.8953653,0.134065 -0.355055,0.202651 -0.89372055,0.456987 -0.97568281,1.201238 -0.0819623,0.744251 0.73098441,2.130279 1.31474521,2.635177 0.5837609,0.504897 0.9255751,0.5443 1.3970903,1.121346 0.4715153,0.577046 1.090284,1.450472 1.1669834,2.352077 0.076699,0.901604 -0.015923,1.849842 -0.6848985,2.706793 -0.6689751,0.856951 -2.2864248,1.803692 -3.28657491,1.765574 -1.00015045,-0.03812 -1.46108107,-0.547012 -1.91590729,-1.225757 -0.4548263,-0.678745 -0.8815769,-1.921149 -0.468155,-2.585765 0.4134222,-0.664616 1.98861139,-0.569122 1.98861139,-0.569122 z M 6.716209,20.677683 c 0,0 -0.7354174,1.207642 -0.4215583,1.846968 0.3138591,0.639326 1.4559708,0.977158 2.1585864,0.999601 0.7026155,0.02244 1.1753824,-0.0038 1.7147119,-0.664707 0.53933,-0.660946 0.831631,-2.397775 0.593159,-3.339116 C 10.522636,18.579088 9.913317,17.923788 9.2127387,17.466736 8.5121604,17.009685 7.4837488,16.991327 6.7506261,17.010383 c -0.7331225,0.01906 -1.0643382,-0.03552 -1.8414954,0.572405 -0.7771573,0.607931 -1.2103403,2.768133 -2.0677373,3.414424 -0.8573969,0.646291 -1.792907,0.90352 -2.36455274,0.643115 -0.57164569,-0.260406 -0.57392183,-1.187073 -0.57392183,-1.187073 0,0 0.2343348,0.567593 0.70396928,0.709837 0.46963449,0.142244 1.09651799,0.184873 1.90521759,-0.388888 0.8086994,-0.57376 1.7331448,-2.975874 2.0522427,-3.439082 -0.7742554,-0.06855 -2.0784638,-0.02479 -2.6299217,-0.600262 -0.5514579,-0.575471 -0.5600451,-1.584208 -0.3768881,-2.05033 0.183154,-0.466122 0.737989,-0.549692 0.737989,-0.549692 0,0 -0.390498,0.379669 -0.4534348,0.783613 -0.062934,0.403944 -0.1999391,0.983665 0.3308372,1.511779 0.5307764,0.528113 2.1212811,0.756701 2.8799946,0.615097 0.7587135,-0.141605 1.0026381,-0.384278 1.7477756,-0.393141 0.7451377,-0.0089 1.8138058,0.05194 2.5665296,0.554111 0.7527242,0.502175 1.4363372,1.165807 1.6892292,2.223133 0.252892,1.057326 -0.01538,2.912183 -0.668765,3.670365 -0.6533847,0.758184 -1.3386401,0.801263 -2.1528837,0.73367 C 7.4205668,23.765871 6.1831415,23.324892 5.9212881,22.587284 5.6594348,21.849676 6.716209,20.677683 6.716209,20.677683 Z m 3.294835,-5.581668 c 0,0 0.485647,1.327925 1.18118,1.481153 0.695533,0.153229 1.671755,-0.529075 2.127376,-1.064409 0.455621,-0.535334 0.729899,-0.921296 0.549417,-1.755054 -0.180482,-0.833759 -1.356143,-2.145183 -2.240798,-2.545655 -0.884654,-0.400472 -1.7768929,-0.33266 -2.5710339,-0.06989 -0.7941409,0.262767 -1.4496977,1.055366 -1.8918934,1.640426 -0.4421956,0.585059 -0.691379,0.809983 -0.7006293,1.796628 -0.00925,0.986644 1.4095787,2.672184 1.3802909,3.74548 -0.029288,1.073296 -0.4114589,1.965087 -0.9714671,2.249657 -0.5600085,0.284571 -1.2859255,-0.291417 -1.2859255,-0.291417 0,0 0.589868,0.170678 0.993891,-0.107809 0.404023,-0.278488 0.8282068,-0.742026 0.8838386,-1.732027 0.055632,-0.990001 -1.2460339,-3.210455 -1.40923,-3.74874 -0.536335,0.562596 -1.3152839,1.60955 -2.1090334,1.681898 -0.7937495,0.07235 -1.5877658,-0.549877 -1.837998,-0.983697 -0.2502346,-0.433818 0.030362,-0.919711 0.030362,-0.919711 0,0 0.053366,0.542024 0.3299413,0.843085 0.2765776,0.301058 0.6444006,0.769624 1.3882301,0.683919 0.7438295,-0.0857 1.9142099,-1.186689 2.2765493,-1.868163 0.3623393,-0.681475 0.3246941,-1.023488 0.7823502,-1.611586 0.4576563,-0.588098 1.1714949,-1.385709 2.0334267,-1.661111 0.8619318,-0.275402 1.8070059,-0.396104 2.7913329,0.06541 0.984326,0.461513 2.267247,1.82774 2.452639,2.811296 0.185393,0.983557 -0.208176,1.54617 -0.768695,2.140628 -0.560519,0.594458 -1.676813,1.28697 -2.41676,1.031804 -0.739948,-0.255165 -0.997361,-1.812111 -0.997361,-1.812111 z"
       id="path1"
       sodipodi:nodetypes="czzzzzzzzzczzczzczzzzzzzzzc"
       inkscape:path-effect="#path-effect1"
       inkscape:original-d="m 7.7014157,9.039897 c 0,0 1.3410096,0.4482534 1.8944659,0 C 10.149338,8.5916436 10.224556,7.4029924 10.09009,6.7129987 9.9556245,6.023005 9.8248762,5.5679225 9.0604891,5.1891892 8.296102,4.8104559 6.5377762,4.9119646 5.6731017,5.3539254 4.8084272,5.7958862 4.3051433,6.5357465 4.015444,7.3204634 3.7257447,8.1051803 3.9366905,9.1118925 4.1184041,9.8223938 c 0.1817136,0.7105012 0.2022027,1.0455582 0.967825,1.6679532 0.7656223,0.622395 2.9680561,0.564027 3.7889318,1.256114 0.8208757,0.692087 1.2798261,1.546903 1.1531531,2.162162 -0.1266734,0.615259 -1.029601,0.823681 -1.029601,0.823681 0,0 0.5012185,-0.354761 0.5353925,-0.844273 0.034174,-0.489512 -0.063761,-1.110164 -0.8030888,-1.770914 -0.7393275,-0.66075 -3.2869238,-1.027497 -3.8095238,-1.235521 0.1054566,0.770097 0.4383315,2.031869 0,2.697555 -0.4383315,0.665686 -1.4198664,0.898523 -1.9150579,0.82368 -0.4951915,-0.07484 -0.7001287,-0.597168 -0.7001287,-0.597168 0,0 0.4570443,0.296223 0.8648649,0.267696 0.4078206,-0.02853 1.0034935,-0.02396 1.4002574,-0.658945 C 4.9681925,13.779429 4.8371282,12.177936 4.5302445,11.469755 4.2233608,10.761574 3.9324934,10.577765 3.7580437,9.8532819 3.583594,9.1287986 3.4050681,8.0733951 3.7271557,7.2277992 4.0492433,6.3822033 4.5441187,5.5680579 5.5186615,5.0862291 6.4932043,4.6044003 8.3612518,4.4532011 9.2458172,4.9214929 10.130383,5.3897847 10.324866,6.0482733 10.440154,6.8571429 10.555442,7.6660125 10.400872,8.9705401 9.7400257,9.3899614 9.079179,9.8093827 7.7014157,9.039897 7.7014157,9.039897 Z"
       transform="translate(5.5330878,-6.4940978)" />
    <path
       id="path2"
       style="fill:#00fcdb;fill-opacity:0.20150375;stroke-width:0.3;stroke-linecap:round;stroke-linejoin:round;paint-order:markers fill stroke"
       d="M 10.314812,1.4139988 C 10.219042,1.3533056 10.091583,1.294771 9.9160936,1.2382788 8.9801525,0.9369875 7.5258739,1.4201445 5.899634,2.1524349 4.2733942,2.884725 1.6753844,4.2259594 0.55212321,5.9898874 -0.5711384,7.7538156 -1.5387352,10.803664 -0.54975292,11.85269 0.43922827,12.901717 1.3724891,12.37567 2.1144093,11.512567 2.8563286,10.649465 1.2094361,8.4887771 2.0147366,7.3701935 2.8255411,6.2439647 3.4942571,4.0574821 5.9993067,6.294808 7.0871206,7.2663633 7.3787496,9.4361607 8.743676,10.016466 10.108602,10.596771 11.925711,10.394503 12.980131,9.4573738 14.034552,8.5202442 14.389336,6.7197783 14.014229,5.3967246 13.639122,4.0736711 11.768354,3.2763893 11.095646,2.5726911 10.549072,2.0009363 10.729813,1.6770008 10.314812,1.4139988 Z m 1.022173,3.4469858 c 0.186111,0.1190183 0.354134,0.2723013 0.494223,0.4606019 0.640404,0.8608016 0.546956,3.0014006 -0.445697,3.6457973 C 10.39286,9.611782 8.6257125,8.9517576 8.1094458,7.9630315 7.5931796,6.9743055 8.248038,5.374269 9.1072588,4.8533116 9.778525,4.4463135 10.672317,4.435906 11.336985,4.8609846 Z M 8.7077558,3.1716424 c 0.048555,0.02621 0.088971,0.061144 0.1154808,0.101658 0.094252,0.1440564 0.060086,0.3292144 -0.095156,0.4610508 -0.1552416,0.1318369 -0.6200231,0.2271175 -0.750093,0.028002 -0.1300697,-0.1991155 0.1092469,-0.517546 0.294666,-0.6080231 0.13327,-0.06503 0.3110163,-0.049667 0.4351019,0.017312 z M 2.4578873,-0.72720653 C 2.3507242,-0.6901726 2.22549,-0.62701631 2.0719071,-0.5250358 1.2527984,0.01886038 0.72381784,1.4571046 0.2824016,3.1851257 -0.15901491,4.9131467 -0.7302282,7.7805985 -0.05147569,9.7585905 0.62727675,11.736583 2.4084576,14.39463 3.845239,14.275469 5.2820212,14.15631 5.45262,13.098673 5.2403982,11.98048 5.0281772,10.862289 2.3120628,10.802715 1.9396156,9.4756801 1.5646227,8.1395755 0.27209946,6.2535026 3.5831842,5.6899258 5.0210176,5.4451936 6.8992612,6.5700353 8.2039794,5.8647071 9.5086979,5.1593789 10.483507,3.6125946 10.408251,2.2039249 10.332994,0.79525508 9.1465368,-0.60469832 7.8782564,-1.1363382 6.6099763,-1.6679783 4.8202316,-0.70245016 3.8506318,-0.61525486 3.0628321,-0.54440874 2.9222598,-0.88768889 2.4578873,-0.72720653 Z M 5.7901641,0.62278639 C 5.9992545,0.55148591 6.2238568,0.51569032 6.4584198,0.52356836 7.5307074,0.55958086 9.1460309,1.9672835 9.0309317,3.1451454 8.9158349,4.3230067 7.2980083,5.2931001 6.2031041,5.080273 5.1082002,4.8674456 4.2655389,3.3578502 4.3939533,2.3612727 4.494277,1.5826966 5.0434103,0.87741284 5.7901641,0.62278639 Z M 2.8300854,1.6251131 c 0.050765,-0.02162 0.103277,-0.031438 0.1514805,-0.026904 0.171393,0.016128 0.294853,0.1582849 0.3011354,0.3618562 C 3.288984,2.1636373 3.0736908,2.5864247 2.8369189,2.5639709 2.6001469,2.541517 2.5003994,2.1558736 2.5452685,1.9544955 2.5775182,1.809755 2.7003531,1.6803666 2.8300854,1.6251131 Z m -6.9449722,2.4554515 c -0.037861,0.1068738 -0.066565,0.2441631 -0.082591,0.4278228 -0.085471,0.9795188 0.7091799,2.289823 1.7849826,3.7123397 1.0758025,1.4225167 2.96152095,3.6569359 4.9311727,4.3595239 1.9696521,0.702588 5.158345,0.96727 5.9609999,-0.230346 C 9.2823341,11.152289 8.5618065,10.359483 7.55525,9.8282231 6.5486954,9.2969634 4.8086488,11.383363 3.5389141,10.847161 2.2605012,10.307295 -0.019965,10.141883 1.6038405,7.2017887 2.3089756,5.9250572 4.359478,5.1579146 4.6215087,3.6980798 4.8835396,2.2382449 4.2819987,0.51170384 3.1337345,-0.30774913 1.9854702,-1.1272022 0.15119881,-1.0724496 -1.055214,-0.41234003 -2.2616266,0.24776911 -2.6226339,2.2490448 -3.1589974,3.0614738 -3.5947927,3.7215722 -3.9508254,3.6174445 -4.1148868,4.0805646 Z M -0.98177918,2.3169925 C -0.9071584,2.1090639 -0.7951073,1.9111446 -0.64270032,1.7326677 0.05401575,0.91677297 2.1617397,0.53155048 3.0108661,1.3559235 3.8599934,2.1802943 3.6097446,4.0500054 2.7606881,4.7733405 1.9116315,5.4966751 0.20599158,5.2142769 -0.49309899,4.4925226 -1.0392635,3.928652 -1.2482975,3.0595851 -0.98177918,2.3169925 Z M -2.0437075,5.2562158 c 0.014749,-0.05317 0.039813,-0.1003465 0.073412,-0.1352065 0.1194716,-0.1239445 0.30759,-0.1318364 0.4706654,-0.00982 0.163076,0.1220129 0.3593914,0.5539395 0.1942114,0.7250555 -0.1651801,0.171116 -0.5288797,0.00866 -0.658348,-0.1519802 -0.093055,-0.115458 -0.117629,-0.2921666 -0.079941,-0.4280453 z m -2.41037,6.9607472 c 0.059952,0.09624 0.1493915,0.204276 0.2829906,0.331315 0.7125284,0.677544 2.2324221,0.873222 4.01534244,0.91905 C 1.6271758,13.513157 4.5498415,13.431981 6.3272046,12.330101 8.1045681,11.228222 10.299622,8.9002278 9.8637352,7.5259852 9.4278497,6.1517415 8.3587677,6.2207664 7.3158341,6.6764887 6.2729021,7.1322098 6.8192138,9.793482 5.6083277,10.451884 4.3891658,11.114786 2.8379942,12.794594 1.5517619,9.6919329 0.99321751,8.3446071 1.6719086,6.2631541 0.6939373,5.1480982 -0.28403397,4.033042 -2.0089527,3.4268648 -3.3655579,3.8136934 -4.7221632,4.200522 -5.8230053,5.6687508 -6.059097,7.0235338 c -0.2360919,1.3547827 1.1034841,2.8848046 1.4042495,3.8106912 0.2443718,0.752284 -0.059021,0.965719 0.20077,1.382738 z M -3.879433,8.6678312 C -3.9954729,8.479849 -4.0803497,8.2688432 -4.1248644,8.0384081 -4.3283612,6.9849915 -3.3153959,5.0969243 -2.1414535,4.9470387 -0.96751216,4.7971511 0.33825925,6.1585492 0.3744073,7.2733604 0.41055498,8.3881713 -0.87368192,9.5456219 -1.8738481,9.6421864 -2.6552278,9.7176275 -3.4650223,9.3392026 -3.879433,8.6678312 Z m 1.6358758,2.6628248 c -0.032374,-0.04468 -0.053631,-0.09369 -0.059937,-0.141696 -0.022414,-0.170685 0.088705,-0.322682 0.2857748,-0.374106 0.1970698,-0.05142 0.6571642,0.06439 0.6879601,0.300224 0.030796,0.235832 -0.3229828,0.418893 -0.5292962,0.419959 -0.1482878,7.67e-4 -0.3017656,-0.0902 -0.3845018,-0.204381 z m 3.9392898,6.224458 c 0.1126191,0.01313 0.2528536,0.01056 0.4354747,-0.01468 0.9739792,-0.134636 2.074605,-1.200933 3.2220675,-2.566303 C 6.5007376,13.608762 8.2595237,11.273118 8.5062074,9.1965088 8.7528914,7.1198994 8.3013863,3.9522564 6.955189,3.4362205 5.6089919,2.9201825 4.996396,3.7990608 4.7024356,4.8985974 4.4084752,5.9981319 6.8297614,7.2302843 6.5895459,8.5875002 6.3476887,9.9539921 6.6938756,12.21409 3.4661645,11.285229 2.0645361,10.881873 0.8603476,9.053486 -0.62119338,9.1228688 -2.1027345,9.1922514 -3.6521322,10.162902 -4.1955269,11.464722 c -0.5433948,1.301821 -0.081851,3.077919 0.8301601,4.107197 0.9120109,1.029277 2.94344217,0.935907 3.85485399,1.278041 0.74052191,0.277983 0.71822961,0.64826 1.20624541,0.705154 z m -2.41653766,-2.662123 c -0.21932006,-0.02648 -0.43721084,-0.09168 -0.64512674,-0.200553 -0.9504724,-0.497694 -1.7950493,-2.466853 -1.1802934,-3.47813 0.6147535,-1.011278 2.49327262,-1.183353 3.38740503,-0.516541 0.89413197,0.666812 0.99835467,2.392527 0.45025847,3.234695 -0.42820005,0.657944 -1.2289632,1.055123 -2.01224336,0.960529 z M 2.381027,15.274256 c -0.055119,-0.0025 -0.1066898,-0.01648 -0.1481524,-0.04148 -0.1474218,-0.0889 -0.1969761,-0.270542 -0.1143101,-0.456679 0.082666,-0.186138 0.460079,-0.473644 0.6636608,-0.350682 0.2035818,0.122961 0.1261268,0.513693 -0.00167,0.67566 -0.091857,0.116414 -0.2586665,0.179693 -0.3995248,0.173186 z m 7.3225841,0.801025 C 9.7840933,15.995419 9.8695229,15.88418 9.9636486,15.725661 10.465652,14.88023 10.318217,13.3549 9.9661587,11.606484 9.614101,9.8580674 8.8846057,7.0267425 7.4148522,5.5391328 5.9450986,4.0515228 3.1870267,2.4295306 1.9442333,3.1602868 0.70143842,3.8910417 1.0066258,4.9179601 1.6829968,5.8333375 c 0.6763694,0.915376 3.1493522,-0.2094273 4.0606944,0.824591 0.9175709,1.0410854 2.9004305,2.1795734 0.161773,4.1239645 -1.1892577,0.844349 -3.3695473,0.645841 -4.2390273,1.847415 -0.86948037,1.201575 -1.07662883,3.018134 -0.3976259,4.254649 0.6790031,1.236514 2.3553808,1.983045 3.7287319,1.911749 1.3733509,-0.07129 2.5669282,-1.717747 3.4026748,-2.217 0.679044,-0.405644 0.954639,-0.157351 1.3033934,-0.503425 z M 6.1155935,16.3048 C 5.9581457,16.459761 5.7713171,16.589463 5.556565,16.684138 4.574842,17.11694 2.5087065,16.549506 2.1013522,15.43835 1.693996,14.327195 2.7306996,12.751222 3.8095164,12.467912 c 1.0788167,-0.28331 2.4930172,0.711171 2.8097186,1.664773 0.2474229,0.745002 0.058682,1.618701 -0.5036415,2.172115 z M 8.347639,14.117405 c -0.036358,0.04151 -0.079409,0.07314 -0.1248062,0.08996 -0.1614176,0.05983 -0.3343306,-0.01468 -0.4283171,-0.195364 -0.093987,-0.180686 -0.083455,-0.655016 0.1396114,-0.737517 0.2230665,-0.0825 0.4802603,0.221672 0.5272093,0.422576 0.033745,0.144399 -0.020786,0.31427 -0.1136974,0.42034 z M 13.539462,8.8918094 C 13.527203,8.7790923 13.493497,8.6429445 13.428249,8.4705194 13.080258,7.5509191 11.795783,6.7151618 10.209311,5.9002919 8.6228399,5.0854218 5.9543881,3.890462 3.8749517,4.1120521 1.795515,4.333642 -1.1922393,5.4786938 -1.3957801,6.905968 -1.5993228,8.3332423 -0.60616445,8.7349103 0.53121678,8.7768307 1.668596,8.8187514 2.3310689,6.1839922 3.7077096,6.116176 5.093759,6.0478963 7.2201576,5.20747 7.0328186,8.5609465 6.9514669,10.017188 5.4368787,11.59804 5.8341958,13.026996 c 0.3973169,1.428957 1.6884046,2.723518 3.0785022,2.963606 1.390098,0.240089 3.018963,-0.605102 3.819493,-1.723283 0.800529,-1.118181 0.257464,-3.077903 0.388212,-4.042596 0.106232,-0.7838123 0.472185,-0.8444732 0.419059,-1.3329136 z m -2.057647,2.9483276 c 0.02299,0.219714 0.0079,0.446651 -0.05197,0.67358 -0.273716,1.037389 -2.0055683,2.29897 -3.1282868,1.924658 C 7.1788398,14.064065 6.5930689,12.270934 7.0441991,11.25084 7.4953295,10.230746 9.154586,9.7451288 10.097602,10.092083 c 0.736732,0.271058 1.302139,0.963364 1.384213,1.748054 z M 11.163298,8.7312354 c 0.0098,0.054304 0.0077,0.1076832 -0.0075,0.1536692 -0.05386,0.1635069 -0.219927,0.2522388 -0.419793,0.2130648 -0.199866,-0.039174 -0.564146,-0.3431482 -0.489568,-0.5689873 0.07458,-0.2258392 0.472748,-0.2372721 0.659093,-0.1487171 0.133935,0.063649 0.232746,0.2121957 0.257746,0.3509704 z"
       inkscape:path-effect="#path-effect3"
       inkscape:original-d="m 5.4089349,-0.80040637 c -0.1133657,0.001912 -0.2520232,0.0230403 -0.4296875,0.0722656 C 4.0317045,-0.46560564 3.082111,0.73715747 2.1257318,2.2425624 1.1693524,3.7479671 -0.26436105,6.2961096 -0.23364315,8.3870936 -0.20292545,10.478078 0.66442325,13.557936 2.067138,13.891 3.4698528,14.224066 3.9605615,13.27175 4.1062005,12.142953 4.2518397,11.014158 1.6886091,10.113783 1.7468255,8.736703 1.8054397,7.3502112 1.1627625,5.1559338 4.4851068,5.6488124 5.9278296,5.8628442 7.363722,7.515503 8.8229974,7.2503748 10.282273,6.9852468 11.689356,5.8178082 12.055419,4.455453 12.421482,3.0930976 11.728613,1.3938384 10.688231,0.49451551 9.6478494,-0.40480741 7.6467139,-0.04302365 6.6979974,-0.26134387 5.9271654,-0.43872905 5.9001861,-0.80869387 5.4089349,-0.80040637 Z M 8.1569814,1.517953 c 0.220895,-0.00282 0.445505,0.032927 0.666016,0.1132812 1.00805,0.3673319 2.1061606,2.2071824 1.6308586,3.2910156 C 9.9785564,6.0060832 8.1394154,6.4256119 7.1647943,5.8831874 6.1901736,5.3407627 5.8581509,3.6440844 6.2897943,2.736703 6.6270156,2.0278113 7.3680741,1.5280065 8.1569814,1.517953 Z M 5.0319818,1.551156 c 0.05497,-0.00478 0.1079335,0.0022 0.1523437,0.021484 0.1579032,0.068573 0.231095,0.2420486 0.1738281,0.4375 C 5.3008868,2.2055919 4.9649082,2.5405824 4.7468255,2.4456874 4.5287428,2.3507923 4.5537285,1.9532422 4.6589349,1.7757655 4.734552,1.6482041 4.8915037,1.5633751 5.0319818,1.551156 Z"
       transform="translate(3.9589111,-0.56521976)"
       sodipodi:nodetypes="ssssssssssssscsssscscssss" />
    <path
       style="fill:#7bff6e;fill-opacity:0.642105;stroke-width:0.3;stroke-linecap:round;stroke-linejoin:round;paint-order:markers fill stroke"
       d="M 1.4851973,4.5138348 5.0671436,7.5424723"
       id="path4" />
  </g>
</svg>
